<?xml version="1.0" encoding="UTF-8" standalone="no"?>
<!-- Created with Inkscape (http://www.inkscape.org/) -->

<svg
   width="4000"
   height="3000"
   viewBox="0 0 1058.3333 793.75"
   version="1.1"
   id="svg1"
   inkscape:version="1.3.2 (091e20e, 2023-11-25, custom)"
   sodipodi:docname="sunset_001_002-clouds.svg"
   inkscape:export-filename="sunset_001_001.png"
   inkscape:export-xdpi="96"
   inkscape:export-ydpi="96"
   xmlns:inkscape="http://www.inkscape.org/namespaces/inkscape"
   xmlns:sodipodi="http://sodipodi.sourceforge.net/DTD/sodipodi-0.dtd"
   xmlns:xlink="http://www.w3.org/1999/xlink"
   xmlns="http://www.w3.org/2000/svg"
   xmlns:svg="http://www.w3.org/2000/svg">
  <sodipodi:namedview
     id="namedview1"
     pagecolor="#ffffff"
     bordercolor="#000000"
     borderopacity="0.25"
     inkscape:showpageshadow="2"
     inkscape:pageopacity="0.0"
     inkscape:pagecheckerboard="0"
     inkscape:deskcolor="#d1d1d1"
     inkscape:document-units="px"
     inkscape:zoom="0.31148054"
     inkscape:cx="1727.2347"
     inkscape:cy="1359.6355"
     inkscape:window-width="1920"
     inkscape:window-height="991"
     inkscape:window-x="-9"
     inkscape:window-y="1341"
     inkscape:window-maximized="1"
     inkscape:current-layer="layer1" />
  <defs
     id="defs1">
    <linearGradient
       id="linearGradient5"
       inkscape:collect="always">
      <stop
         style="stop-color:#5200b0;stop-opacity:0;"
         offset="0.00255102"
         id="stop5" />
      <stop
         style="stop-color:#5200b0;stop-opacity:1;"
         offset="1"
         id="stop6" />
    </linearGradient>
    <radialGradient
       inkscape:collect="always"
       xlink:href="#linearGradient5"
       id="radialGradient6"
       cx="526.16344"
       cy="273.89329"
       fx="526.16344"
       fy="273.89329"
       r="532.20956"
       gradientTransform="matrix(1,0,0,0.51245169,0,133.53621)"
       gradientUnits="userSpaceOnUse" />
  </defs>
  <g
     inkscape:label="Layer 1"
     inkscape:groupmode="layer"
     id="layer1">
    <rect
       style="fill:#2c028e;fill-opacity:1;stroke:#ff01e9;stroke-width:0.079375;stroke-linecap:round;stroke-miterlimit:4.2;paint-order:markers fill stroke"
       id="rect1"
       width="1072.7488"
       height="327.9512"
       x="-10.811578"
       y="473.30682"
       inkscape:label="water" />
    <rect
       style="fill:url(#radialGradient6);fill-opacity:1;stroke:#ff01e9;stroke-width:0.0780645;stroke-linecap:round;stroke-miterlimit:4.2;paint-order:markers fill stroke"
       id="rect2"
       width="1064.3411"
       height="545.38531"
       x="-6.0070872"
       y="1.2006311"
       inkscape:label="sky" />
    <circle
       style="fill:#ffffff;fill-opacity:1;stroke:#ff01e9;stroke-width:0.079375;stroke-linecap:round;stroke-miterlimit:4.2;paint-order:markers fill stroke"
       id="path2"
       cx="516.8421"
       cy="365.19107"
       r="85.291336" />
    <path
       style="fill:#e0d3fd;fill-opacity:1;stroke:#ff01e9;stroke-width:0.079375;stroke-linecap:round;stroke-miterlimit:4.2;paint-order:markers fill stroke"
       d="m 414.4438,619.86379 -61.26559,12.01285 92.49905,13.21416 -73.46567,0.7984 101.25628,9.76212 -108.27681,6.25748 87.12873,17.57475 -40.16885,7.02941 46.26789,14.21386 -120.85736,4.42829 99.70677,13.21416 -75.68104,18.01929 127.937,12.61352 -137.54728,15.01607 156.10687,14.59655 102.6617,-6.91873 -89.00855,-15.00639 130.56156,0.12085 -192.18511,-28.97662 98.56158,-0.11595 -75.67318,-11.85521 155.48193,-9.50626 -155.5666,-13.21413 93.70036,-4.80515 -138.14186,-21.60839 110.78939,-2.6936 -56.73758,-18.96933 63.66816,-3.57885 -118.92735,-15.01609 124.93379,-16.21736 -49.25274,-6.00644 38.44118,-7.2077 -52.85661,-14.41545 -60.06433,6.00643 48.05146,10.81159 -68.47332,4.80513 48.05145,7.20772 z"
       id="path6"
       sodipodi:nodetypes="cccccccccccccccccccccccccccccccccccccc" />
    <circle
       id="path9"
       style="fill:#dbaaff;stroke:#ff01e9;stroke-width:0.264583"
       cx="104.48085"
       cy="169.88754"
       r="0.033943288" />
    <path
       style="fill:#dbaaff;fill-opacity:1;stroke:#ff01e9;stroke-width:0.079375;stroke-linecap:round;stroke-miterlimit:4.2;paint-order:markers fill stroke"
       d="M 84.090049,213.22834 150.76144,201.81612"
       id="path10" />
    <path
       style="fill:#dbaaff;fill-opacity:1;stroke:#ff01e9;stroke-width:0.079375;stroke-linecap:round;stroke-miterlimit:4.2;paint-order:markers fill stroke"
       d="m 82.395464,214.05831 c 0,0 -2.548313,-9.34381 22.085386,-8.49437 24.63369,0.84944 -10.19326,-10.19325 27.182,-5.94606 37.37526,4.24718 1.69888,-5.09663 45.86964,5.94606 44.17077,11.04269 17.8382,19.53707 60.31008,15.28988 42.47188,-4.24719 28.03145,-6.79551 48.41797,-5.94607 20.38649,0.84944 11.89212,-0.84944 39.07411,0 27.18202,0.84944 13.59101,23.78426 46.71909,11.89213 33.12806,-11.89213 38.2247,-12.74157 40.77301,-17.83819 2.54831,-5.09663 34.82695,-22.93482 -6.7955,-18.68763 -41.62246,4.24719 -22.08538,14.44044 -65.4067,3.39775 -43.32134,-11.04269 6.79548,3.39775 -47.56853,-11.04269 -54.36401,-14.44044 -36.52582,-15.28988 -78.14827,-20.38651 -41.62245,-5.09662 -18.68763,-1.69887 -51.8157,-2.54831 -33.12807,-0.84944 -41.62245,-16.13932 -50.11683,-0.84944 -8.49437,15.28988 -11.89213,14.44044 -25.48313,19.53707 -13.591005,5.09663 -29.730321,16.98876 -29.730321,16.98876 L 28.031445,191.1235"
       id="path11" />
  </g>
</svg>
