<?xml version="1.0" encoding="UTF-8" standalone="no"?>
<!-- Created with Inkscape (http://www.inkscape.org/) -->

<svg
   width="4000"
   height="3000"
   viewBox="0 0 1058.3333 793.75"
   version="1.1"
   id="svg1"
   inkscape:version="1.4.3 (0d15f75, 2025-12-25)"
   sodipodi:docname="sunset_05_003-clouds.svg"
   inkscape:export-filename="sunset_001_001.png"
   inkscape:export-xdpi="96"
   inkscape:export-ydpi="96"
   xmlns:inkscape="http://www.inkscape.org/namespaces/inkscape"
   xmlns:sodipodi="http://sodipodi.sourceforge.net/DTD/sodipodi-0.dtd"
   xmlns:xlink="http://www.w3.org/1999/xlink"
   xmlns="http://www.w3.org/2000/svg"
   xmlns:svg="http://www.w3.org/2000/svg">
  <sodipodi:namedview
     id="namedview1"
     pagecolor="#ffffff"
     bordercolor="#000000"
     borderopacity="0.25"
     inkscape:showpageshadow="2"
     inkscape:pageopacity="0.0"
     inkscape:pagecheckerboard="0"
     inkscape:deskcolor="#d1d1d1"
     inkscape:document-units="px"
     inkscape:zoom="0.1712966"
     inkscape:cx="1800.9698"
     inkscape:cy="1497.4028"
     inkscape:window-width="1920"
     inkscape:window-height="1016"
     inkscape:window-x="0"
     inkscape:window-y="0"
     inkscape:window-maximized="1"
     inkscape:current-layer="layer1"
     showguides="false" />
  <defs
     id="defs1">
    <inkscape:path-effect
       effect="powerstroke"
       message=""
       id="path-effect32"
       is_visible="true"
       lpeversion="1.3"
       scale_width="1"
       interpolator_type="CubicBezierJohan"
       interpolator_beta="0.2"
       start_linecap_type="zerowidth"
       end_linecap_type="zerowidth"
       offset_points="0,0.5772388"
       linejoin_type="extrp_arc"
       miter_limit="4"
       not_jump="false"
       sort_points="true" />
    <inkscape:path-effect
       effect="spiro"
       id="path-effect31"
       is_visible="true"
       lpeversion="1" />
    <inkscape:path-effect
       effect="simplify"
       id="path-effect30"
       is_visible="true"
       lpeversion="1.3"
       threshold="10.869565"
       steps="1"
       smooth_angles="360"
       helper_size="0"
       simplify_individual_paths="false"
       simplify_just_coalesce="false" />
    <inkscape:path-effect
       effect="powerstroke"
       message=""
       id="path-effect28"
       is_visible="true"
       lpeversion="1.3"
       scale_width="1"
       interpolator_type="CubicBezierJohan"
       interpolator_beta="0.2"
       start_linecap_type="zerowidth"
       end_linecap_type="zerowidth"
       offset_points="0,0.5772388"
       linejoin_type="extrp_arc"
       miter_limit="4"
       not_jump="false"
       sort_points="true" />
    <inkscape:path-effect
       effect="spiro"
       id="path-effect27"
       is_visible="true"
       lpeversion="1" />
    <inkscape:path-effect
       effect="simplify"
       id="path-effect26"
       is_visible="true"
       lpeversion="1.3"
       threshold="10.869565"
       steps="1"
       smooth_angles="360"
       helper_size="0"
       simplify_individual_paths="false"
       simplify_just_coalesce="false" />
    <inkscape:path-effect
       effect="powerstroke"
       message=""
       id="path-effect21"
       is_visible="true"
       lpeversion="1.3"
       scale_width="1"
       interpolator_type="CubicBezierJohan"
       interpolator_beta="0.2"
       start_linecap_type="zerowidth"
       end_linecap_type="zerowidth"
       offset_points="0,0.5772388"
       linejoin_type="extrp_arc"
       miter_limit="4"
       not_jump="false"
       sort_points="true" />
    <inkscape:path-effect
       effect="spiro"
       id="path-effect20"
       is_visible="true"
       lpeversion="1" />
    <inkscape:path-effect
       effect="simplify"
       id="path-effect19"
       is_visible="true"
       lpeversion="1.3"
       threshold="10.869565"
       steps="1"
       smooth_angles="360"
       helper_size="0"
       simplify_individual_paths="false"
       simplify_just_coalesce="false" />
    <inkscape:path-effect
       effect="powerstroke"
       message=""
       id="path-effect13"
       is_visible="true"
       lpeversion="1.3"
       scale_width="1"
       interpolator_type="CubicBezierJohan"
       interpolator_beta="0.2"
       start_linecap_type="zerowidth"
       end_linecap_type="zerowidth"
       offset_points="0,0.5772388"
       linejoin_type="extrp_arc"
       miter_limit="4"
       not_jump="false"
       sort_points="true" />
    <inkscape:path-effect
       effect="spiro"
       id="path-effect12"
       is_visible="true"
       lpeversion="1" />
    <inkscape:path-effect
       effect="simplify"
       id="path-effect11"
       is_visible="true"
       lpeversion="1.3"
       threshold="10.869565"
       steps="1"
       smooth_angles="360"
       helper_size="0"
       simplify_individual_paths="false"
       simplify_just_coalesce="false" />
    <inkscape:path-effect
       effect="powerstroke"
       message=""
       id="path-effect6"
       is_visible="true"
       lpeversion="1.3"
       scale_width="1"
       interpolator_type="CubicBezierJohan"
       interpolator_beta="0.2"
       start_linecap_type="zerowidth"
       end_linecap_type="zerowidth"
       offset_points="0,0.5772388"
       linejoin_type="extrp_arc"
       miter_limit="4"
       not_jump="false"
       sort_points="true" />
    <inkscape:path-effect
       effect="spiro"
       id="path-effect5"
       is_visible="true"
       lpeversion="1" />
    <inkscape:path-effect
       effect="simplify"
       id="path-effect4"
       is_visible="true"
       lpeversion="1.3"
       threshold="10.869565"
       steps="1"
       smooth_angles="360"
       helper_size="0"
       simplify_individual_paths="false"
       simplify_just_coalesce="false" />
    <linearGradient
       id="linearGradient5"
       inkscape:collect="always">
      <stop
         style="stop-color:#5200b0;stop-opacity:0;"
         offset="0"
         id="stop5" />
      <stop
         style="stop-color:#5200b0;stop-opacity:1;"
         offset="1"
         id="stop6" />
    </linearGradient>
    <clipPath
       clipPathUnits="userSpaceOnUse"
       id="clipPath7">
      <path
         style="fill:#48146d;fill-opacity:1;stroke-width:0.529169;stroke-linecap:square;stroke-miterlimit:4.2;paint-order:markers fill stroke"
         d="m 587.81092,182.4895 2.95174,-12.61277 67.33329,-6.58065 36.59465,-8.686 -23.58356,-4.79828 95.59637,-9.96224 44.3557,3.6509 36.53586,-5.32262 -25.57738,-16.60904 31.18779,-1.31725 52.01015,-10.07267 77.18944,-30.137838 78.35133,12.101227 -2.4223,34.999741 -93.68535,-3.88521 29.02357,16.90688 -53.1327,-0.27646 4.50017,-8.70355 -41.45095,10.72044 28.93224,7.25647 -72.52647,10.64984 50.60275,0.73332 -68.12917,17.27905 -74.2329,-9.59225 -76.79286,14.49022 z"
         id="path8"
         sodipodi:nodetypes="cccccccccccccccccccccccccc"
         inkscape:label="to-clip" />
    </clipPath>
    <clipPath
       clipPathUnits="userSpaceOnUse"
       id="clipPath13">
      <path
         style="fill:#48146d;fill-opacity:1;stroke-width:0.529169;stroke-linecap:square;stroke-miterlimit:4.2;paint-order:markers fill stroke"
         d="m 44.674935,165.00903 75.659165,-12.97014 -7.9262,12.24958 62.68902,-18.01408 51.16001,-23.05804 64.13015,-11.52901 -15.13184,-10.80845 109.52565,-5.043948 55.48339,0.720564 2.88226,12.970144 -99.43777,18.01409 24.49918,7.92619 -6.4851,6.48507 -87.18817,0.72057 -33.14592,15.85239 -38.18986,2.1617 30.98423,11.52901 0.72056,9.36732 -90.79099,-0.72056 -44.67494,7.9262 18.73465,10.08789 -2.16169,6.48507 -63.409586,-15.13183 z"
         id="path14"
         inkscape:label="cloud 2 dark clipping" />
    </clipPath>
    <clipPath
       clipPathUnits="userSpaceOnUse"
       id="clipPath17">
      <path
         style="fill:#48146d;fill-opacity:1;stroke-width:0.529169;stroke-linecap:square;stroke-miterlimit:4.2;paint-order:markers fill stroke"
         d="m 30.119552,103.8332 98.284858,6.34095 -31.704791,15.05978 90.358661,8.71882 -18.23026,10.30406 103.8332,6.34095 -21.40074,18.23026 120.47822,0.79262 24.5712,14.26716 3.96311,20.60811 -45.17932,-10.30405 -135.538,6.34095 -79.26198,-15.85239 53.80265,-11.48247 -90.26316,-5.95517 -59.446489,-15.05977 55.483386,-5.54834 -65.787444,-16.64502 z"
         id="path18"
         inkscape:label="cloud 2 dark clipping"
         sodipodi:nodetypes="ccccccccccccccccccc" />
    </clipPath>
    <radialGradient
       inkscape:collect="always"
       xlink:href="#linearGradient5"
       id="radialGradient32"
       cx="516.89587"
       cy="451.72647"
       fx="516.89587"
       fy="451.72647"
       r="532.20953"
       gradientTransform="matrix(1,0,0,0.51245169,0,133.53621)"
       gradientUnits="userSpaceOnUse" />
    <inkscape:path-effect
       effect="fill_between_many"
       method="bsplinespiro"
       autoreverse="false"
       close="false"
       join="false"
       linkedpaths="#path4,0,1"
       id="path-effect7" />
    <inkscape:path-effect
       effect="fill_between_many"
       method="bsplinespiro"
       autoreverse="false"
       close="false"
       join="false"
       linkedpaths="#path11,0,1"
       id="path-effect14" />
    <inkscape:path-effect
       effect="fill_between_many"
       method="bsplinespiro"
       autoreverse="false"
       close="false"
       join="false"
       linkedpaths="#path19,0,1"
       id="path-effect22" />
    <inkscape:path-effect
       effect="fill_between_many"
       method="bsplinespiro"
       autoreverse="false"
       close="false"
       join="false"
       linkedpaths="#path26,0,1"
       id="path-effect29" />
    <inkscape:path-effect
       effect="fill_between_many"
       method="bsplinespiro"
       autoreverse="false"
       close="false"
       join="false"
       linkedpaths="#path30,0,1"
       id="path-effect33" />
  </defs>
  <g
     inkscape:label="Layer 1"
     inkscape:groupmode="layer"
     id="layer1">
    <rect
       style="fill:#2c028e;fill-opacity:1;stroke:#ff01e9;stroke-width:0.079375;stroke-linecap:round;stroke-miterlimit:4.2;paint-order:markers fill stroke"
       id="rect1"
       width="1072.7488"
       height="258.39664"
       x="-10.811578"
       y="542.86145"
       inkscape:label="water"
       inkscape:export-filename="sunset_05_002-clouds.jpg"
       inkscape:export-xdpi="96"
       inkscape:export-ydpi="96" />
    <rect
       style="fill:url(#radialGradient32);fill-opacity:1;stroke:#ff01e9;stroke-width:0.0780645;stroke-linecap:round;stroke-miterlimit:4.2;paint-order:markers fill stroke"
       id="rect2"
       width="1064.3411"
       height="545.38531"
       x="-6.0070872"
       y="1.2006311"
       inkscape:label="sky"
       inkscape:export-filename="sunset_05_002-clouds.jpg"
       inkscape:export-xdpi="96"
       inkscape:export-ydpi="96" />
    <circle
       style="fill:#ffffff;fill-opacity:1;stroke:#ff01e9;stroke-width:0.079375;stroke-linecap:round;stroke-miterlimit:4.2;paint-order:markers fill stroke"
       id="path2"
       cx="516.8421"
       cy="365.19107"
       r="85.291336" />
    <path
       style="fill:#e0d3fd;fill-opacity:1;stroke:#ff01e9;stroke-width:0.079375;stroke-linecap:round;stroke-miterlimit:4.2;paint-order:markers fill stroke"
       d="m 414.4438,619.86379 -61.26559,12.01285 92.49905,13.21416 -73.46567,0.7984 101.25628,9.76212 -108.27681,6.25748 87.12873,17.57475 -40.16885,7.02941 46.26789,14.21386 -120.85736,4.42829 99.70677,13.21416 -75.68104,18.01929 127.937,12.61352 -137.54728,15.01607 156.10687,14.59655 102.6617,-6.91873 -89.00855,-15.00639 130.56156,0.12085 -192.18511,-28.97662 98.56158,-0.11595 -75.67318,-11.85521 155.48193,-9.50626 -155.5666,-13.21413 93.70036,-4.80515 -138.14186,-21.60839 110.78939,-2.6936 -56.73758,-18.96933 63.66816,-3.57885 -118.92735,-15.01609 124.93379,-16.21736 -49.25274,-6.00644 38.44118,-7.2077 -52.85661,-14.41545 -60.06433,6.00643 48.05146,10.81159 -68.47332,4.80513 48.05145,7.20772 z"
       id="path6"
       sodipodi:nodetypes="cccccccccccccccccccccccccccccccccccccc" />
    <circle
       id="path9"
       style="fill:#dbaaff;stroke:#ff01e9;stroke-width:0.264583"
       cx="104.48085"
       cy="197.40384"
       r="0.033943288" />
    <path
       style="fill:#dbaaff;fill-opacity:1;stroke:#ff01e9;stroke-width:0.079375;stroke-linecap:round;stroke-miterlimit:4.2;paint-order:markers fill stroke"
       d="M 84.090049,240.74518 150.76144,229.33296"
       id="path10" />
    <path
       style="fill:#48146d;fill-opacity:1;stroke-width:0.529167;stroke-linecap:square;stroke-miterlimit:4.2;paint-order:markers fill stroke"
       d="m 587.81092,182.4895 2.95173,-12.61277 57.02924,-27.18877 49.27658,7.1664 -28.33929,-19.85806 97.18161,-8.377 35.63689,3.6509 46.0473,12.90764 -33.50359,-35.63192 36.73614,-6.072965 51.21752,-0.561232 80.35992,-15.87068 78.35133,12.101227 -2.4223,34.99974 -93.68535,-3.88521 29.02358,16.90688 -53.13272,-0.27646 4.50017,-8.70355 -41.45094,10.72044 28.93223,7.25647 -72.52646,10.64984 50.60275,0.73332 -68.12918,17.27905 -74.2329,-9.59225 -76.79285,14.49022 z"
       id="path1"
       sodipodi:nodetypes="cccccccccccccccccccccccccc" />
    <path
       style="display:inline;fill:#d59aff;fill-opacity:1;stroke-width:0.529167;stroke-linecap:square;stroke-miterlimit:4.2;paint-order:markers fill stroke"
       d="m 588.43739,182.47483 0.74908,-5.614 74.39151,-4.27332 101.89895,-14.60275 45.75493,6.40378 30.8415,1.77347 -9.256,-7.69476 55.53601,-11.93243 -19.51566,-7.3602 67.42112,-16.69981 15.34851,-3.75882 -1.8923,15.29049 15.17054,-0.97247 -9.14122,-16.532 102.58964,10.64 -1.6647,62.73836 z"
       id="path3"
       clip-path="url(#clipPath7)"
       sodipodi:nodetypes="ccccccccccccccccc" />
    <path
       style="fill:#48146d;fill-opacity:1;stroke-width:0.529167;stroke-linecap:square;stroke-miterlimit:4.2;paint-order:markers fill stroke"
       d="m 22.460418,112.20212 104.826002,11.04505 2.60885,22.51989 45.09956,-6.59798 21.00694,18.3848 87.93633,5.14947 -8.89,26.24516 87.22176,-17.73063 26.09941,11.92242 18.04345,23.18841 4.07245,19.30143 -46.42577,-9.65071 -139.27736,5.93889 -81.44874,-14.84725 57.01413,-14.84727 -94.48055,-1.48472 -61.086553,-14.10489 57.014113,-5.19655 -67.602449,-15.58962 z"
       id="path15"
       inkscape:label="cloud 2 dark"
       sodipodi:nodetypes="cccccccccccccccccccc" />
    <path
       style="fill:#d59aff;fill-opacity:1;stroke-width:0.539396;stroke-linecap:square;stroke-miterlimit:4.2;paint-order:markers fill stroke"
       d="m 33.695865,123.19181 c 2.165482,-0.54137 21.530141,4.67364 21.530141,4.67364 l 12.759747,2.69533 8.46068,3.60702 11.916892,1.13573 15.154725,4.70608 20.12629,3.30485 -9.92859,4.42292 -4.78418,5.63816 -27.279743,1.45628 43.576403,8.8108 31.93346,2.15089 63.6887,1.81571 -14.2628,9.61947 -28.62418,4.45693 47.34147,1.88019 114.29705,-11.62118 56.76259,20.01574 10.20436,45.15969 L 124.5151,214.92389 18.94795,162.411 Z"
       id="path16"
       inkscape:label="cloud 2 light"
       clip-path="url(#clipPath17)"
       sodipodi:nodetypes="cccccccccccccccccccccc"
       transform="matrix(1.027589,0,0,0.93659409,-0.83096941,34.10032)" />
    <path
       style="fill:#5a009a;fill-opacity:1;stroke-width:0.529167;stroke-linecap:square;stroke-miterlimit:4.2;paint-order:markers fill stroke"
       d="m 183.56599,-2.1099539 62.24365,30.5943309 34.81424,2.109954 -25.31945,12.659725 73.8484,12.659723 -45.36403,5.274886 88.61807,7.384839 83.3432,33.759266 L 410.38605,92.837975 290.11866,77.01332 212.05038,65.408572 140.31194,61.188665 26.374424,1.0549766 Z"
       id="path24"
       sodipodi:nodetypes="cccccccccccccc" />
    <path
       style="fill:#48146d;fill-opacity:1;stroke-width:0.529167;stroke-linecap:square;stroke-miterlimit:4.2;paint-order:markers fill stroke"
       d="m 59.466784,-1.699051 152.914586,42.476274 -54.36963,10.194306 74.75824,10.194305 71.36014,28.883867 -124.03072,-8.495255 141.02123,18.689564 54.36963,16.99051 73.05921,6.7962 L 553.8906,144.41933 333.014,129.12788 212.38137,112.13736 265.05196,110.43831 98.544956,88.35065 95.146854,64.563936 -8.4952544,73.059191 -4.1866442,2.154306 Z"
       id="path20"
       sodipodi:nodetypes="cccccccccccccccccc" />
    <path
       style="fill:#48146d;fill-opacity:1;stroke-width:0.529167;stroke-linecap:square;stroke-miterlimit:4.2;paint-order:markers fill stroke"
       d="m 798.40657,2.3209498 -64.98658,23.2094932 61.50517,11.604745 -99.80083,3.481425 -31.3328,19.728071 h 100.96129 l -105.6032,13.925696 -41.7771,16.246644 97.47989,-2.320949 139.25695,-6.962846 -61.50515,-19.728072 68.468,-11.604746 76.59132,-1.160473 -41.77707,-19.728072 80.07276,-6.962847 82.39368,-23.2094936 z"
       id="path21"
       sodipodi:nodetypes="ccccccccccccccccc" />
    <path
       style="fill:#48146d;fill-opacity:1;stroke-width:0.529167;stroke-linecap:square;stroke-miterlimit:4.2;paint-order:markers fill stroke"
       d="m 206.79659,-2.5530443 56.16697,29.3600083 54.89045,-7.659132 -42.12524,21.700876 85.52699,7.659135 -6.3826,11.488697 h 88.08003 l 66.37914,19.147832 -75.31481,-33.189576 49.78437,-7.659132 -26.80697,-15.318265 -63.8261,-7.659133 39.57219,-16.5947881 z"
       id="path22" />
    <path
       style="fill:#48146d;fill-opacity:1;stroke-width:0.529167;stroke-linecap:square;stroke-miterlimit:4.2;paint-order:markers fill stroke"
       d="m 1056.9603,14.041744 -22.9774,8.935655 -79.14434,21.700875 76.59134,-2.553044 -117.44004,19.147832 -10.21218,15.318266 62.54959,-7.659131 67.65563,-3.829566 25.5305,6.38261 z"
       id="path23"
       sodipodi:nodetypes="cccccccccc" />
    <path
       inkscape:original-d="M 0,0"
       inkscape:path-effect="#path-effect33"
       d="m 689.32197,293.6001 c -0.36504,-1.42988 -0.34341,-2.95654 0.062,-4.3755 0.40542,-1.41897 1.19359,-2.72661 2.25894,-3.74781 1.8893,-1.81099 4.48841,-2.62923 6.96285,-3.48144 4.75752,-1.6385 9.39946,-3.60424 13.92571,-5.80237 2.65366,-1.28872 5.28836,-2.66549 8.12332,-3.48141 4.12017,-1.18581 8.4778,-1.16049 12.76522,-1.16049 h 6.96285 5.80237 c 3.86935,0 7.7469,-0.29813 11.60475,0 3.11057,0.24038 6.16831,0.99522 9.28378,1.16049 2.31801,0.12297 4.64159,0 6.96286,0 h 8.12331 18.56762 8.12331 c 2.32158,0 4.64778,0.17358 6.96286,0 1.97022,-0.14773 3.89958,-0.62847 5.80236,-1.16049 3.81341,-1.06625 7.64526,-2.35829 11.60476,-2.32095 1.93855,0.0183 3.89666,0.35584 5.80236,0 2.05303,-0.38335 3.86653,-1.53711 5.80237,-2.32095 2.26913,-0.91879 4.72285,-1.33326 6.96285,-2.32096 1.76052,-0.77628 3.34843,-1.88868 5.02261,-2.83691 1.67419,-0.94823 3.49842,-1.74848 5.42166,-1.80497 0.38668,-0.0114 0.77364,0 1.16049,0 h 1.16046 c 0.3877,0 0.77523,-0.014 1.16226,-0.0367 0.38703,-0.0227 0.78008,-0.0467 1.15869,0.0367 0.4242,0.0935 0.8053,0.32081 1.17244,0.55297 0.36714,0.23216 0.73468,0.4755 1.14852,0.6075 0.74334,0.23709 1.54606,0.0912 2.32095,0 2.91815,-0.34345 5.86926,0.12611 8.74391,0.73433 2.87465,0.60822 5.73378,1.35866 8.66321,1.58662 5.80565,0.45178 11.58392,-1.16557 17.40712,-1.16048 2.32294,0.002 4.65476,0.26217 6.96286,0 0.97453,-0.1107 1.93811,-0.31403 2.91613,-0.38778 0.97803,-0.0738 1.99016,-0.011 2.88623,0.38778 0.90806,0.40413 1.64332,1.13249 2.19515,1.95916 0.55183,0.82666 0.93456,1.75312 1.28627,2.68274 0.43299,1.14444 0.82474,2.30479 1.16049,3.48144 0.33617,1.17811 0.61974,2.38206 1.16046,3.48141 0.85079,1.72976 2.28631,3.09685 3.77397,4.32273 1.48766,1.22588 3.06791,2.36051 4.34934,3.80059 0.36466,0.4098 0.70949,0.84822 1.16049,1.16049 0.66074,0.4575 1.49922,0.60245 2.30105,0.54811 0.80182,-0.0543 1.57864,-0.29336 2.34086,-0.54811 4.77107,-1.59458 9.28497,-3.86084 13.92568,-5.8024 0.6537,-0.27349 1.31278,-0.54194 1.92213,-0.90362 0.60935,-0.36168 1.17227,-0.82376 1.55931,-1.41733 0.15511,-0.23788 0.28125,-0.49547 0.45852,-0.71734 0.0886,-0.11093 0.19017,-0.21264 0.30807,-0.29177 0.1179,-0.0791 0.2528,-0.13521 0.39387,-0.15135 0.24459,-0.028 0.49426,0.0681 0.67909,0.23077 0.18482,0.16263 0.3086,0.38659 0.38017,0.62214 0.14314,0.47111 0.0862,0.9759 0.10123,1.46804 0.0266,0.87313 0.28682,1.73244 0.70706,2.49825 0.42024,0.7658 0.99762,1.43988 1.65863,2.01096 1.32201,1.14215 2.95294,1.86303 4.59714,2.45365 2.65133,0.95239 5.39807,1.60717 8.12334,2.32095 1.91126,0.50058 3.83071,1.03375 5.80237,1.16046 1.54455,0.0993 3.09508,-0.053 4.6419,0 4.58317,0.1572 8.939,2.11403 12.76522,4.6419 3.31552,2.19047 6.32592,4.82397 9.69202,6.93593 3.3661,2.11195 7.2281,3.7139 11.1965,3.50834 0.6601,-0.0342 1.3288,-0.11759 1.9771,0.0115 0.3241,0.0646 0.6406,0.18364 0.9095,0.37573 0.269,0.1921 0.4886,0.46026 0.5949,0.77321 0.126,0.37107 0.088,0.77849 0,1.16046 -0.3209,1.39876 -1.2854,2.60307 -2.4943,3.37636 -1.209,0.77329 -2.6453,1.14122 -4.0776,1.23002 -2.8647,0.17762 -5.6743,-0.70988 -8.5143,-1.12496 -3.0706,-0.44877 -6.1998,-0.34437 -9.28382,0 -3.09994,0.34614 -6.1729,0.9332 -9.28381,1.16049 -4.24518,0.31016 -8.50905,-0.053 -12.76522,0 -2.70906,0.0337 -5.42433,0.23582 -8.12331,0 -2.72569,-0.23816 -5.39782,-0.92019 -8.12332,-1.16049 -2.31365,-0.20399 -4.64188,-0.0877 -6.96285,0 -2.32032,0.0877 -4.64552,0.14663 -6.96286,0 -3.49652,-0.22124 -6.94981,-0.90877 -10.44427,-1.16047 -2.70241,-0.19465 -5.41691,-0.12771 -8.12331,0 -2.70813,0.12779 -5.43067,0.31589 -8.12335,0 -2.33771,-0.27425 -4.62086,-0.92529 -6.96282,-1.16048 -2.00044,-0.20089 -4.02199,-0.096 -6.02289,-0.2924 -2.00089,-0.19634 -4.04523,-0.73204 -5.58187,-2.02853 -0.34427,-0.29047 -0.66096,-0.61729 -1.0399,-0.86081 -0.18947,-0.12176 -0.39437,-0.222 -0.6122,-0.27923 -0.21783,-0.0572 -0.44924,-0.0704 -0.66885,-0.0205 -0.20371,0.0463 -0.39334,0.14538 -0.59891,0.18254 -0.10279,0.0186 -0.20997,0.0211 -0.31066,-0.007 -0.10069,-0.0278 -0.19457,-0.0879 -0.2509,-0.17587 -0.0538,-0.0839 -0.0703,-0.18747 -0.0645,-0.287 0.006,-0.0995 0.0324,-0.19651 0.0593,-0.29251 0.0269,-0.096 0.0544,-0.19265 0.062,-0.29205 0.008,-0.0994 -0.006,-0.20307 -0.0568,-0.2889 -0.0538,-0.091 -0.1462,-0.15553 -0.24701,-0.18719 -0.10081,-0.0317 -0.20948,-0.0323 -0.31371,-0.015 -0.20848,0.0346 -0.39849,0.13779 -0.59976,0.2022 -0.37353,0.11954 -0.78183,0.10223 -1.16047,0 -0.83722,-0.22604 -1.51601,-0.83784 -2.32095,-1.16049 -0.72655,-0.29123 -1.53016,-0.33574 -2.31105,-0.28191 -0.78089,0.0538 -1.55222,0.20182 -2.33085,0.28191 -2.74183,0.28202 -5.50967,-0.28525 -8.12332,-1.16046 -2.3217,-0.77745 -4.5702,-1.80139 -6.96285,-2.32095 -0.73466,-0.15953 -1.4919,-0.27469 -2.16315,-0.61322 -0.33562,-0.16926 -0.64654,-0.39496 -0.88532,-0.68527 -0.23878,-0.2903 -0.40273,-0.6478 -0.43295,-1.02247 -0.0312,-0.38659 0.078,-0.78056 0,-1.16048 -0.0445,-0.21663 -0.1482,-0.41722 -0.27252,-0.60011 -0.12431,-0.1829 -0.26963,-0.35036 -0.40763,-0.52316 -0.138,-0.1728 -0.26987,-0.35283 -0.3627,-0.55354 -0.0928,-0.20072 -0.14524,-0.42474 -0.11764,-0.64415 0.0257,-0.20453 0.11877,-0.39476 0.15811,-0.59711 0.0197,-0.10117 0.0256,-0.20648 0.003,-0.30694 -0.0231,-0.10045 -0.0772,-0.19598 -0.16065,-0.25641 -0.0798,-0.0578 -0.18064,-0.0802 -0.27913,-0.0827 -0.0985,-0.002 -0.19647,0.0132 -0.29363,0.0296 -0.19432,0.0327 -0.39065,0.0531 -0.5877,0.0531 h -2.32095 -10.44427 c -4.66711,0 -9.34966,0.24306 -13.92571,1.16046 -3.4543,0.69251 -6.96012,1.68249 -10.44426,1.16049 -0.19344,-0.029 -0.38668,-0.0626 -0.58204,-0.0722 -0.19537,-0.01 -0.39448,0.006 -0.57845,0.0722 -0.30339,0.10955 -0.54609,0.35358 -0.69977,0.63718 -0.15367,0.28361 -0.22513,0.60514 -0.25887,0.92593 -0.0675,0.64158 0.007,1.30779 -0.20183,1.91831 -0.17983,0.52669 -0.55707,0.96523 -0.98023,1.32672 -0.42316,0.3615 -0.89719,0.65804 -1.34072,0.99423 -0.87394,0.66245 -1.6237,1.47451 -2.32095,2.32095 -1.05042,1.27518 -2.03775,2.67813 -3.48141,3.48144 -0.86822,0.48311 -1.85349,0.71807 -2.8377,0.85418 -0.98422,0.1361 -1.97933,0.1787 -2.96469,0.30628 -2.7983,0.3623 -5.45648,1.39916 -8.12332,2.32095 -1.51121,0.52235 -3.04974,1.0133 -4.6419,1.16047 -1.54155,0.14249 -3.09433,-0.0409 -4.64191,0 -1.16231,0.0308 -2.33391,0.18753 -3.48141,0 -0.78997,-0.1291 -1.54328,-0.41778 -2.30144,-0.67453 -0.75816,-0.25674 -1.54001,-0.48505 -2.34046,-0.48594 -0.38878,-4.3e-4 -0.77538,0.0529 -1.16324,0.0797 -0.38786,0.0267 -0.78358,0.0261 -1.15771,-0.0797 -0.41815,-0.11816 -0.7881,-0.36095 -1.15379,-0.59563 -0.36569,-0.23469 -0.74347,-0.46847 -1.16717,-0.56485 -0.37809,-0.086 -0.77153,-0.0613 -1.15858,-0.0379 -0.38704,0.0234 -0.77462,0.0379 -1.16237,0.0379 h -3.48141 -6.96286 c -1.16051,0 -2.32127,-0.0292 -3.48141,0 -3.50337,0.088 -6.95083,0.88258 -10.44427,1.16048 -0.38644,0.0307 -0.77675,0.055 -1.16049,0 -0.60916,-0.0874 -1.1702,-0.36917 -1.72701,-0.63122 -0.55681,-0.26206 -1.13924,-0.51237 -1.7544,-0.52926 -0.39145,-0.0107 -0.77837,0.0739 -1.1674,0.11868 -0.38902,0.0448 -0.79853,0.0466 -1.15355,-0.11868 -0.25406,-0.11827 -0.46438,-0.31562 -0.63815,-0.53549 -0.17377,-0.21986 -0.31445,-0.46352 -0.46167,-0.70197 -0.14722,-0.23846 -0.30308,-0.47444 -0.50175,-0.67208 -0.19868,-0.19765 -0.44458,-0.35644 -0.71938,-0.41139 -0.19001,-0.038 -0.386,-0.027 -0.5795,-0.0167 -0.19349,0.0103 -0.3872,0.0167 -0.58097,0.0167 h -2.32095 c -1.16089,0 -2.32484,-0.0997 -3.48144,0 -1.59173,0.13719 -3.0929,0.7693 -4.6419,1.16046 -2.28258,0.57641 -4.66945,0.62867 -6.96283,1.16047 -1.55991,0.36172 -3.05926,0.9412 -4.58365,1.43152 -1.52438,0.49032 -3.09886,0.89524 -4.70015,0.88943 -0.38696,-0.001 -0.77446,-0.0268 -1.16049,0 -0.7985,0.0555 -1.56276,0.33163 -2.31717,0.59911 -0.75442,0.26748 -1.52484,0.53161 -2.32471,0.56138 -0.38669,0.0144 -0.77444,-0.0265 -1.16049,0 -0.19442,0.0133 -0.38742,0.0437 -0.58194,0.0555 -0.19452,0.0118 -0.39312,0.005 -0.57852,-0.0555 -0.26509,-0.0858 -0.48605,-0.27417 -0.66665,-0.48636 -0.18061,-0.21219 -0.32729,-0.45074 -0.49384,-0.67413 -0.3279,-0.43979 -0.73138,-0.81867 -1.16046,-1.16047 -0.49053,-0.39075 -1.02826,-0.73298 -1.62344,-0.93064 -0.59518,-0.19766 -1.23086,-0.22984 -1.858,-0.22984 h -1.16047 c -0.38798,0 -0.77574,-0.0161 -1.16284,-0.0423 -0.3871,-0.0262 -0.78218,-0.0537 -1.15811,0.0423 -0.42226,0.10778 -0.7866,0.3674 -1.14701,0.61239 -0.36041,0.24499 -0.74256,0.48619 -1.17394,0.54809 -0.38327,0.055 -0.77326,0 -1.16046,0 h -1.16049 c -0.19458,0 -0.38892,0.0115 -0.58261,0.03 -0.19369,0.0185 -0.39537,0.0375 -0.57785,-0.03 -0.11763,-0.0435 -0.22136,-0.1238 -0.29303,-0.22673 -0.0717,-0.10294 -0.11094,-0.22808 -0.11094,-0.35351 0,-0.12543 0.0393,-0.25057 0.11094,-0.35351 0.0717,-0.10293 0.1754,-0.1832 0.29303,-0.22673 -0.38683,-0.77364 -0.77366,-1.54729 -1.16049,-2.32093 -1.54732,-3.09459 -3.09462,-6.1892 -4.6419,-9.28381 z"
       id="path33"
       style="fill:#5a009a" />
    <path
       style="fill:#5a009a;fill-rule:nonzero;stroke:none;stroke-width:0.529167;stroke-linecap:square;stroke-miterlimit:4.2;paint-order:markers fill stroke"
       d="m 689.32197,293.6001 c -0.35934,-1.5914 -0.27063,-3.28148 0.25335,-4.82652 0.52398,-1.54504 1.48166,-2.94042 2.73494,-3.98492 2.13948,-1.78309 4.95612,-2.45796 7.59046,-3.36187 6.146,-2.10884 11.71836,-5.6915 17.91546,-7.6451 4.28277,-1.35011 8.77627,-1.89333 13.25277,-2.24805 7.92406,-0.62792 15.89705,-0.68499 23.82236,-0.0731 5.15182,0.39777 10.28234,1.07764 15.44396,1.31664 7.70021,0.35655 15.4156,-0.27033 23.12134,-0.0656 6.88117,0.1828 13.80101,1.02645 20.62042,0.0886 3.58679,-0.49326 7.09119,-1.47383 10.67158,-2.01155 4.02252,-0.60411 8.12323,-0.64659 12.11312,-1.43801 3.25234,-0.64513 6.38529,-1.77902 9.48529,-2.95541 3.62941,-1.37729 7.23626,-2.81951 10.76364,-4.44035 1.84033,-0.84564 3.69396,-1.75071 5.69796,-2.04372 1.44843,-0.21178 2.92677,-0.0946 4.37222,0.13666 1.8403,0.29439 3.64554,0.77153 5.45374,1.22295 1.58521,0.39575 3.17612,0.77245 4.78349,1.06548 1.58768,0.28945 3.18921,0.49686 4.79265,0.67982 4.61195,0.52626 9.2655,0.8513 13.89571,0.52242 3.42636,-0.24338 6.81612,-0.84299 10.22432,-1.27122 3.51788,-0.44201 7.10007,-0.70005 10.59787,-0.1202 0.91988,0.15249 1.83541,0.36417 2.69453,0.72658 0.85911,0.36242 1.66325,0.88166 2.27572,1.58472 0.99346,1.14042 1.41128,2.66662 1.67076,4.15664 0.25947,1.49003 0.3952,3.01948 0.94575,4.42817 0.52946,1.35474 1.42205,2.53903 2.40845,3.60799 0.9864,1.06895 2.07464,2.03929 3.07928,3.09112 0.58201,0.60934 1.13629,1.24636 1.75226,1.82135 0.61597,0.57499 1.30081,1.09096 2.07921,1.41366 0.88349,0.36626 1.8579,0.47047 2.8136,0.43391 0.95571,-0.0366 1.90032,-0.20915 2.84161,-0.37849 1.73665,-0.31241 3.48055,-0.61656 5.16577,-1.13959 1.68523,-0.52304 3.32097,-1.27512 4.67975,-2.40085 1.11749,-0.92582 2.02361,-2.08265 3.12109,-3.03211 0.54874,-0.47472 1.14825,-0.89844 1.81193,-1.19172 0.66368,-0.29328 1.39538,-0.45257 2.11828,-0.3901 0.67759,0.0586 1.33376,0.3122 1.89056,0.70275 0.83036,0.58242 1.42243,1.44296 1.9231,2.32503 0.50067,0.88206 0.93123,1.80871 1.52966,2.6276 1.11236,1.52212 2.75819,2.59488 4.51635,3.27536 1.75817,0.68048 3.63545,0.99416 5.5068,1.22277 3.54725,0.43334 7.1563,0.58121 10.59152,1.56609 1.9875,0.56982 3.88454,1.41139 5.82346,2.12936 1.93891,0.71797 3.95272,1.31834 6.01956,1.37338 2.67822,0.0713 5.2847,-0.77195 7.84868,-1.54905 2.564,-0.77711 5.2272,-1.50439 7.8884,-1.19464 1.3306,0.15488 2.6429,0.57717 3.7522,1.32813 1.1092,0.75096 2.0059,1.84275 2.4192,3.11696 0.4134,1.27421 0.3152,2.72819 -0.3632,3.88327 -0.3392,0.57754 -0.8172,1.07495 -1.3887,1.42436 -0.5714,0.34941 -1.2358,0.54875 -1.9056,0.55692 -0.4744,0.006 -0.9598,-0.0812 -1.4169,0.0458 -0.4948,0.13751 -0.9041,0.5275 -1.1004,1.00203 -0.1963,0.47453 -0.1867,1.02313 -0.01,1.50527 0.1767,0.48215 0.5134,0.89814 0.9254,1.2046 0.4121,0.30645 0.8972,0.50672 1.398,0.62047 1.0016,0.22748 2.0454,0.11492 3.0654,-0.006 1.0199,-0.12044 2.06,-0.24706 3.0672,-0.0463 0.5941,0.11839 1.1673,0.3516 1.6631,0.69957 0.4958,0.34797 0.9128,0.81183 1.1873,1.35183 0.3918,0.77076 0.4807,1.6822 0.2909,2.52572 -0.1898,0.84351 -0.65,1.61719 -1.2681,2.22178 -0.618,0.60459 -1.3895,1.04309 -2.2114,1.31157 -0.8219,0.26848 -1.6934,0.37008 -2.5577,0.34725 -1.7286,-0.0457 -3.4059,-0.57953 -5.0235,-1.1908 -1.6175,-0.61126 -3.212,-1.30756 -4.8956,-1.70229 -3.981,-0.93342 -8.13051,-0.12279 -12.18874,0.37765 -3.97437,0.4901 -7.97925,0.67864 -11.98056,0.83742 -4.22559,0.16769 -8.46201,0.30246 -12.67974,-0.005 -4.40925,-0.32143 -8.77783,-1.12487 -13.19465,-1.31579 -3.95173,-0.17081 -7.91183,0.15019 -11.86426,-0.003 -4.6897,-0.1822 -9.33794,-1.03124 -14.02997,-1.13775 -3.96695,-0.0901 -7.94333,0.35141 -11.89878,0.0364 -3.52207,-0.28052 -6.96823,-1.1563 -10.46829,-1.63927 -1.72574,-0.23813 -3.46822,-0.38135 -5.16882,-0.75934 -1.70059,-0.37799 -3.38002,-1.00786 -4.72925,-2.10988 -0.46854,-0.38269 -0.89436,-0.8197 -1.39555,-1.15851 -1.18543,-0.80136 -2.67417,-0.98149 -4.10201,-1.0748 -2.0881,-0.13647 -4.18406,-0.1359 -6.26987,-0.30375 -3.78447,-0.30453 -7.50026,-1.16005 -11.19849,-2.01916 -1.14496,-0.26598 -2.29976,-0.53595 -3.36304,-1.03705 -1.06329,-0.5011 -2.0422,-1.25802 -2.6016,-2.29182 -0.55454,-1.02482 -0.66673,-2.25434 -1.28592,-3.24144 -0.43545,-0.69419 -1.08946,-1.21683 -1.70838,-1.75391 -2.26024,-1.96137 -4.19086,-4.27368 -6.39746,-6.29521 -2.2066,-2.02152 -4.78718,-3.78904 -7.7321,-4.32111 -1.47246,-0.26603 -3.01518,-0.20883 -4.43367,0.26739 -1.4185,0.47622 -2.7055,1.38397 -3.5464,2.62163 -0.84091,1.23765 -1.21138,2.80814 -0.91298,4.27439 0.1492,0.73312 0.4613,1.43412 0.91695,2.0275 0.45566,0.59339 1.05512,1.07752 1.73672,1.386 0.40548,0.18352 0.83652,0.30464 1.24603,0.47899 1.33708,0.56925 2.40429,1.71733 2.9274,3.07313 0.52311,1.3558 0.5091,2.90066 0.0149,4.26728 -0.49417,1.36661 -1.45547,2.55013 -2.66017,3.36285 -1.20471,0.81272 -2.64418,1.25871 -4.09572,1.32846 -1.45154,0.0697 -2.91266,-0.23077 -4.24392,-0.81349 -1.33127,-0.58273 -2.53388,-1.44354 -3.55843,-2.47414 -2.04909,-2.06121 -3.36065,-4.76081 -4.17934,-7.54956 -0.0359,-0.12232 -0.0712,-0.24558 -0.12649,-0.36045 -0.0553,-0.11487 -0.13226,-0.22212 -0.23718,-0.29454 -0.0525,-0.0362 -0.11152,-0.0633 -0.17383,-0.0767 -0.0623,-0.0134 -0.1279,-0.013 -0.18935,0.004 -0.0615,0.0169 -0.11859,0.0506 -0.16122,0.098 -0.0426,0.0474 -0.0703,0.1086 -0.075,0.17217 -0.005,0.0721 0.0187,0.14459 0.0587,0.20487 0.04,0.0603 0.0952,0.1092 0.15499,0.14999 0.11951,0.0816 0.25833,0.13279 0.37351,0.22036 0.16454,0.1251 0.27023,0.3207 0.29858,0.52544 0.0284,0.20474 -0.018,0.41683 -0.11668,0.59842 -0.0987,0.18159 -0.24808,0.33329 -0.42043,0.44738 -0.17235,0.1141 -0.36728,0.19156 -0.56784,0.24154 -0.40112,0.1 -0.82,0.0913 -1.23338,0.0936 -0.41338,0.002 -0.83544,0.0181 -1.2227,0.16271 -0.34106,0.12736 -0.64149,0.35136 -0.88474,0.62222 -0.24325,0.27086 -0.43128,0.58779 -0.58166,0.91934 -0.30075,0.6631 -0.45319,1.3826 -0.69678,2.06876 -0.88528,2.49373 -2.96436,4.44211 -5.34594,5.59559 -2.51865,1.21988 -5.33874,1.62585 -8.04856,2.32485 -3.83791,0.98999 -7.52687,2.59113 -11.44718,3.17496 -2.42472,0.3611 -4.8942,0.32467 -7.33657,0.11374 -2.51422,-0.21713 -5.01157,-0.61819 -7.47365,-1.17191 -1.77226,-0.39858 -3.52706,-0.87629 -5.31044,-1.22176 -4.41068,-0.85442 -8.98373,-0.88652 -13.3973,-0.0471 -1.7448,0.33183 -3.46501,0.79837 -5.2248,1.03835 -0.99631,0.13586 -2.00301,0.19853 -3.0083,0.1766 -1.70981,-0.0373 -3.4045,-0.31837 -5.11026,-0.44166 -1.58943,-0.11488 -3.25046,-0.10781 -4.67292,-0.82621 -1.18688,-0.59943 -2.09996,-1.65693 -3.30409,-2.2209 -0.93855,-0.43959 -2.00357,-0.55162 -3.03786,-0.48553 -1.03429,0.0661 -2.04909,0.30242 -3.05967,0.5323 -2.38858,0.54333 -4.78422,1.05522 -7.17355,1.59526 -3.88785,0.87875 -7.75972,1.8322 -11.66962,2.60697 -1.8375,0.36411 -3.68268,0.6886 -5.52023,1.05249 -0.82722,0.16381 -1.65677,0.3361 -2.49902,0.37759 -0.84226,0.0415 -1.70582,-0.0535 -2.47297,-0.40364 -0.73738,-0.33657 -1.35057,-0.89029 -1.9434,-1.44307 -0.59284,-0.55277 -1.18855,-1.12076 -1.9071,-1.49586 -0.69038,-0.36038 -1.47435,-0.52797 -2.25313,-0.52516 -0.77877,0.003 -1.55244,0.17279 -2.27801,0.45571 -0.7142,0.27849 -1.38259,0.66453 -2.09655,0.94362 -0.71395,0.27908 -1.50216,0.44917 -2.24767,0.27073 -0.69009,-0.16517 -1.28446,-0.61779 -1.74163,-1.16048 -0.32396,-0.38455 -0.58772,-0.8158 -0.83457,-1.25386 -1.13651,-2.01678 -1.93554,-4.20232 -2.89108,-6.31087 -0.62525,-1.37973 -1.31862,-2.72858 -2.07674,-4.04001 z"
       id="path30"
       inkscape:path-effect="#path-effect30;#path-effect31;#path-effect32"
       inkscape:original-d="m 689.32197,293.6001 c 0.77366,-2.70777 0.56173,-5.92431 2.32095,-8.12331 1.62102,-2.02629 4.5916,-2.42755 6.96285,-3.48144 4.59531,-2.04235 9.29106,-3.85093 13.92571,-5.80237 2.7151,-1.14321 5.30762,-2.61506 8.12332,-3.48141 4.80494,-1.47847 7.95189,-1.16049 12.76522,-1.16049 2.32095,0 4.6419,0 6.96285,0 1.93413,0 3.86824,0 5.80237,0 3.86826,0 7.74245,-0.21458 11.60475,0 3.11388,0.17298 6.17302,0.93829 9.28378,1.16049 2.31505,0.16534 4.64191,0 6.96286,0 2.70777,0 5.41554,0 8.12331,0 6.18922,0 12.3784,0 18.56762,0 2.70777,0 5.41554,0 8.12331,0 2.32095,0 4.65143,0.2101 6.96286,0 1.96432,-0.1786 3.87691,-0.73261 5.80236,-1.16049 5.05132,-1.12252 5.83232,-1.79618 11.60476,-2.32095 1.92617,-0.1751 3.9058,0.3793 5.80236,0 2.04267,-0.40852 3.84469,-1.60907 5.80237,-2.32095 2.2992,-0.83606 4.70456,-1.37999 6.96285,-2.32096 5.78176,-2.40905 5.57366,-3.42423 10.44427,-4.64188 0.37529,-0.0938 0.77367,0 1.16049,0 0.38682,0 0.77364,0 1.16046,0 0.77364,0 1.57041,-0.18764 2.32095,0 0.83916,0.20978 1.4818,0.95069 2.32096,1.16047 0.75054,0.18764 1.55508,-0.10941 2.32095,0 12.77921,1.8256 -2.39789,1.15595 17.40712,2.32095 10.43969,0.6141 6.36053,-0.37143 17.40712,-1.16048 2.31505,-0.16536 4.64191,0 6.96286,0 1.9341,0 3.88768,-0.27352 5.80236,0 2.98818,0.42689 2.65113,2.15101 3.48142,4.6419 0.38682,1.16049 0.77366,2.32095 1.16049,3.48144 0.38682,1.16046 0.55356,2.41935 1.16046,3.48141 2.93174,5.13051 3.64429,4.54009 8.12331,8.12332 0.4272,0.34173 0.62405,1.0532 1.16049,1.16049 1.51726,0.30345 3.11955,0.27678 4.64191,0 7.30054,-1.32739 8.10455,-2.16416 13.92568,-5.8024 1.18271,-0.73919 2.36566,-1.4841 3.48144,-2.32095 0.43762,-0.32821 0.67117,-1.40512 1.16046,-1.16046 0.77364,0.38682 0.68069,1.60126 1.16049,2.32095 2.42194,3.63294 3.23956,5.10122 6.96283,6.96286 1.55077,0.77536 6.78479,2.02348 8.12334,2.32095 1.92545,0.42786 3.84199,0.94266 5.80237,1.16046 1.53783,0.17087 3.10655,-0.19193 4.6419,0 4.46513,0.55814 8.78147,2.96452 12.76522,4.6419 33.63932,14.16392 0.23468,-1.0301 20.88852,10.44427 1.0693,0.59407 2.4636,0.48194 3.4815,1.16049 0.3218,0.21455 0.3459,0.98748 0,1.16046 -4.2234,2.11167 -10.5051,3.17601 -15.0862,3.48142 -3.0878,0.20587 -6.19526,-0.19302 -9.28382,0 -3.11261,0.19454 -6.16942,0.99658 -9.28381,1.16049 -4.24918,0.22362 -8.51013,0 -12.76522,0 -2.70777,0 -5.42242,0.1929 -8.12331,0 -2.72833,-0.1949 -5.39613,-0.95071 -8.12332,-1.16049 -2.31413,-0.17799 -4.6419,0 -6.96285,0 -2.32096,0 -4.64704,0.15441 -6.96286,0 -3.49509,-0.233 -6.94825,-0.94197 -10.44427,-1.16047 -2.7025,-0.16891 -5.41554,0 -8.12331,0 -2.70778,0 -5.42354,0.20768 -8.12335,0 -2.34603,-0.18047 -4.63724,-0.80269 -6.96282,-1.16048 -6.07116,-0.93401 -6.98776,-0.47414 -11.60476,-2.32093 -0.80309,-0.32126 -1.50037,-0.88696 -2.32095,-1.16049 -0.36698,-0.12232 -0.88694,0.27353 -1.16047,0 -0.27352,-0.27353 0.27353,-0.88694 0,-1.16046 -0.27352,-0.27353 -0.77366,0 -1.16048,0 -0.38683,0 -0.79349,0.12232 -1.16047,0 -0.82058,-0.27353 -1.46775,-1.01828 -2.32095,-1.16049 -1.52625,-0.25437 -3.10097,0.1401 -4.6419,0 -2.72405,-0.24762 -5.43219,-0.67117 -8.12332,-1.16046 -2.93499,-0.53364 -4.59615,-0.90094 -6.96285,-2.32095 -1.19597,-0.71758 -2.49521,-1.33475 -3.48142,-2.32096 -0.27352,-0.27352 0.12232,-0.79351 0,-1.16048 -0.27352,-0.82058 -0.88696,-1.50035 -1.16049,-2.32096 -0.12231,-0.36695 0.27353,-0.88693 0,-1.16046 -0.27352,-0.27352 -0.77364,0 -1.16046,0 -0.77367,0 -1.54731,0 -2.32095,0 -3.48144,0 -6.96285,0 -10.44427,0 -19.96321,0 6.12077,-0.38155 -13.92571,1.16046 -21.33565,1.64121 -1.7572,-1.73521 -10.44426,1.16049 -0.36698,0.12232 -0.94592,-0.32186 -1.16049,0 -0.67853,1.0178 -0.5311,2.4325 -1.16047,3.48142 -0.56292,0.93818 -1.54731,1.54731 -2.32095,2.32095 -0.77364,0.77367 -1.54731,1.54731 -2.32095,2.32095 -1.16046,1.16049 -2.01353,2.74749 -3.48141,3.48144 -1.76419,0.88209 -3.88885,0.68207 -5.80239,1.16046 -2.73204,0.68302 -5.40642,1.57999 -8.12332,2.32095 -1.53871,0.41966 -3.0593,0.96266 -4.6419,1.16047 -1.53535,0.19193 -3.0946,0 -4.64191,0 -1.16046,0 -2.33259,0.16412 -3.48141,0 -1.5789,-0.22556 -3.06869,-0.89826 -4.6419,-1.16047 -0.76311,-0.12718 -1.57038,0.18765 -2.32095,0 -0.83913,-0.20978 -1.4818,-0.9507 -2.32096,-1.16048 -0.75054,-0.18762 -1.54728,0 -2.32095,0 -1.16046,0 -2.32092,0 -3.48141,0 -2.32095,0 -4.6419,0 -6.96286,0 -1.16046,0 -2.33259,-0.1641 -3.48141,0 -11.40698,1.62956 2.88144,1.16048 -10.44427,1.16048 -0.38682,0 -0.7852,0.0938 -1.16049,0 -1.18671,-0.29667 -2.28192,-0.92056 -3.48141,-1.16048 -0.75864,-0.15172 -1.62899,0.34599 -2.32095,0 -0.97859,-0.4893 -1.4106,-1.71403 -2.32095,-2.32093 -0.32187,-0.21458 -0.77365,0 -1.16047,0 -0.77366,0 -1.54731,0 -2.32095,0 -1.16049,0 -2.33262,-0.16412 -3.48144,0 -1.57887,0.22556 -3.07795,0.84767 -4.6419,1.16046 -2.30727,0.46146 -4.65556,0.69903 -6.96283,1.16047 -3.1279,0.62558 -6.1559,1.69537 -9.2838,2.32095 -0.37931,0.0759 -0.78116,-0.0759 -1.16049,0 -1.56393,0.31279 -3.07795,0.8477 -4.64188,1.16049 -0.37933,0.0759 -0.77367,0 -1.16049,0 -0.38682,0 -0.81449,0.17298 -1.16046,0 -0.4893,-0.24466 -0.77367,-0.77365 -1.16049,-1.16049 -0.38682,-0.38682 -0.7053,-0.85702 -1.16046,-1.16047 -2.0002,-1.33347 -1.75416,-1.16048 -3.48144,-1.16048 -0.38682,0 -0.77364,0 -1.16047,0 -0.77364,0 -1.5704,-0.18762 -2.32095,0 -0.83915,0.20978 -1.50037,0.88696 -2.32095,1.16048 -0.36698,0.12232 -0.77364,0 -1.16046,0 -0.38685,0 -0.77367,0 -1.16049,0 -0.38682,0 -0.88694,0.27353 -1.16046,0 -0.27353,-0.27352 0.17298,-0.81449 0,-1.16048 -3.36585,-3.36585 0.20553,0.7526 -1.16049,-2.32093 -1.40518,-3.16166 -3.09459,-6.18921 -4.6419,-9.28381 z"
       inkscape:linked-fill="path33" />
  </g>
</svg>
