<?xml version="1.0" encoding="UTF-8" standalone="no"?>
<!-- Created with Inkscape (http://www.inkscape.org/) -->

<svg
   width="1920"
   height="1080"
   viewBox="0 0 508 285.75"
   version="1.1"
   id="svg1"
   inkscape:version="1.4.3 (0d15f75, 2025-12-25)"
   xml:space="preserve"
   sodipodi:docname="sunset_06_002.svg"
   xmlns:inkscape="http://www.inkscape.org/namespaces/inkscape"
   xmlns:sodipodi="http://sodipodi.sourceforge.net/DTD/sodipodi-0.dtd"
   xmlns:xlink="http://www.w3.org/1999/xlink"
   xmlns="http://www.w3.org/2000/svg"
   xmlns:svg="http://www.w3.org/2000/svg"><sodipodi:namedview
     id="namedview1"
     pagecolor="#ffffff"
     bordercolor="#000000"
     borderopacity="0.25"
     inkscape:showpageshadow="2"
     inkscape:pageopacity="0.0"
     inkscape:pagecheckerboard="0"
     inkscape:deskcolor="#d1d1d1"
     inkscape:document-units="px"
     inkscape:zoom="0.6623585"
     inkscape:cx="672.59649"
     inkscape:cy="-672.59649"
     inkscape:window-width="1920"
     inkscape:window-height="1016"
     inkscape:window-x="0"
     inkscape:window-y="0"
     inkscape:window-maximized="1"
     inkscape:current-layer="layer1" /><defs
     id="defs1"><linearGradient
       id="linearGradient8"
       inkscape:collect="always"><stop
         style="stop-color:#fddc7b;stop-opacity:1;"
         offset="0.71362019"
         id="stop11" /><stop
         style="stop-color:#fddc7b;stop-opacity:0;"
         offset="1"
         id="stop12" /></linearGradient><linearGradient
       id="linearGradient4"
       inkscape:collect="always"><stop
         style="stop-color:#ffffff;stop-opacity:0.8037402;"
         offset="0"
         id="stop4" /><stop
         style="stop-color:#ffffff;stop-opacity:0.40392157;"
         offset="0.2626459"
         id="stop13" /><stop
         style="stop-color:#ffffff;stop-opacity:0;"
         offset="0.52871925"
         id="stop5" /></linearGradient><linearGradient
       id="linearGradient5"><stop
         style="stop-color:#fdd57d;stop-opacity:1;"
         offset="0"
         id="stop8" /><stop
         style="stop-color:#ffd16e;stop-opacity:1;"
         offset="0.2755909"
         id="stop1" /><stop
         style="stop-color:#c67281;stop-opacity:1;"
         offset="0.54682356"
         id="stop9" /><stop
         style="stop-color:#2a4687;stop-opacity:0.0027248;"
         offset="1"
         id="stop10" /></linearGradient><radialGradient
       inkscape:collect="always"
       xlink:href="#linearGradient5"
       id="radialGradient2"
       cx="255.03188"
       cy="120.64713"
       fx="255.03188"
       fy="120.64713"
       r="254"
       gradientTransform="matrix(1.6569456,0,0,0.60926581,-166.58999,54.723271)"
       gradientUnits="userSpaceOnUse" /><radialGradient
       inkscape:collect="always"
       xlink:href="#linearGradient4"
       id="radialGradient5"
       cx="255.0211"
       cy="114.99715"
       fx="255.0211"
       fy="114.99715"
       r="23.209774"
       gradientUnits="userSpaceOnUse"
       gradientTransform="matrix(3.8946123,0,0,3.3831248,-738.18715,-274.05252)" /><linearGradient
       inkscape:collect="always"
       xlink:href="#linearGradient8"
       id="linearGradient12"
       x1="-7.0766135"
       y1="87.115672"
       x2="469.99145"
       y2="87.115672"
       gradientUnits="userSpaceOnUse" /><filter
       inkscape:collect="always"
       style="color-interpolation-filters:sRGB"
       id="filter12"
       x="-0.0086620332"
       y="-0.0086620332"
       width="1.0173241"
       height="1.0173241"><feGaussianBlur
         inkscape:collect="always"
         stdDeviation="0.16753653"
         id="feGaussianBlur12" /></filter></defs><g
     inkscape:label="Layer 1"
     inkscape:groupmode="layer"
     id="layer1"><image
       width="508"
       height="317.5"
       preserveAspectRatio="none"
       xlink:href="heaven_generated.jpg"
       id="image1"
       x="-0.82387966"
       y="-318.52127"
       style="display:inline" /><rect
       style="display:inline;fill:#213277;fill-opacity:1;stroke-width:0.529167;stroke-linecap:square;stroke-miterlimit:4.2;paint-order:markers fill stroke"
       id="rect1"
       width="513.24011"
       height="114.57498"
       x="-1.53706"
       y="171.78183"
       inkscape:label="water" /><rect
       style="display:inline;fill:#2a4687;fill-opacity:1;stroke-width:0.529167;stroke-linecap:square;stroke-miterlimit:4.2;paint-order:markers fill stroke"
       id="rect2"
       width="509.91885"
       height="183.85963"
       x="0"
       y="0"
       inkscape:label="sky" /><rect
       style="display:inline;fill:url(#radialGradient2);fill-opacity:1;stroke-width:0.529167;stroke-linecap:square;stroke-miterlimit:4.2;paint-order:markers fill stroke"
       id="rect13"
       width="508"
       height="285.75"
       x="0"
       y="1.6465469e-15"
       inkscape:label="sun gradient" /><path
       style="fill:url(#linearGradient12);stroke-width:0.529167;stroke-linecap:square;stroke-miterlimit:4.2;paint-order:markers fill stroke"
       d="m -5.1466281,95.825054 90.7093181,-4.503288 44.38967,1.286658 49.53629,7.076579 34.09641,5.146627 83.63272,-3.21664 50.1796,-9.006566 75.26944,-16.083213 43.74634,-5.146628 c 17.58907,-2.464294 -35.38308,-1.929984 -35.38308,-1.929984 l -74.6261,16.72654 -60.47287,10.936569 -73.98278,1.929978 -26.46262,-6.104753 -74.20464,-9.625603 -36.572765,3.31751 -90.9553029,4.437059 z"
       id="path4"
       inkscape:label="yellow trail 1"
       sodipodi:nodetypes="cccccccccccccccccc" /><path
       style="fill:#f3a380;fill-opacity:1;stroke-width:0.529167;stroke-linecap:square;stroke-miterlimit:4.2;paint-order:markers fill stroke"
       d="m 158.25881,116.44246 21.59298,4.33739 45.19891,1.59815 57.37052,-5.29221 32.17319,-2.08659 12.85979,0.1566 22.67312,-6.10993 20.42989,-1.61001 -11.57991,-2.57331 33.45309,-3.85998 15.43987,-6.433281 14.79656,6.433281 -13.50989,12.86658 -40.5297,1.92998 -39.88636,4.5033 -104.61369,12.00569 -50.42848,-6.85906 z"
       id="path8"
       sodipodi:nodetypes="cccccccccccccccccc" /><path
       style="fill:#f3a380;fill-opacity:1;stroke-width:0.529167;stroke-linecap:square;stroke-miterlimit:4.2;paint-order:markers fill stroke"
       d="m 103.03358,110.00917 50.72193,-3.21664 18.65653,5.78996 34.68125,-2.33938 -15.32291,-6.31631 12.47641,1.56753 26.94361,1.50213 42.22422,-2.13391 15.88766,-0.67465 26.60503,0.0829 -6.99368,-5.42681 28.12023,-3.362234 26.99949,4.34008 -21.46009,4.366014 -20.65679,6.09046 -48.50185,4.87744 -55.32626,5.3232 -39.24304,-0.8199 -18.65652,-7.07661 z"
       id="path7"
       sodipodi:nodetypes="cccccccccccccccccccc" /><circle
       style="fill:url(#radialGradient5);stroke-width:0.52917;stroke-linecap:square;stroke-miterlimit:4.2;paint-order:markers fill stroke"
       id="circle4"
       cx="255.0211"
       cy="114.99715"
       inkscape:label="sun light"
       r="50.872902" /><circle
       style="fill:#ffffff;fill-opacity:0.79454714;stroke-width:0.529169;stroke-linecap:square;stroke-miterlimit:4.2;paint-order:markers fill stroke;filter:url(#filter12)"
       id="path1"
       cx="255.0211"
       cy="114.99715"
       inkscape:label="sun 1"
       r="23.209774" /><path
       style="fill:#7d557a;fill-opacity:1;stroke-width:0.529167;stroke-linecap:square;stroke-miterlimit:4.2;paint-order:markers fill stroke"
       d="m -30.942716,149.40911 65.421742,-21.21786 9.724853,6.18854 17.681551,3.53631 20.333784,-11.49301 15.029318,2.65223 37.131258,-3.53631 14.47172,-2.10825 12.93468,5.64456 40.66757,13.26117 8.84078,-7.9567 35.3631,26.52233 30.05863,3.53631 43.31981,-28.29048 20.33378,-7.07263 13.26116,10.60894 28.29049,12.37708 40.66757,-6.18854 17.68155,-11.49301 6.18855,5.30447 8.84076,-5.30447 42.43573,18.56563 37.13125,17.68155 -577.302644,2.65223 z"
       id="path3"
       sodipodi:nodetypes="ccccccccccccccccccccccccc" /><path
       style="fill:#383e7c;fill-opacity:1;stroke-width:0.529167;stroke-linecap:square;stroke-miterlimit:4.2;paint-order:markers fill stroke"
       d="m -22.503793,173.60069 575.454143,-1.60742 -27.32604,-37.77422 -81.9781,22.50379 -65.11116,-0.0825 -18.30781,4.10181 -23.70426,-0.56293 -51.04701,-30.95107 -63.09391,35.93406 -33.83243,0.24074 L 156.72284,141.45249 140.6487,142.2562 120.92202,129.32872 98.637085,130.6419 85.996636,139.845 53.044653,154.31172 36.970517,140.6487 -8.0370687,126.98569 Z"
       id="path2"
       sodipodi:nodetypes="ccccccccccccccccccc" /></g></svg>
