<?xml version="1.0" encoding="UTF-8" standalone="no"?>
<!-- Created with Inkscape (http://www.inkscape.org/) -->

<svg
   width="1920"
   height="1200"
   viewBox="0 0 508 317.5"
   version="1.1"
   id="svg1"
   inkscape:version="1.4.2 (f4327f4, 2025-05-13)"
   xml:space="preserve"
   sodipodi:docname="sunset_06_015.svg"
   xmlns:inkscape="http://www.inkscape.org/namespaces/inkscape"
   xmlns:sodipodi="http://sodipodi.sourceforge.net/DTD/sodipodi-0.dtd"
   xmlns:xlink="http://www.w3.org/1999/xlink"
   xmlns="http://www.w3.org/2000/svg"
   xmlns:svg="http://www.w3.org/2000/svg"><sodipodi:namedview
     id="namedview1"
     pagecolor="#ffffff"
     bordercolor="#000000"
     borderopacity="0.25"
     inkscape:showpageshadow="2"
     inkscape:pageopacity="0.0"
     inkscape:pagecheckerboard="0"
     inkscape:deskcolor="#d1d1d1"
     inkscape:document-units="px"
     inkscape:zoom="0.41322314"
     inkscape:cx="1294.7"
     inkscape:cy="30.25"
     inkscape:window-width="2400"
     inkscape:window-height="1261"
     inkscape:window-x="-9"
     inkscape:window-y="-9"
     inkscape:window-maximized="1"
     inkscape:current-layer="layer1" /><defs
     id="defs1"><linearGradient
       id="linearGradient15"><stop
         style="stop-color:#fdd57d;stop-opacity:1;"
         offset="0.04763311"
         id="stop3" /><stop
         style="stop-color:#ffd16e;stop-opacity:1;"
         offset="0.10797625"
         id="stop6" /><stop
         style="stop-color:#c67281;stop-opacity:1;"
         offset="0.56040031"
         id="stop7" /><stop
         style="stop-color:#2a4687;stop-opacity:1"
         offset="1"
         id="stop14" /></linearGradient><linearGradient
       id="linearGradient14"
       inkscape:collect="always"><stop
         style="stop-color:#3b4094;stop-opacity:1;"
         offset="0.00236351"
         id="stop16" /><stop
         style="stop-color:#c15b8a;stop-opacity:1;"
         offset="1"
         id="stop17" /></linearGradient><inkscape:path-effect
       effect="powerstroke"
       message=""
       id="path-effect26"
       is_visible="true"
       lpeversion="1.3"
       scale_width="1"
       interpolator_type="CubicBezierJohan"
       interpolator_beta="0.2"
       start_linecap_type="zerowidth"
       end_linecap_type="zerowidth"
       offset_points="0,0.5772388"
       linejoin_type="extrp_arc"
       miter_limit="4"
       not_jump="false"
       sort_points="true" /><inkscape:path-effect
       effect="spiro"
       id="path-effect25"
       is_visible="true"
       lpeversion="1" /><inkscape:path-effect
       effect="powerstroke"
       message=""
       id="path-effect23"
       is_visible="true"
       lpeversion="1.3"
       scale_width="1"
       interpolator_type="CubicBezierJohan"
       interpolator_beta="0.2"
       start_linecap_type="zerowidth"
       end_linecap_type="zerowidth"
       offset_points="0,0.5772388"
       linejoin_type="extrp_arc"
       miter_limit="4"
       not_jump="false"
       sort_points="true" /><inkscape:path-effect
       effect="spiro"
       id="path-effect22"
       is_visible="true"
       lpeversion="1" /><inkscape:path-effect
       effect="powerstroke"
       message=""
       id="path-effect20"
       is_visible="true"
       lpeversion="1.3"
       scale_width="1"
       interpolator_type="CubicBezierJohan"
       interpolator_beta="0.2"
       start_linecap_type="zerowidth"
       end_linecap_type="zerowidth"
       offset_points="0,0.5772388"
       linejoin_type="extrp_arc"
       miter_limit="4"
       not_jump="false"
       sort_points="true" /><inkscape:path-effect
       effect="spiro"
       id="path-effect19"
       is_visible="true"
       lpeversion="1" /><inkscape:path-effect
       effect="powerstroke"
       message=""
       id="path-effect14"
       is_visible="true"
       lpeversion="1.3"
       scale_width="1"
       interpolator_type="CubicBezierJohan"
       interpolator_beta="0.2"
       start_linecap_type="zerowidth"
       end_linecap_type="zerowidth"
       offset_points="0,0.5772388"
       linejoin_type="extrp_arc"
       miter_limit="4"
       not_jump="false"
       sort_points="true" /><inkscape:path-effect
       effect="spiro"
       id="path-effect13"
       is_visible="true"
       lpeversion="1" /><inkscape:path-effect
       effect="powerstroke"
       message=""
       id="path-effect11"
       is_visible="true"
       lpeversion="1.3"
       scale_width="1"
       interpolator_type="CubicBezierJohan"
       interpolator_beta="0.2"
       start_linecap_type="zerowidth"
       end_linecap_type="zerowidth"
       offset_points="0,0.5772388"
       linejoin_type="extrp_arc"
       miter_limit="4"
       not_jump="false"
       sort_points="true" /><inkscape:path-effect
       effect="spiro"
       id="path-effect10"
       is_visible="true"
       lpeversion="1" /><inkscape:path-effect
       effect="powerstroke"
       message=""
       id="path-effect6"
       is_visible="true"
       lpeversion="1.3"
       scale_width="1"
       interpolator_type="CubicBezierJohan"
       interpolator_beta="0.2"
       start_linecap_type="zerowidth"
       end_linecap_type="zerowidth"
       offset_points="0,0.5772388"
       linejoin_type="extrp_arc"
       miter_limit="4"
       not_jump="false"
       sort_points="true" /><inkscape:path-effect
       effect="spiro"
       id="path-effect5"
       is_visible="true"
       lpeversion="1" /><linearGradient
       id="linearGradient8"
       inkscape:collect="always"><stop
         style="stop-color:#fddc7b;stop-opacity:1;"
         offset="0.7187947"
         id="stop11" /><stop
         style="stop-color:#fddc7b;stop-opacity:0;"
         offset="1"
         id="stop12" /></linearGradient><linearGradient
       id="linearGradient4"
       inkscape:collect="always"><stop
         style="stop-color:#ffffff;stop-opacity:0.8037402;"
         offset="0"
         id="stop4" /><stop
         style="stop-color:#ffffff;stop-opacity:0.40392157;"
         offset="0.2626459"
         id="stop13" /><stop
         style="stop-color:#ffffff;stop-opacity:0;"
         offset="0.52871925"
         id="stop5" /></linearGradient><linearGradient
       id="linearGradient5"><stop
         style="stop-color:#fdd57d;stop-opacity:1;"
         offset="0.00022799"
         id="stop8" /><stop
         style="stop-color:#ffd16e;stop-opacity:1;"
         offset="0.19239627"
         id="stop1" /><stop
         style="stop-color:#c67281;stop-opacity:1;"
         offset="0.54236144"
         id="stop9" /><stop
         style="stop-color:#2a4687;stop-opacity:0;"
         offset="1"
         id="stop10" /></linearGradient><radialGradient
       inkscape:collect="always"
       xlink:href="#linearGradient5"
       id="radialGradient2"
       cx="255.03188"
       cy="120.64713"
       fx="255.03188"
       fy="120.64713"
       r="254"
       gradientTransform="matrix(2.1564986,0,0,0.71818443,-293.99192,55.830269)"
       gradientUnits="userSpaceOnUse" /><radialGradient
       inkscape:collect="always"
       xlink:href="#linearGradient4"
       id="radialGradient5"
       cx="255.0211"
       cy="114.99715"
       fx="255.0211"
       fy="114.99715"
       r="23.209774"
       gradientUnits="userSpaceOnUse"
       gradientTransform="matrix(3.8946123,0,0,3.3831248,-740.16141,-242.47627)" /><linearGradient
       inkscape:collect="always"
       xlink:href="#linearGradient8"
       id="linearGradient12"
       x1="-7.0766134"
       y1="87.115669"
       x2="469.99146"
       y2="87.115669"
       gradientUnits="userSpaceOnUse"
       gradientTransform="translate(0,30.665235)" /><filter
       inkscape:collect="always"
       style="color-interpolation-filters:sRGB"
       id="filter12"
       x="-0.0086620332"
       y="-0.0086620332"
       width="1.0173241"
       height="1.0173241"><feGaussianBlur
         inkscape:collect="always"
         stdDeviation="0.16753653"
         id="feGaussianBlur12" /></filter><inkscape:path-effect
       effect="fill_between_many"
       method="bsplinespiro"
       autoreverse="false"
       close="false"
       join="false"
       linkedpaths="#path5,0,1"
       id="path-effect7"
       is_visible="true"
       lpeversion="0" /><inkscape:path-effect
       effect="fill_between_many"
       method="bsplinespiro"
       autoreverse="false"
       close="false"
       join="false"
       linkedpaths="#path10,0,1"
       id="path-effect12"
       is_visible="true"
       lpeversion="0" /><inkscape:path-effect
       effect="fill_between_many"
       method="bsplinespiro"
       autoreverse="false"
       close="false"
       join="false"
       linkedpaths="#path13,0,1"
       id="path-effect15"
       is_visible="true"
       lpeversion="0" /><inkscape:path-effect
       effect="fill_between_many"
       method="bsplinespiro"
       autoreverse="false"
       close="false"
       join="false"
       linkedpaths="#path19,0,1"
       id="path-effect21"
       is_visible="true"
       lpeversion="0" /><inkscape:path-effect
       effect="fill_between_many"
       method="bsplinespiro"
       autoreverse="false"
       close="false"
       join="false"
       linkedpaths="#path22,0,1"
       id="path-effect24"
       is_visible="true"
       lpeversion="0" /><inkscape:path-effect
       effect="fill_between_many"
       method="bsplinespiro"
       autoreverse="false"
       close="false"
       join="false"
       linkedpaths="#path25,0,1"
       id="path-effect27"
       is_visible="true"
       lpeversion="0" /><linearGradient
       inkscape:collect="always"
       xlink:href="#linearGradient14"
       id="linearGradient17"
       x1="105.61524"
       y1="-973.32348"
       x2="1513.5156"
       y2="-973.32349"
       gradientUnits="userSpaceOnUse" /><radialGradient
       inkscape:collect="always"
       xlink:href="#linearGradient15"
       id="radialGradient19"
       cx="253.54773"
       cy="198.30829"
       fx="253.54773"
       fy="198.30829"
       r="254"
       gradientTransform="matrix(1.9603915,0,0,0.57330339,-243.73197,31.84691)"
       gradientUnits="userSpaceOnUse" /></defs><g
     inkscape:label="Layer 1"
     inkscape:groupmode="layer"
     id="layer1"><image
       width="508"
       height="317.5"
       preserveAspectRatio="none"
       xlink:href="heaven_generated.jpg"
       id="image1"
       x="-0.82387966"
       y="-318.52127"
       style="display:inline" /><rect
       style="display:inline;fill:url(#radialGradient19);fill-opacity:1;stroke-width:0.55778;stroke-linecap:square;stroke-miterlimit:4.2;paint-order:markers fill stroke"
       id="rect2"
       width="508"
       height="205.05208"
       x="0"
       y="0"
       inkscape:label="sky" /><rect
       style="display:inline;fill:#213277;fill-opacity:1;stroke-width:0.521549;stroke-linecap:square;stroke-miterlimit:4.2;paint-order:markers fill stroke"
       id="rect1"
       width="508"
       height="112.44791"
       x="0"
       y="-317.5"
       inkscape:label="water"
       transform="scale(1,-1)" /><rect
       style="display:none;fill:url(#radialGradient2);fill-opacity:1;stroke-width:0.557791;stroke-linecap:square;stroke-miterlimit:4.2;paint-order:markers fill stroke"
       id="rect13"
       width="508"
       height="317.5"
       x="0"
       y="1.6465469e-15"
       inkscape:label="sun gradient" /><path
       style="display:inline;opacity:1;fill:#f8b57f;fill-opacity:1;stroke-width:0.529167;stroke-linecap:square;stroke-miterlimit:4.2;paint-order:markers fill stroke"
       d="m -19.727632,97.734061 c 0,0 127.766522,-12.48105 142.710682,-12.72604 14.94415,-0.24498 99.70936,0.73496 117.59335,1.22493 17.88399,0.48998 36.50294,2.69485 37.48287,2.44987 0.97997,-0.24499 -7.10459,-3.6748 8.81952,-1.22493 15.9241,2.44986 27.68343,3.67479 35.52298,4.16476 7.83955,0.48997 25.47488,-0.35136 31.16406,-0.35136 5.68917,0 22.42206,0 26.60528,0.83665 4.18322,0.83664 140.72356,13.888289 140.72356,13.888289 l -5.99747,99.03237 -528.407956,-0.53151 z"
       id="path20"
       inkscape:label="yellow sky"
       sodipodi:nodetypes="cssssssscccc" /><path
       style="display:inline;opacity:1;fill:#f39e7f;fill-opacity:1;stroke-width:0.529167;stroke-linecap:square;stroke-miterlimit:4.2;paint-order:markers fill stroke"
       d="m 269.75175,173.57932 -54.66598,-8.74656 52.08177,-4.37327 8.94535,0.99392 19.28217,-2.18664 -7.76377,3.1897 -9.12019,1.76273 -0.0766,0.91968 50.35272,-5.82467 c 0,0 16.348,-1.6192 19.19925,-2.29807 2.85123,-0.67886 20.94609,-3.92507 20.94609,-3.92507 l 1.71185,-8.89584 -35.60066,5.05999 -46.08206,3.43357 -23.4928,1.98785 -39.9378,4.51785 -32.52852,3.25285 -50.96133,-5.96356 -13.55355,-3.43357 -4.69857,-3.79499 c 0,0 4.69857,1.44571 9.0357,1.98785 4.33714,0.54215 15.90283,0.54215 19.51711,0.18072 3.61428,-0.36143 23.85425,-1.98786 28.55281,-1.62643 4.69856,0.36143 24.21567,0.54214 29.09495,0.36143 4.87928,-0.18071 27.64924,-0.36143 32.16709,-0.90357 4.51785,-0.54214 10.48141,-1.80714 17.16782,-3.07214 6.68642,-1.265 13.37284,-2.71071 16.44497,-2.89142 3.07215,-0.18071 24.57712,-0.72286 24.57712,-0.72286 l 1.62642,1.08429 c 0,0 1.08428,-0.18072 4.51784,-0.36143 3.43357,-0.18071 14.81854,-1.265 17.8907,-2.16857 3.07213,-0.90357 3.39391,-2.77002 5.67015,-3.19154 2.27621,-0.42152 11.21249,-0.33721 11.9712,-1.09595 0.75875,-0.75874 0.16862,-1.51749 -1.77038,-1.8547 -1.93899,-0.33722 -8.85197,0.33721 -8.85197,0.33721 0,0 8.51476,-1.77039 11.71831,-2.19191 3.20358,-0.42152 18.12547,-2.19191 18.12547,-2.19191 0,0 3.70938,0.84304 5.22687,0.75874 1.51746,-0.0843 1.57631,-1.27914 2.98966,-1.59322 1.41335,-0.31407 2.19853,0.26174 3.45485,-0.10469 1.25632,-0.36643 1.30865,-0.26173 1.57041,-1.09927 0.26172,-0.83755 1.46568,-4.24006 2.61731,-4.76353 1.15162,-0.52346 1.9368,-1.25631 3.50721,-1.41335 1.57038,-0.15704 3.19312,0.10469 4.71117,0.94224 1.51804,0.83754 2.8267,3.35017 3.7166,3.92598 0.88987,0.57581 3.40252,0 4.39708,0.36642 0.9946,0.36643 2.14622,1.09927 2.51265,1.98916 0.36642,0.88989 0.94223,3.6119 2.46028,4.08302 1.51804,0.47112 4.71117,-0.0523 6.17685,-1.41335 1.46572,-1.36101 3.0361,-3.71659 3.0361,-4.86821 0,-1.15163 0.15705,-4.86822 0.15705,-4.86822 0,0 2.09386,0.88989 2.87904,0.73285 0.78521,-0.15704 1.88447,0.31408 2.19856,-0.88989 0.31408,-1.20397 1.15162,-1.20397 0.15703,-2.1462 -0.99457,-0.94224 -1.93681,-2.30324 -1.93681,-2.30324 l -1.00282,-3.95164 c 0,0 2.87478,0.55641 4.63674,0.83461 1.76197,0.27821 2.31839,-0.18547 2.87478,-1.11282 0.55642,-0.92734 0,-2.78204 1.39102,-3.15298 1.39102,-0.37094 3.8698,-0.66412 5.95998,-0.0371 2.09021,0.62706 2.8566,2.71725 4.6681,2.50823 1.81149,-0.20902 4.80745,-3.41398 6.47959,-3.623 1.67216,-0.20901 7.45503,-0.20901 9.75423,-0.55738 2.29921,-0.34837 5.92222,-1.74183 8.56978,-1.95085 2.64758,-0.20901 10.869,1.88118 12.54117,3.48366 1.67214,1.60248 3.97134,3.83202 4.04103,5.57384 0.0697,1.74183 0.69673,2.8566 -0.5574,3.623 -1.25409,0.76641 -11.42637,2.09019 -11.42637,2.09019 0,0 12.29593,0.69295 18.80163,-0.75277 6.50571,-1.44571 35.18773,-5.81844 35.18773,-5.81844 0,0 -9.41407,5.12351 -13.93191,6.74994 -4.51787,1.62642 -17.62543,5.10624 -27.58081,5.21278 l -23.67354,0.25336 -1.34692,1.13832 c 0,0 -4.98736,-0.5758 -6.43307,1.39346 -1.63243,2.22359 2.15353,4.27201 3.44286,4.98556 2.95384,1.63474 5.24071,2.34928 8.49357,1.44571 3.25284,-0.90357 3.38834,-0.94657 4.3179,-0.91082 0.92958,0.0358 1.57316,0.89383 2.39548,0.96534 0.82233,0.0715 2.32397,-0.60781 3.32505,-0.64356 1.0011,-0.0358 2.18096,0.39328 2.57423,0.89383 0.39331,0.50054 1.60891,1.32287 1.39438,1.89493 -0.21452,0.57205 -0.57205,0.75081 -1.3586,1.1441 -0.78658,0.39329 -1.57316,0.82233 -1.4659,1.50164 0.10726,0.67931 0.0715,1.82342 1.10836,1.82342 1.03685,0 6.38293,-0.025 9.44989,-0.79013 0.85036,-0.21214 1.29306,-0.61066 1.99079,-0.69983 0.76605,-0.0979 1.21276,0.1097 2.30871,0.194 1.09596,0.0843 4.06591,0.38191 4.88966,0.0843 0.90403,-0.32662 1.60179,-2.10761 1.60179,-2.10761 0,0 0.59013,-0.0843 1.51749,0.50582 0.92734,0.59014 1.68609,0.59014 2.44483,0 0.33895,-0.26363 1.05619,-1.31768 1.41246,-2.32636 0.44122,-1.24921 0.0971,-2.05836 0.90437,-2.67299 0.66935,-0.50963 2.9913,0.83086 3.74191,1.17417 1.38211,0.63213 6.28728,-0.0975 7.72045,-0.0132 1.43317,0.0843 3.51438,-0.24784 3.98261,-1.49209 0.56493,-1.50122 -4.10791,-6.75491 -2.54645,-8.00521 1.35207,-1.08265 13.90165,0.29741 13.90165,0.29741 l -1.50992,63.05291 -142.96128,4.21853 -103.58835,-2.81236 z"
       id="path30"
       sodipodi:nodetypes="cccccccccsccccccccccsssssssccssssscscssssssssssssscsssccssssssssssscscssccssssssssssssasscssssssssccccc"
       inkscape:label="cumquat cream" /><path
       style="display:inline;opacity:1;fill:#ef8980;fill-opacity:1;stroke-width:0.529167;stroke-linecap:square;stroke-miterlimit:4.2;paint-order:markers fill stroke"
       d="m -4.8792772,170.76021 c 0,0 31.5850562,-2.61064 36.0734242,-3.05948 4.488365,-0.44884 21.207531,-1.57093 25.24706,-1.79534 4.039531,-0.22442 15.036027,0 19.748812,0 4.712785,0 13.801727,0 15.9337,0.11221 2.131976,0.1122 9.201151,1.23429 9.201151,1.23429 v 25.92032 H -5.8348763 Z"
       id="path33"
       inkscape:label="passion pink after mountains" /><path
       style="display:inline;opacity:1;fill:#604a79;fill-opacity:1;stroke-width:0.529167;stroke-linecap:square;stroke-miterlimit:4.2;paint-order:markers fill stroke"
       d="m -10.138054,180.93442 31.736703,-9.3045 c 0,0 1.46437,0.68212 2.597669,0.39987 1.213365,-0.30219 1.582714,-1.4133 1.582714,-1.4133 l 9.69089,-2.34355 c 0,0 1.761923,-1.06339 2.667115,-1.00808 0.886748,0.0542 2.177187,0.75549 3.190613,1.19887 1.013425,0.44337 0.729542,-0.12745 2.439701,-7.7e-4 1.710155,0.12668 10.231177,4.3559 10.231177,4.3559 l 7.346264,0.0147 c 0,0 2.552428,0.51914 3.763749,0.0433 1.211322,-0.47587 4.758764,-2.72547 5.840301,-3.24461 1.081538,-0.51914 7.527499,-2.812 8.868606,-2.94178 1.341106,-0.12979 5.710516,0.64892 7.051622,0.82197 1.341107,0.17304 5.407687,0.12978 6.359439,-0.0865 0.951753,-0.2163 3.374396,-1.12479 4.845287,-1.21132 1.470891,-0.0865 9.690574,2.46591 10.945154,2.46591 1.25459,0 6.14313,-1.03828 6.92184,-1.1248 0.77871,-0.0865 6.01335,-0.43262 7.09489,-0.21631 1.08153,0.21631 0.95175,1.25458 2.33612,1.47089 1.38436,0.21631 9.47426,0.30283 11.29124,-0.0865 1.81699,-0.38935 4.62898,-1.64394 6.35944,-1.6872 1.73046,-0.0433 10.98842,3.20135 13.49759,3.72049 2.50916,0.51914 8.3062,1.25458 11.63734,1.25458 0,0 23.00013,-2.66197 27.94059,-2.59863 4.94045,0.0633 10.95767,0.69673 13.93461,1.33012 2.97694,0.63339 10.07092,3.54699 13.23788,4.24372 3.16696,0.69673 3.86369,1.07677 6.08056,1.20344 2.21687,0.12668 4.62376,-0.31669 6.08056,-0.25335 1.4568,0.0633 4.24372,1.83683 6.27057,1.77349 0,0 17.7983,0.0633 22.67542,-0.76007 4.87711,-0.8234 12.85784,-2.66024 14.37798,-3.23029 1.52014,-0.57005 14.31465,-5.13047 17.29159,-5.70053 2.97694,-0.57005 7.34734,-0.31669 9.43753,-0.76007 2.09019,-0.44337 6.65061,-1.33012 8.36077,-1.77349 1.71016,-0.44338 5.63718,-1.90018 7.91739,-2.9136 2.28021,-1.01343 5.13047,-1.52014 7.34734,-1.39346 2.21687,0.12667 4.62376,1.39346 6.27058,2.09019 1.64682,0.69673 10.33565,1.85078 12.57983,2.63624 2.24418,0.78547 12.00638,6.62034 15.48486,7.2936 3.47849,0.67325 18.06568,0.44883 18.06568,0.44883 l 13.57731,-4.48836 8.75231,-2.01977 6.28372,-1.2343 c 0,0 1.12209,-1.2343 4.71278,-1.90755 3.59069,-0.67326 2.58081,-0.89768 6.1715,-0.33663 3.5907,0.56105 12.45522,2.13197 14.92382,2.91744 2.4686,0.78546 2.35639,2.13197 4.15174,2.01976 1.79535,-0.11221 4.37616,-2.58081 7.63022,-2.4686 3.25407,0.11221 6.62035,1.45872 8.64011,2.4686 2.01976,1.00989 4.60058,2.13198 7.06918,2.13198 2.4686,0 5.72266,-1.57093 9.64999,-1.79535 3.92732,-0.22442 34.67263,1.79535 34.67263,1.79535 l 0.52917,34.34812 H -7.7204024 Z"
       id="path29"
       sodipodi:nodetypes="ccsccsssccssssssssssssscssssscssssssssssccccsssssssscccc"
       inkscape:label="mountains far 2" /><path
       style="display:inline;opacity:1;fill:#323c78;fill-opacity:1;stroke-width:0.529167;stroke-linecap:square;stroke-miterlimit:4.2;paint-order:markers fill stroke"
       d="m -7.5571299,169.97179 28.7499509,3.12143 13.30712,4.92856 16.428543,-0.16429 18.416777,8.3579 11.894172,-0.33663 32.428447,-16.60695 19.74881,2.69302 11.66975,5.94708 h 11.89418 l 36.01913,15.8215 16.04591,-0.33663 59.35865,-24.34939 58.46098,18.29009 22.1052,-0.33662 16.38252,-5.49825 24.46161,-1.00988 52.40168,0.89767 70.69177,-23.00288 -2.74331,46.7216 H -8.4185605 Z"
       id="path28"
       inkscape:label="mountains near 2"
       sodipodi:nodetypes="cccccccccccccccccccccc" /><path
       style="opacity:1;fill:url(#linearGradient12);stroke-width:0.529167;stroke-linecap:square;stroke-miterlimit:4.2;paint-order:markers fill stroke"
       d="m -2.1894903,125.34045 31.0327043,-1.98398 56.570126,0.27351 43.31492,3.52014 50.76039,3.2003 40.62494,0.45425 81.59256,-7.29698 47.54331,-6.31931 42.82025,-4.4498 30.59711,-5.54808 44.73205,-3.17523 c 17.58907,-2.46431 -36.36879,-3.90143 -36.36879,-3.90143 l -74.36152,13.28706 -57.6772,7.64366 c 0,0 -25.42946,3.24454 -38.21834,3.40399 -10.88877,0.13576 -21.71628,-1.80149 -32.60218,-2.08605 -10.76866,-0.2815 -21.54434,0.575 -32.31484,0.3758 -17.72209,-0.32777 -42.85685,-2.05177 -53.11253,-2.5841 -7.85906,-0.40793 -15.76339,1.12162 -23.60457,0.45299 -5.39637,-0.46016 -10.5695,-2.50857 -15.95754,-3.05772 -6.126535,-0.62443 -12.315221,-0.32877 -18.473055,-0.25529 -9.568348,0.11417 -19.1189,0.92868 -28.686709,1.08148 -9.142168,0.146 -18.290428,-0.43509 -27.429548,-0.15755 -10.207048,0.30997 -30.5676246,2.03459 -30.5676246,2.03459 z"
       id="path4"
       inkscape:label="yellow trail 2"
       sodipodi:nodetypes="ccccccccccccccaaasaaaaacc" /><path
       style="display:inline;opacity:1;fill:#f39780;fill-opacity:1;stroke-width:0.529167;stroke-linecap:square;stroke-miterlimit:4.2;paint-order:markers fill stroke"
       d="m 94.177148,147.6603 c 0,0 15.675622,-3.57947 19.625382,-3.82633 3.94976,-0.24686 7.40581,-0.37029 11.479,-0.12343 4.07319,0.24686 12.58986,3.57947 18.39108,3.57947 5.80121,0 19.62538,-2.71546 24.06886,-3.7029 4.44349,-0.98744 16.29277,-3.33261 17.77393,-3.45604 1.48117,-0.12343 6.5418,-0.24686 6.41837,-1.48116 -0.12343,-1.2343 -1.35773,-2.71546 -4.32005,-2.71546 -2.96233,0 -10.49156,-0.74058 -10.49156,-0.74058 l 41.4725,-4.32006 38.26333,-0.12343 28.26547,-0.37029 c 0,0 8.00296,-0.0358 7.91864,-0.71021 -0.0843,-0.67444 -4.04662,-1.8547 -5.64838,-2.10761 -1.60179,-0.25291 -9.94794,-0.59013 -9.94794,-0.59013 0,0 18.46268,-1.43317 21.0761,-1.68609 2.61345,-0.25291 11.97124,-2.27622 13.91023,-2.61343 1.939,-0.33722 14.83757,-0.33722 17.19811,-0.33722 2.36053,0 40.88762,1.85469 40.88762,1.85469 l -19.47431,2.44483 -1.01164,1.18026 -3.7094,0.25292 -0.92734,0.50582 c 0,0 -7.25019,1.68609 -10.36945,1.77039 -3.11927,0.0843 -7.33448,1.01166 -10.11652,1.34888 -2.78204,0.33721 -12.89857,0.59013 -12.9829,1.18026 -0.0843,0.59013 1.26458,0.92735 4.29954,0.84304 3.03495,-0.0843 9.44208,-0.75874 9.44208,-0.75874 0,0 -17.95683,2.61344 -19.98015,2.86635 -2.02329,0.25292 -20.57027,2.10761 -22.17205,2.36053 -1.60177,0.25291 -37.68406,5.98561 -40.21319,6.23852 -2.52913,0.25291 -27.82046,2.02331 -27.82046,2.02331 0,0 -9.86361,1.18026 -13.32009,1.26456 -3.45648,0.0843 -34.73342,1.26457 -37.34685,1.26457 -2.61344,0 -48.30643,0.0843 -48.30643,0.0843 l -20.654574,-0.16861 z"
       id="path31"
       inkscape:label="passion pink 4" /><circle
       style="fill:url(#radialGradient5);stroke-width:0.52917;stroke-linecap:square;stroke-miterlimit:4.2;paint-order:markers fill stroke"
       id="circle4"
       cx="253.04684"
       cy="146.57291"
       inkscape:label="sun halo"
       r="50.872902" /><circle
       style="opacity:1;fill:#ffffff;fill-opacity:0.794547;stroke-width:0.560633;stroke-linecap:square;stroke-miterlimit:4.2;paint-order:markers fill stroke;filter:url(#filter12)"
       id="path1"
       cx="255.0211"
       cy="-169.69484"
       inkscape:label="sun 1"
       r="23.209774"
       transform="matrix(0.94387908,0,0,0.94387908,12.337756,306.74432)" /><path
       style="opacity:1;fill:#fddc7b;fill-opacity:1;stroke-width:0.529167;stroke-linecap:square;stroke-miterlimit:4.2;paint-order:markers fill stroke"
       d="m -3.3408909,159.85153 c 0,0 17.1816879,-0.85527 25.3423539,-1.1613 8.160666,-0.30602 19.642605,-0.16868 23.670269,-0.37269 3.774978,-0.19121 14.411173,-0.4607 18.185481,-0.25669 3.774308,0.20402 15.607273,0.81607 19.279574,0.91808 3.6723,0.10201 22.135803,1.83615 25.910113,2.24418 3.77431,0.40803 21.31974,1.83615 26.42016,1.93816 5.10041,0.10201 24.58401,0.20402 27.64426,0.20402 3.06025,0 19.48359,-0.51005 21.93179,-0.61205 2.4482,-0.10201 6.70176,-0.46045 6.70176,-0.46045 l 20.36275,3.19313 c 0,0 -19.26348,-0.47112 -21.7761,-0.57581 -2.51263,-0.10469 -11.56856,0.0524 -16.33208,0.41877 -4.76353,0.36643 -20.51979,1.83213 -24.28873,2.1462 -3.76894,0.31408 -7.22381,0.99459 -8.89889,0.83755 -1.67509,-0.15704 -10.73101,-0.41877 -13.13895,-0.57581 -2.40793,-0.15704 -12.14436,-1.51805 -14.13352,-1.72743 -1.98917,-0.20939 -20.362756,-2.30325 -25.70209,-2.61733 -5.339331,-0.31407 -18.373584,-0.73284 -21.514368,-0.83754 -3.140784,-0.10469 -24.759849,-0.47112 -29.628065,-0.47112 0,0 -12.16991,1.09064 -17.116697,1.16031 -4.946787,0.0697 -22.4201179,0.86345 -22.8527639,0.2787 -0.2113085,-0.2856 -0.066257,-3.67088 -0.066257,-3.67088 z"
       id="path27"
       sodipodi:nodetypes="cssssssssccscsssssscssc" /><path
       style="display:inline;opacity:1;fill:#fecb7b;fill-opacity:1;stroke-width:0.529167;stroke-linecap:square;stroke-miterlimit:4.2;paint-order:markers fill stroke"
       d="m 238.66193,85.55884 c 0,0 13.29218,4.33116 15.83114,4.48051 2.53895,0.14935 11.20127,0.14935 11.20127,0.14935 0,0 4.33118,1.04546 6.27272,1.04546 1.94156,0 6.57143,-1.04546 12.09738,-1.04546 5.52598,0 26.28567,3.43506 29.5714,3.73376 3.2857,0.2987 6.13076,0.17087 8.40697,0.17087 2.27624,0 3.878,1.43318 7.41879,1.26457 3.54078,-0.16861 5.68865,-0.93979 8.13922,-0.95801 2.06163,-0.0153 4.33784,0.8737 6.61405,0.7894 2.27624,-0.0843 10.11653,0.50583 12.22415,-0.0843 2.10761,-0.59012 1.51749,-1.18026 3.37216,-1.09595 1.85471,0.0843 2.02332,0.67443 3.7937,0.59013 1.77041,-0.0843 13.99453,-1.51748 15.51202,-1.8547 1.51747,-0.33721 12.13983,0.0843 14.41606,-0.16861 2.27621,-0.25291 64.38241,-1.63635 67.64669,-2.04438 3.26427,-0.40803 4.32263,-0.7859 5.65507,-0.69073 1.33246,0.0952 4.6636,-0.0952 6.1864,-0.19035 1.52281,-0.0952 14.32388,-0.71381 16.75085,-1.23728 2.42697,-0.52346 5.66293,-1.42763 7.56643,-1.95109 1.90351,-0.52346 10.37844,-2.05492 10.37844,-2.05492 l -0.0613,9.74618 -36.79449,1.35773 c 0,0 -47.79214,3.39433 -54.85233,3.39433 -7.0602,0 -27.56194,0.95041 -31.22782,0.67886 -3.66588,-0.27155 -30.00584,-1.62928 -36.7945,-1.22196 -6.78865,0.40732 -30.41319,-0.27154 -38.01647,0.13578 -7.6033,0.40732 -5.43091,1.76505 -12.21957,0.54309 -6.78867,-1.22196 -26.74731,-5.5667 -32.99287,-6.38134 -6.24556,-0.81463 -16.29277,-2.30814 -20.6375,-2.57969 -4.34474,-0.27154 -8.41794,-0.27154 -11.1334,-0.95041 -2.71546,-0.67886 -7.87484,-2.71546 -7.87484,-2.71546 z"
       id="path26"
       sodipodi:nodetypes="cscssssssssssssssssscccsssssssscc"
       inkscape:label="yellow trail 1" /><path
       style="fill:#774b80;fill-opacity:1;stroke:#ff01e9;stroke-width:0.079375;stroke-linecap:round;stroke-miterlimit:4.2;paint-order:markers fill stroke"
       d="m 510.81849,104.1122 -41.32892,0.17292 -29.05127,-0.69169 -12.79642,1.21046 -15.39025,-2.42094 -19.1946,1.21048 2.93971,-3.11264 3.97724,-0.17293 -1.90214,-3.112634 4.49601,-0.86462 -2.76678,-5.01477 2.76678,-5.01478 4.66897,-0.17292 0.34584,-2.76677 4.49603,-1.38339 2.24801,-3.6314 4.1502,1.72923 2.76678,-1.21046 3.97726,-1.21046 3.11264,1.38339 2.7668,-1.38339 5.70651,1.38339 0.17291,3.28554 -1.72924,1.38339 6.74404,0.86462 6.22528,-0.86462 5.18774,3.63139 2.248,-0.34584 2.59387,2.24799 5.70651,-1.21046 3.6314,5.36063 3.80434,1.55631 2.0751,-1.90216 3.63141,-1.38338 1.90217,-4.15017 c 0,0 3.97727,-0.34584 5.36064,0 1.3834,0.34585 0.86463,1.03755 0.86463,1.03755 l 2.59387,-1.72924 1.72924,-1.90215 2.42094,1.03753 2.0751,-1.38338 3.45847,0.17292 1.90217,2.07508 3.11264,-1.03754 9.16501,-1.55631 z"
       id="path6"
       inkscape:label="cloud top right" /><path
       style="display:inline;opacity:1;fill:#fecf7d;fill-opacity:1;stroke-width:0.529167;stroke-linecap:square;stroke-miterlimit:4.2;paint-order:markers fill stroke"
       d="m 28.358314,128.37644 c 0,0 0.479795,-1.22711 1.955011,-1.79816 1.475216,-0.57105 6.281568,-1.99868 7.614023,-2.28421 1.332453,-0.28552 2.617319,-0.71381 6.614681,-0.71381 3.997362,0 7.899549,0.19035 9.89823,0.80899 1.998678,0.61863 5.520166,2.2842 6.567093,3.66425 1.046927,1.38004 4.901525,9.42235 4.901525,9.42235 0,0 3.616661,-1.47522 4.616003,-1.61798 0.999339,-0.14277 3.664246,-0.47588 4.853937,0 1.189691,0.47587 3.140784,3.52148 4.663588,3.56907 1.522807,0.0476 2.998023,0 4.092538,-0.66623 1.094515,-0.66622 2.712495,-1.09451 3.569073,0.23794 0.856578,1.33246 1.38004,2.90285 0.713814,3.56907 -0.666226,0.66623 -2.712495,1.38004 -4.140123,1.76075 -1.427631,0.3807 -2.379382,1.09451 -2.855259,1.5228 -0.475877,0.42829 -0.856578,0.80899 -0.475877,1.38004 0.380701,0.57106 0.856578,1.23728 2.093857,0.85658 1.237279,-0.3807 5.377402,-1.95109 6.900206,-2.04627 1.522804,-0.0952 6.272051,0.86134 7.371326,2.01296 1.099275,1.15162 2.77436,3.24548 3.87363,3.29782 1.09928,0.0523 3.45487,-2.04151 4.71118,-2.51262 1.25631,-0.47112 3.24548,-1.51805 4.76352,-1.67509 1.51805,-0.15704 7.3285,0.99458 8.89889,1.57039 1.57039,0.57581 6.75269,2.66967 7.43319,3.24548 0.6805,0.57581 1.30866,1.04693 1.36101,1.57039 0.0523,0.52346 -1.83213,1.09928 -1.83213,1.09928 l -65.571355,1.68564 -30.228519,1.15 -7.392845,-9.69284 16.757113,-13.96426 -1.149998,-6.24285 z"
       id="path32"
       inkscape:label="cloud bottom left light" /><path
       style="fill:#7d628b;fill-opacity:1;stroke-width:0.529167;stroke-linecap:square;stroke-miterlimit:4.2;paint-order:markers fill stroke"
       d="m 1.9459722,146.72292 c 0,0 0.7928034,-2.55859 1.8378626,-3.27932 1.0450592,-0.72073 5.6937705,-0.25226 6.2343182,-0.90091 0.540548,-0.64866 -0.4684746,-2.19823 0.07207,-2.88293 0.540548,-0.68469 4.000054,-2.09011 5.549625,-2.09011 1.54957,0 4.108163,2.05408 5.225295,1.5856 1.117132,-0.46847 1.65768,-2.34237 1.801826,-3.20725 0.144146,-0.86487 1.009023,-2.6667 1.009023,-2.6667 l 2.414447,-0.21622 2.126156,-0.72073 5.585661,-0.50451 -1.801829,-1.29732 -6.955047,0.61263 3.814922,-3.70053 c 0,0 3.37671,-0.36933 4.484693,-0.6859 1.107982,-0.31656 5.276106,-2.1632 7.122745,-2.1632 1.846638,0 4.906779,0.89694 6.436849,1.74112 1.530072,0.84417 3.640516,2.42701 3.640516,2.42701 l 0.211042,1.79387 2.42701,4.22089 -0.685893,1.37179 -2.268728,-0.15829 c 0,0 -2.849097,-0.15828 -2.743576,1.05522 0.105524,1.21351 3.851561,1.31903 5.381631,1.37179 1.530072,0.0528 6.120283,-0.10552 6.120283,-0.10552 l 1.213506,1.79388 -0.05276,3.00738 -0.633135,0.52761 -1.635593,-0.26381 -2.374247,1.21351 -2.796336,-0.58037 -1.741117,-0.58038 -4.115364,-0.10552 -3.091129,0.56603 -4.928391,0.42486 -5.778111,2.29425 -2.464195,1.95436 3.058999,-0.33989 10.111698,-2.71911 3.058998,-0.25492 2.039335,0.59481 7.902418,0.50983 4.16364,1.44453 0.594804,1.69944 -0.739142,0.8958 -3.95708,2.1632 -1.002461,2.1632 -4.695735,1.31903 9.866321,-1.63559 2.95462,-2.26873 c 0,0 2.743576,-2.79634 4.48469,-3.21842 1.741115,-0.42209 1.952159,0.42208 2.796336,0.47485 0.844177,0.0528 4.43193,0.89693 4.43193,0.89693 l -3.482229,-3.21842 4.220885,1.31902 3.904318,0.0528 c 0,0 1.793878,0.84417 2.479771,0.89693 0.685895,0.0528 3.904321,-0.0528 4.642974,-0.2638 0.738656,-0.21105 1.688356,-0.73866 1.688356,-0.73866 l 1.477309,-0.10552 c 0,0 -0.791416,1.21351 -1.213506,1.37179 -0.422087,0.15828 -1.160743,1.42455 -1.160743,1.42455 l 0.633135,0.15828 0.844177,-0.15828 c 0,0 2.00492,-1.47731 3.007381,-1.68836 1.002459,-0.21104 6.201823,2.28792 6.201823,2.28792 0,0 1.966556,1.4869 2.733986,1.39097 0.76743,-0.0959 2.4462,-2.15841 3.21363,-2.39823 0.76743,-0.23982 5.08425,0.43168 6.13947,0.14389 1.05522,-0.28778 1.43894,-1.24708 2.39823,-1.39097 0.95929,-0.14389 2.25434,-0.28779 2.25434,-0.28779 l 3.45345,1.29505 4.36478,0.33575 2.78195,1.82265 1.82265,1.6308 -1.15115,0.6715 -4.26885,0.1439 -2.35027,1.10319 -30.284156,1.10079 -35.611863,0.74776 -24.488997,0.65428 -2.710616,0.56082 -14.768173,0.37388 -11.68368236,0.56081 -2.14979754,-0.65428 -0.7477556,-4.95388"
       id="path12"
       inkscape:label="cloud bottom left" /><path
       style="fill:#c8638f;fill-opacity:1;stroke-width:0.529167;stroke-linecap:square;stroke-miterlimit:4.2;paint-order:markers fill stroke"
       d="m 409.42543,131.0143 1.09283,-1.9515 0.39031,-2.10763 c 0,0 1.63926,0 2.18567,-0.46836 0.54642,-0.46836 2.10762,-2.88822 2.10762,-2.88822 0,0 1.32705,2.81016 2.41988,3.27852 1.09284,0.46837 9.3672,1.63927 9.3672,1.63927 l -2.57598,-1.95151 -4.52747,-1.09284 1.24894,-2.18568 -0.39029,-1.95151 0.46837,-1.71732 1.95148,-0.3903 c 0,0 6.40094,-4.68361 8.58663,-5.46421 2.18567,-0.7806 9.28915,-0.85866 9.28915,-0.85866 l 4.6836,-1.1709 h 5.38615 l 1.37123,-0.31284 c 0,0 3.1781,-2.28426 4.43609,-2.38357 1.25801,-0.0993 3.67466,1.52284 4.20436,2.15183 0.52967,0.629 2.25115,2.15183 2.97944,3.04567 0.72832,0.89384 1.45664,1.42352 1.22489,2.48289 -0.23172,1.05936 -1.02624,1.82078 -1.92008,1.9863 -0.89384,0.16553 -2.18495,0.16553 -2.88015,-0.19863 -0.69522,-0.36415 -0.99316,-0.86073 -1.65526,-0.72831 -0.66209,0.13242 -3.34361,1.68836 -4.6347,1.82078 -1.29112,0.13242 -2.84705,-0.16552 -2.84705,-0.16552 0,0 -2.81393,-0.83365 -3.23527,-0.62298 -0.42134,0.21066 1.17373,1.44458 1.65526,1.71544 0.48153,0.27086 3.3707,1.50478 3.3707,1.50478 l 1.08344,0.6922 -0.90287,0.48153 -3.40079,-0.57182 c 0,0 -1.3543,0.0602 -1.50478,0.0602 -0.15048,0 -3.76195,0.7223 -3.76195,0.7223 l -2.46783,1.11353 -2.99314,1.92065 -2.24349,1.75101 -1.12175,2.21613 -1.53213,1.77837 -1.23119,1.86046 -0.19151,1.47741 -2.1167,2.43879 -1.50255,0.48469 -1.93876,1.55101 -0.87245,1.59949 -3.73213,-2.90816 -4.31376,-2.08417 -7.7066,-2.56887 c 0,0 -1.30867,-0.29081 -1.50255,-1.35714 -0.19387,-1.06632 0.19994,-1.67259 0.19994,-1.67259 z"
       id="path18"
       inkscape:label="cloud middleright" /><path
       style="fill:#d0768f;fill-opacity:1;stroke-width:2;stroke-linecap:square;stroke-miterlimit:4.2;paint-order:markers fill stroke"
       d="m 1152.0215,-653.11456 35.4202,-5.6154 8.6391,-7.34322 c 0,0 21.3221,5.7414 29.3684,5.47319 8.0463,-0.26821 24.6753,-3.21851 34.8672,-4.02314 10.192,-0.80463 15.288,2.41389 23.066,1.34105 7.7781,-1.07284 21.1886,-6.43703 21.1886,-6.43703 l 12.3376,1.87747 25.7481,-15.28794 9.1192,-2.6821 8.8509,-9.11912 c 0,0 3.3249,4.14636 8.8303,4.28399 5.5054,0.13764 27.6644,-13.62575 33.3074,-15.96553 5.643,-2.33977 16.2408,-1.2387 21.1956,-2.61504 4.9548,-1.37634 10.3226,-11.42361 12.9376,-14.17629 2.615,-2.75268 1.9269,-3.57848 6.6064,-4.54192 4.6796,-0.96344 8.1204,1.10107 10.4602,3.30321 2.3398,2.20215 2.4774,6.19353 4.2667,8.80857 1.7892,2.61505 18.5805,12.39956 21.3332,15.02712 2.7527,2.62755 6.3812,10.88559 8.6334,12.63729 2.2522,1.75171 2.8778,0.62561 6.8817,2.25219 4.0039,1.62658 11.6363,9.38413 14.5141,11.26096 2.8778,1.87682 8.7585,4.25413 13.6383,4.87974 4.8797,0.62561 17.0165,-6.50633 23.648,-7.75754 6.6314,-1.25122 28.9031,2.37731 35.2843,3.5034 6.3812,1.1261 14.8895,4.25414 18.518,5.88072 3.6286,1.62659 9.1339,5.50536 9.1339,5.50536 0,0 -5.0049,6.50633 -2.3773,7.5073 2.6275,1.00098 4.2541,-0.75073 6.5063,-4.12901 2.2522,-3.37829 7.0068,-9.88462 13.7634,-14.63924 6.7566,-4.75463 18.2678,-11.13584 23.8983,-11.13584 5.6304,0 16.7663,7.38218 20.8953,7.63243 4.129,0.25024 8.5083,-4.62951 12.387,-4.37926 3.8788,0.25024 16.6412,8.75852 20.1446,9.50925 3.5034,0.75073 18.0176,-3.50341 22.8973,-0.75073 4.8797,2.75268 11.3861,12.76241 14.2639,13.38802 2.8778,0.62561 7.0068,0.62561 7.0068,0.62561 0,0 5.9485,5.39164 9.6124,6.3076 3.6638,0.91595 9.7098,2.36634 16.9138,2.0132 7.2041,-0.35314 45.43,-10.60803 50.2747,-10.15383 4.8448,0.45419 7.4185,2.42235 9.6895,2.27096 2.2709,-0.1514 11.2034,-0.90839 14.6855,-2.57376 3.4821,-1.66537 13.4744,-12.41457 19.0761,-12.71737 5.6017,-0.30279 12.7173,11.80899 19.6816,11.052 6.9643,-0.75698 8.9324,-2.72515 11.5062,-5.2989 2.5738,-2.57376 5.1475,-8.62965 5.1475,-8.62965 l 9.6894,-2.42235 -0.1514,10.9006 c 0,0 -10.9006,4.08773 -13.4743,6.35869 -2.5738,2.27095 -5.9045,7.87265 -3.3308,8.78104 2.5738,0.90838 5.2989,-0.3028 6.8129,-0.3028 1.514,0 9.9922,-4.99611 9.9922,-4.99611 l -0.1514,36.78954 -86.902,2.42235 h -20.8928 c 0,0 -11.052,-1.66536 -12.1118,-1.66536 -1.0598,0 -55.26,-0.75699 -55.26,-0.75699 l -233.6671,-3.91086 -68.3273,1.96343 -79.7152,6.67566 c 0,0 14.5294,-10.9952 11.3879,-17.27817 -3.1415,-6.28297 -26.7026,-4.71222 -37.6978,-3.92685 -10.9952,0.78537 -38.8759,-7.46103 -48.3003,-7.46103 -9.4245,0 -59.2955,4.71223 -76.5737,5.10491 -17.2782,0.39269 -55.0938,-12.64447 -55.0938,-12.64447 z"
       id="path19"
       transform="matrix(0.26458333,0,0,0.26458333,0,317.49992)"
       inkscape:label="cloud bottom right" /><path
       style="fill:#1d2e7c;fill-opacity:1;stroke-width:2;stroke-linecap:square;stroke-miterlimit:4.2;paint-order:markers fill stroke"
       d="m 70.342353,-984.79294 27.412829,-9.31002 19.137258,1.55167 17.58559,-7.75831 6.7239,-4.1378 109.13409,-9.31 -11.37891,-6.7239 -4.13779,-6.7239 35.17118,-5.1723 13.96503,-1.5516 32.06783,6.7239 5.17224,-6.2067 14.48225,-5.6895 -27.41283,-7.7583 -41.89508,-2.0689 22.2406,-13.4478 2.47259,-14.3684 9.05072,-5.5472 12.55424,1.4598 4.37939,-10.5106 8.75877,-4.3793 -0.87588,-10.2186 9.34269,-2.0437 7.00701,-6.7151 -4.9633,-10.5105 2.33567,-13.4301 9.34269,-6.7151 11.97032,-3.7954 11.3864,2.0437 9.05073,8.1748 6.4231,3.5035 4.37938,-0.2919 -0.87587,15.1818 7.00701,5.8392 13.13816,-0.8758 6.71505,4.3793 6.71506,9.3427 7.59094,4.6714 14.30599,-4.3794 14.01403,-14.598 4.9633,-19.5612 -2.04371,-4.9633 4.67134,-5.8392 6.4231,-2.9196 16.05775,0.292 15.18186,2.9196 12.26228,8.1748 9.92661,7.8829 5.83918,0.292 5.54722,-5.2553 -3.50351,-5.8392 -0.29196,-4.0874 6.71506,-1.1678 14.88991,2.9195 12.55424,9.3427 1.16783,11.9704 -10.51052,19.5612 -18.68538,14.8899 -25.10847,6.1312 -3.21155,11.6783 -2.91959,2.9196 -11.3864,5.2553 -5.54722,5.5472 -0.29196,10.8025 2.62763,4.3794 7.00701,0.2919 12.55424,-4.9633 4.9633,-5.8392 11.09445,-7.007 13.13815,2.0437 21.60497,5.2553 10.21856,-0.5839 c 0,0 6.4231,-13.1382 7.59094,-14.598 1.16783,-1.4598 3.79546,-4.0874 3.79546,-4.0874 l 14.59795,-1.1678 10.51053,2.3356 17.51754,11.3864 5.83918,1.4598 6.71506,-7.8829 -5.83918,-7.5909 v -6.7151 l 22.18888,-5.2552 18.68538,3.5035 6.42309,-5.8392 2.04372,-7.8829 -14.59795,-16.0577 -29.1959,-7.007 -25.10848,-9.9267 -10.21856,-9.0507 -8.46681,-16.0577 9.05073,-1.4598 5.25526,-3.7955 v -8.4668 l -5.25526,-7.5909 0.29195,-8.1749 4.37939,-2.9196 10.21856,-7.8829 12.55424,2.9196 1.16784,9.3427 -2.04372,4.6714 5.25527,9.6346 4.67134,-2.3357 0.29196,-11.3864 7.88289,-2.0437 2.62763,-7.8829 -7.00701,-6.1311 2.33567,-8.1749 H 883.7599 l 31.72515,33.2709 -5.17224,12.4134 11.37891,30.5161 -7.75834,25.344 -8.27558,7.7583 -16.55114,6.2067 -13.4478,11.8961 9.82724,14.9995 -6.20668,11.8961 -20.68893,9.8273 -20.68892,8.2756 -16.03392,-2.0689 -8.27557,6.7239 2.06889,13.4478 18.62003,12.9306 41.89508,-2.5862 8.27557,-4.655 11.37891,13.44783 16.03392,-4.65501 23.27505,6.7239 8.79279,-6.20668 10.86169,-1.03444 27.41283,22.2406 11.37891,3.62056 3.62056,10.34446 0.51722,13.96503 11.37887,3.62056 17.5856,-4.13779 17.0684,-18.62003 5.1722,-2.58612 22.7578,11.89614 2.0689,12.93058 9.3101,5.17223 14.9994,-6.7239 11.3789,-1.03445 17.5856,10.86169 v 0 0 l 2.5601,10.46384 5.5472,2.91959 6.7151,-3.79547 19.8532,-9.34269 10.2186,8.75877 12.8461,2.04371 11.3864,-2.91959 7.299,-4.08742 9.3427,3.79546 7.8829,1.75176 6.1311,-6.71506 33.8673,-3.79547 34.1592,3.79547 8.1748,5.25526 19.2693,-2.62763 21.313,-0.58392 18.9774,6.13114 32.4074,5.25527 26.8603,3.21154 6.4231,7.8829 9.3426,2.62763 15.4739,-11.09444 10.5105,-1.75176 7.5909,3.79547 8.7588,2.04371 11.6784,-5.25526 8.7587,-2.91959 7.299,3.50351 4.6714,6.13114 1.1678,11.97032 -4.6714,10.80248 -9.6346,5.25526 c 0,0 -41.7501,0.29196 -42.918,0 -1.1678,-0.29196 -44.3777,-2.91959 -44.3777,-2.91959 l -42.918,-2.91959 -46.4215,3.50351 -53.1365,4.67134 -54.0125,6.13114 -67.4425,2.04372 -70.3621,6.13114 -56.932,1.45979 -83.20833,-4.67134 -84.37615,-1.16784 -143.05992,-3.50351 -94.88667,-1.16783 -108.31679,-0.29196 -127.29413,4.08742 -93.1504,8.23252 -185.94387,3.41966 z"
       id="path10"
       transform="matrix(0.26458333,0,0,0.26458333,0,318.55976)"
       inkscape:label="cloud top - dark" /><path
       id="path5"
       style="opacity:1;fill:url(#linearGradient17);fill-opacity:1;stroke-width:2;stroke-linecap:square;stroke-miterlimit:4.2;paint-order:markers fill stroke"
       inkscape:label="cloud top - light"
       d="M 441.03126 -1085.9768 C 438.04144 -1085.9768 429.79297 -1082.678 429.79297 -1082.678 L 423.78711 -1078.2991 L 416.78126 -1069.7913 L 411.0254 -1070.1663 L 401.51563 -1063.9104 L 392.88282 -1060.1565 L 369.18555 -1055.428 L 355.3418 -1054.7444 L 355.51368 -1053.2913 L 369.52735 -1052.4377 C 369.52735 -1052.4377 383.20122 -1048.678 386.70508 -1047.9944 C 390.20893 -1047.3107 404.65159 -1047.9933 410.80469 -1048.8479 C 416.9578 -1049.7025 427.8968 -1045.5155 429.34961 -1043.7209 C 430.80243 -1041.9262 429.43468 -1037.4823 428.58008 -1036.0295 C 427.72549 -1034.5767 420.20546 -1029.7898 417.12891 -1029.1916 C 414.05236 -1028.5934 406.27521 -1031.927 403.79688 -1031.7561 C 401.31854 -1031.5852 390.72071 -1028.2737 390.72071 -1028.2737 C 390.72071 -1028.2737 382.18956 -1031.2298 380.25586 -1031.4573 C 378.32216 -1031.6848 370.5882 -1030.7752 367.17579 -1030.8889 C 363.76338 -1031.0027 359.555 -1028.0464 353.75391 -1029.1838 C 347.95281 -1030.3213 335.55323 -1036.1213 333.05079 -1036.1213 C 332.83013 -1036.1213 332.58752 -1036.096 332.32618 -1036.0452 L 335.67774 -1035.0959 L 325.12891 -1030.9514 C 324.77581 -1030.3758 324.52205 -1029.7821 324.40625 -1029.1838 C 323.72377 -1025.6577 330.09365 -1024.1788 332.02735 -1023.4963 C 333.96105 -1022.8138 337.37408 -1021.335 337.60157 -1017.3538 C 337.82907 -1013.3727 329.39652 -1005.0166 327.23438 -1003.3245 C 325.07225 -1001.6324 309.66005 -999.46799 308.33008 -999.24633 C 307.00012 -999.02467 300.35122 -1001.2415 296.36133 -1001.4631 C 292.37144 -1001.6848 270.24414 -994.83227 270.24414 -994.83227 C 270.24414 -994.83227 282.62237 -991.91444 284.81836 -985.43579 C 286.94352 -979.16611 280.7582 -974.84671 267.66016 -976.8479 C 258.42964 -978.25819 249.17584 -978.99204 233.36524 -975.1975 C 217.55464 -971.40296 176.44531 -942.31079 176.44531 -942.31079 L 120.16016 -946.10571 L 105.61524 -864.52368 L 236.04102 -860.67016 L 286.39649 -861.59594 L 379.54688 -869.82836 L 506.8418 -873.91625 L 615.15821 -873.62328 L 710.04493 -872.45532 L 853.10353 -868.95141 L 937.48048 -867.78539 L 1020.6895 -863.11352 L 1077.6211 -864.5725 L 1147.9824 -870.70336 L 1215.4258 -872.74828 L 1269.4375 -878.87914 L 1322.5742 -883.55102 L 1368.9961 -887.05297 L 1411.9141 -884.135 C 1411.9141 -884.135 1455.1232 -881.50704 1456.291 -881.21508 C 1457.4589 -880.92312 1499.209 -881.21508 1499.209 -881.21508 L 1508.8438 -886.46899 L 1513.5156 -897.27172 L 1512.3477 -909.24243 L 1507.6758 -915.37329 L 1500.377 -918.87719 L 1491.6192 -915.95727 L 1479.9395 -910.70336 L 1471.1817 -912.74633 L 1463.5899 -916.54125 L 1453.0801 -914.7893 L 1437.6055 -903.69555 L 1428.2637 -906.3225 L 1427.3574 -907.43383 C 1425.0846 -908.1341 1424.5955 -909.61143 1424.1973 -911.31274 L 1421.8399 -914.20532 L 1394.9805 -917.41821 L 1362.5723 -922.67211 L 1343.5957 -928.80297 L 1322.2832 -928.21899 L 1303.0137 -925.59204 L 1294.8379 -930.84789 L 1260.6797 -934.64282 L 1226.8125 -930.84789 L 1220.6797 -924.13305 L 1212.7969 -925.885 L 1203.4551 -929.67993 L 1196.1563 -925.59204 L 1184.7695 -922.67211 L 1171.9238 -924.71704 L 1161.7051 -933.47485 L 1141.8516 -924.13305 L 1135.1367 -920.33618 L 1129.5899 -923.2561 L 1128.8067 -926.45727 C 1126.0319 -927.8594 1125.5195 -932.18092 1125.4649 -934.68774 L 1123.4902 -935.90649 C 1120.1875 -934.8583 1113.5273 -932.70049 1108.9238 -930.92993 C 1102.5843 -928.49166 1084.0531 -929.22446 1076.7383 -930.4436 C 1069.4235 -931.66273 1067.4742 -944.82948 1064.0606 -948.73071 C 1060.647 -952.63194 1049.9186 -952.38773 1045.7735 -949.94946 C 1041.6285 -947.51119 1042.604 -939.46404 1033.8262 -934.09985 C 1025.0484 -928.73566 1008.2235 -939.70821 1004.3223 -940.43969 C 1000.421 -941.17117 994.08139 -937.75728 987.49806 -940.19555 C 980.91474 -942.63382 981.40351 -949.9497 977.74611 -951.65649 C 974.08871 -953.36328 970.43022 -948.48549 966.28517 -950.67993 C 962.14011 -952.87437 954.33849 -961.65346 948.73048 -963.8479 C 943.12246 -966.04234 929.22427 -965.30938 922.88478 -967.26 C 916.54528 -969.21061 914.59373 -977.98908 908.49806 -979.93969 C 902.40239 -981.89031 894.11287 -974.57578 889.23634 -974.08813 C 884.3598 -973.60047 866.80473 -978.96508 859.2461 -978.96508 C 851.68747 -978.96508 834.86329 -976.0393 834.86329 -976.0393 L 844.37306 -973.59985 L 849.73634 -969.21118 L 865.82814 -959.45922 L 863.39064 -957.50805 C 863.39064 -957.50805 871.19239 -949.70547 878.01954 -946.77954 C 884.84669 -943.85362 913.61817 -934.10117 920.44532 -933.61352 C 927.27247 -933.12586 941.17224 -935.56319 947.51173 -932.8811 C 953.85123 -930.199 951.65696 -928.00555 950.68165 -926.05493 C 949.70635 -924.10432 938.97804 -927.76031 935.56446 -928.00414 C 932.15088 -928.24797 918.49523 -926.54125 916.30079 -926.54125 C 914.10635 -926.54125 902.40287 -928.73688 898.25782 -928.98071 C 894.11276 -929.22453 884.60342 -924.59204 879.97071 -924.59204 C 875.338 -924.59204 852.41851 -935.56298 848.27345 -937.26977 C 844.12839 -938.97656 823.35939 -935.60571 823.35939 -935.60571 C 823.35939 -935.60571 831.353 -939.76756 834.01759 -941.09985 C 836.68219 -942.43215 841.0125 -945.1734 842.07228 -948.50414 C 843.13206 -951.83488 840.40699 -964.09836 836.77345 -966.67211 C 833.13992 -969.24586 826.78032 -962.88702 821.63282 -962.58422 C 816.48531 -962.28143 811.3379 -962.28149 811.3379 -962.28149 C 811.3379 -962.28149 808.46238 -960.00948 806.19142 -957.73852 C 803.92046 -955.46756 798.77286 -956.07422 796.8047 -957.2854 C 794.83653 -958.49658 796.95497 -962.28119 797.56056 -963.79516 C 798.16615 -965.30914 805.88673 -972.12133 805.88673 -972.12133 L 812.85157 -976.6643 L 810.88282 -980.90258 L 802.70899 -984.08227 C 802.70899 -984.08227 798.01434 -982.56878 794.6836 -981.6604 C 791.35286 -980.75202 781.96747 -982.11328 778.63673 -983.32446 C 775.30599 -984.53564 777.87968 -993.01532 778.93946 -995.74047 C 779.99924 -998.46562 778.93799 -1001.9472 776.51563 -1003.1584 C 774.09328 -1004.3696 766.52404 -1000.1296 763.4961 -998.01 C 760.46815 -995.89043 747.75074 -995.28527 739.1211 -995.89086 C 730.49145 -996.49645 708.53961 -1002.8558 705.81446 -1002.553 C 703.08931 -1002.2502 703.08945 -999.82671 700.2129 -998.31274 C 697.33635 -996.79877 684.16397 -995.74035 679.77345 -996.34594 C 675.38293 -996.95152 656.00417 -1004.8243 649.79688 -1005.7327 C 643.58959 -1006.641 633.29536 -1006.1858 631.17579 -1006.1858 C 629.05623 -1006.1858 610.73712 -1009.9715 606.80079 -1012.2424 C 602.86446 -1014.5134 594.23379 -1028.5933 592.26563 -1031.9241 C 590.29746 -1035.2548 580.60922 -1041.7638 576.52149 -1042.3694 C 572.43376 -1042.975 554.26446 -1035.4065 550.32813 -1035.4065 C 546.3918 -1035.4065 536.40017 -1037.6761 532.61524 -1037.3733 C 528.83031 -1037.0705 514.29694 -1026.6254 513.99415 -1025.717 C 513.69135 -1024.8086 516.41602 -1022.0823 516.41602 -1022.0823 C 516.41602 -1022.0823 506.42295 -1017.2388 505.96876 -1015.4221 C 505.51457 -1013.6053 510.05665 -1012.5452 510.05665 -1012.5452 L 526.10548 -1008.76 L 540.63868 -1004.5217 L 551.23829 -998.91821 L 586.21094 -997.1018 L 599.68555 -994.07446 C 599.68555 -994.07446 576.9751 -990.895 574.55274 -989.68383 C 572.13039 -988.47265 558.04955 -989.38204 554.41602 -989.53344 C 550.78248 -989.68484 542.91016 -991.50024 542.91016 -991.50024 L 540.94337 -993.46899 C 540.94337 -993.46899 529.43564 -988.62453 524.13673 -987.26196 C 518.83783 -985.89938 505.81767 -984.9913 499.45899 -985.74829 C 493.1003 -986.50527 486.86524 -992.64282 486.86524 -992.64282 C 486.86524 -992.64282 478.26332 -1000.1407 473.44141 -1000.4065 C 467.65841 -1000.7253 464.62708 -997.60471 455.98829 -998.36352 C 453.23323 -998.60552 444.08023 -1002.3915 439.52735 -1002.5666 C 434.97448 -1002.7417 421.84116 -999.82305 418.10547 -998.9475 C 414.36978 -998.07195 407.27209 -993.71642 402.64258 -992.34008 C 398.01308 -990.96374 386.75157 -990.58813 381.1211 -990.58813 C 380.96957 -990.58813 380.82678 -990.58831 380.69141 -990.58813 L 360.09961 -995.21899 L 360.09961 -997.59594 C 360.09961 -997.59594 374.11428 -997.09569 379.11915 -997.34594 C 384.12402 -997.59618 413.27615 -1000.7239 418.53126 -1001.5998 C 423.78637 -1002.4756 442.18033 -1012.234 449.56251 -1012.8596 C 456.94469 -1013.4852 466.70364 -1010.6079 472.20899 -1010.3577 C 477.71435 -1010.1075 484.47071 -1014.6116 484.47071 -1014.6116 C 484.47071 -1014.6116 489.24464 -1017.3402 489.36719 -1017.5959 C 489.36754 -1017.5969 489.36896 -1017.6009 489.36915 -1017.6018 L 489.3711 -1017.6038 L 489.36915 -1017.6057 L 489.36915 -1017.6077 L 489.36915 -1017.6096 L 489.36719 -1017.6116 C 489.3664 -1017.6119 489.36229 -1017.6132 489.36133 -1017.6135 C 489.35908 -1017.6139 489.3545 -1017.6155 489.35157 -1017.6155 C 488.9762 -1017.6155 483.09571 -1024.8724 483.09571 -1027.7502 C 483.09571 -1030.628 486.47328 -1031.3777 487.84962 -1032.8791 C 489.22595 -1034.3806 494.35547 -1037.76 494.35547 -1037.76 L 479.0918 -1058.7795 L 478.9668 -1068.9143 L 484.09571 -1075.7971 C 484.09571 -1075.7971 477.33948 -1077.1721 475.7129 -1077.1721 C 474.08632 -1077.1721 468.70556 -1075.1714 466.20313 -1075.9221 C 463.7007 -1076.6728 454.31787 -1081.0522 452.81641 -1081.928 C 451.31495 -1082.8039 443.93201 -1085.4314 441.55469 -1085.9319 C 441.40611 -1085.9632 441.23058 -1085.9768 441.03126 -1085.9768 z "
       transform="matrix(0.26458333,0,0,0.26458333,0,317.50006)" /><path
       id="path11"
       style="opacity:1;fill:#f66d7f;fill-opacity:1;stroke-width:0.529167;stroke-linecap:square;stroke-miterlimit:4.2;paint-order:markers fill stroke"
       inkscape:label="clod top - rose"
       d="M 148.97282 62.015336 L 141.52211 62.295422 C 141.52211 62.295422 141.36181 63.497069 141.8425 63.937699 C 142.32319 64.378329 145.04701 64.89932 146.12855 65.29989 C 147.2101 65.70049 151.99899 65.358285 151.99899 65.358285 L 161.06614 66.559762 L 163.36057 67.215535 L 161.17569 68.489876 L 157.57023 68.162248 L 155.64063 69.036096 L 152.87284 68.999923 C 152.87284 68.999923 153.1278 70.019421 154.73009 70.419991 C 156.33238 70.820561 162.26813 70.638582 162.26813 70.638582 C 162.26813 70.638582 156.95121 71.621532 155.93157 71.694332 C 154.91193 71.767192 148.46659 71.912859 147.19205 71.840059 C 145.9175 71.767229 142.49429 71.039142 141.07408 71.184802 C 139.65387 71.330462 136.85001 72.677802 135.61188 72.823462 C 134.37374 72.969122 128.00097 73.734001 128.00097 73.734001 L 118.64237 73.734001 L 108.26368 75.991744 L 102.25526 73.624447 L 100.76181 75.627425 L 101.27185 76.828902 L 102.43716 77.958032 C 102.43716 77.958032 104.7315 78.212733 106.84361 78.139933 C 108.95572 78.067103 117.37254 77.183066 120.08363 77.307426 C 122.79472 77.431786 129.75926 78.625912 131.37596 78.924382 C 132.99267 79.222862 136.39994 79.123336 136.39994 79.123336 L 145.9761 78.874772 C 145.9761 78.874772 157.06894 78.526287 158.41204 78.600887 C 159.75515 78.675507 162.54085 79.197936 164.67987 79.123336 C 166.81889 79.048716 167.58831 78.714631 168.82845 78.323901 C 170.06858 77.933181 173.36391 75.894267 173.72066 75.673417 C 174.07742 75.452577 175.40251 74.824103 176.69361 74.348433 C 177.98471 73.872763 178.74937 73.940588 179.03817 74.178418 C 179.32697 74.416258 178.66236 75.338107 177.8093 75.604687 C 176.95625 75.871268 176.31657 75.711529 175.89004 76.404639 C 175.46351 77.097749 176.47623 77.843875 176.3696 78.430355 C 176.26296 79.016835 174.55705 79.816541 173.17083 80.296391 C 171.78461 80.776221 163.84023 80.349618 160.69458 80.349618 C 157.54893 80.349618 150.15909 81.829114 147.17861 81.829114 C 144.19813 81.829114 142.49544 81.1198 139.08918 81.0488 C 135.68292 80.97784 130.57344 81.545557 126.17369 81.261707 C 121.77393 80.977857 115.10347 79.132654 111.41335 79.345544 C 107.72324 79.558434 100.91058 81.33252 100.05901 81.54541 C 99.207446 81.75827 94.452891 81.829114 93.246505 81.829114 C 92.040121 81.829114 87.356425 83.248665 87.356425 83.248665 C 87.356425 83.248665 89.982229 80.693888 91.68536 79.771358 C 93.388488 78.848828 95.304491 77.642715 96.085091 76.365365 C 96.865694 75.088015 95.800825 73.739634 95.16215 73.100964 C 94.523478 72.462284 92.536878 73.100924 91.046639 72.462244 C 89.5564 71.823574 88.775518 69.268532 87.214315 67.778292 C 85.653112 66.288062 81.821433 64.940205 78.060352 64.727315 C 74.299274 64.514425 64.080217 68.913937 62.589978 68.984937 C 61.099739 69.055897 58.048378 67.920402 56.629102 67.920402 C 55.209827 67.920402 53.861386 69.26882 52.513074 69.41075 C 51.16476 69.55268 46.978217 69.623623 45.133162 69.197843 C 44.485684 69.048426 43.541041 68.522703 42.587581 67.903866 L 42.587065 67.903866 L 36.342485 67.483219 L 37.033915 89.030225 L 62.452519 89.781083 L 75.775736 89.536137 L 100.42178 87.357975 L 134.10189 86.276388 L 162.76061 86.353902 L 187.86605 86.662927 L 225.71697 87.590002 L 248.04171 87.898511 L 270.05742 89.134611 L 285.12058 88.748588 L 303.73702 87.126465 L 321.5814 86.585413 L 335.87201 84.963289 L 349.9311 83.727189 L 362.21355 82.800631 L 373.56893 83.572677 C 373.56893 83.572677 385.00135 84.267992 385.31033 84.345239 C 385.61934 84.422487 396.66571 84.345239 396.66571 84.345239 L 398.87953 83.138078 L 400.09031 79.203434 L 392.68766 80.22301 C 392.68766 80.22301 385.1538 81.763315 382.33377 81.322685 C 379.51375 80.882055 372.02329 79.25201 372.02329 79.25201 L 361.35986 79.207568 L 360.25863 79.648368 L 357.92286 78.855135 C 357.92286 78.855135 353.73716 78.590967 352.54747 78.458777 C 351.35777 78.326587 346.02591 78.458777 346.02591 78.458777 C 346.02591 78.458777 342.67752 79.251668 340.78282 79.207568 C 338.88811 79.163468 336.90509 78.546763 335.2307 79.163643 C 333.55631 79.780533 333.31661 81.36816 333.31661 81.36816 L 327.46218 81.602254 L 316.29956 83.94423 L 293.70249 86.035059 L 292.31807 86.456222 L 283.77131 86.396277 L 283.0189 86.095003 C 283.0189 86.095003 271.43201 86.215806 271.43201 85.613896 C 271.43201 85.011986 272.78607 85.403207 272.87637 84.861487 C 272.96666 84.319767 270.52876 83.868224 269.50551 83.627454 C 268.48226 83.386694 266.15432 82.695997 264.28826 82.536047 C 262.4222 82.376097 258.1568 82.642428 257.57032 82.695728 C 256.98384 82.749038 251.17234 83.068808 249.89276 83.388708 C 248.61317 83.708598 242.26853 82.482304 240.34915 82.482304 C 238.42977 82.482304 225.36749 83.761886 223.60806 83.708586 C 221.84862 83.655276 217.68129 82.694177 217.68129 82.694177 L 207.87 82.934989 L 201.15878 82.243042 L 194.62791 80.828658 C 194.62791 80.828658 189.6624 78.541018 188.75954 78.270158 C 187.85667 77.999298 182.01783 76.916235 182.01783 76.916235 L 182.18009 76.315755 C 182.18009 76.315755 184.50356 74.873813 185.34476 74.433183 C 186.18597 73.992553 189.45257 73.924869 190.57183 73.477169 C 191.69108 73.029469 191.86532 72.482423 192.2384 72.283443 C 192.61149 72.084463 200.99362 70.666513 201.49106 70.467533 C 201.98851 70.268563 202.12151 68.993722 202.12151 68.993722 L 199.4023 68.460421 L 198.49589 68.993722 L 187.43197 69.4955 C 187.43197 69.4955 180.57505 66.523758 178.40358 66.295178 C 176.23211 66.066598 167.27868 65.660592 167.27868 65.660592 C 165.23576 65.300072 163.19292 64.338258 161.75085 64.017798 C 160.3088 63.697348 154.42055 63.177022 154.42055 63.177022 L 148.97282 62.015336 z " /><path
       style="opacity:1;fill:#e37981;fill-opacity:1;stroke-width:0.529167;stroke-linecap:square;stroke-miterlimit:4.2;paint-order:markers fill stroke"
       d="m 141.17156,100.1479 c 0,0 1.22624,-0.383203 3.83201,-0.996323 2.60578,-0.61313 15.9412,-5.28819 19.23674,-5.74803 3.29553,-0.45984 20.84618,-2.06929 22.9921,-1.99265 2.14593,0.0766 6.36115,0.22992 8.04724,0.68976 1.68609,0.45985 7.12756,2.37585 9.35013,3.29554 2.22257,0.91968 11.26613,2.52913 13.4887,2.68241 2.22257,0.15328 11.64934,1.07297 13.48871,0.61313 1.83937,-0.45985 3.75537,-1.22625 3.90866,-0.22993 0.15328,0.99633 0.3832,1.53281 -2.22258,1.992653 -2.60577,0.45984 -18.2404,2.22257 -20.61625,3.37218 -2.37585,1.1496 -6.13123,2.06929 -7.2042,2.52913 -1.07296,0.45984 -2.91233,1.37953 -2.91233,2.14593 0,0.76641 5.28818,4.21522 5.28818,4.21522 h -66.44719 z"
       id="path24"
       inkscape:label="passion pink 2" /><path
       style="opacity:1;fill:#e37981;fill-opacity:1;stroke-width:2;stroke-linecap:square;stroke-miterlimit:4.2;paint-order:markers fill stroke"
       d="m 420.28074,-765.0721 106.8726,17.8121 c 0,0 37.74469,-3.39278 56.40498,-4.24098 18.6603,-0.84819 61.49416,2.96868 80.57855,3.39278 19.08439,0.4241 57.25318,-0.4241 75.91347,-0.4241 18.6603,0 99.66294,-6.78556 116.62685,-10.60244 16.9639,-3.81688 55.13269,-11.45063 66.15923,-11.45063 11.02654,0 25.86995,3.39278 44.95435,3.81688 19.08439,0.42409 31.38322,2.54458 44.10613,-0.4241 12.7229,-2.96868 43.6821,-10.60244 52.164,-11.87473 8.482,-1.2723 24.1736,2.96868 34.3519,1.69639 10.1784,-1.2723 21.2049,0.42409 27.1423,-2.12049 5.9373,-2.54459 11.8747,-4.66508 11.8747,-4.66508 l -39.8652,-13.14702 -0.8482,-5.51327 c 0,0 41.5616,-4.24098 49.1954,-5.08917 7.6337,-0.8482 83.9713,-0.4241 83.9713,-0.4241 l 24.1736,-8.90605 -80.1545,-11.02654 -144.6173,3.81688 c 0,0 -8.4819,-5.93737 -14.4193,-0.4241 -5.9374,5.51327 -5.5133,11.87474 -5.5133,11.87474 l -57.25315,5.08917 c 0,0 -25.02176,-3.81688 -29.68683,0 -4.66507,3.81688 -36.56598,24.23215 -38.14597,25.81213 -1.57999,1.57999 -18.43319,11.32325 -28.7031,14.48322 -10.26992,3.15998 -21.8565,4.47664 -28.70311,3.94997 -6.84661,-0.52666 -103.48918,-1.05332 -111.91578,-0.78999 -8.4266,0.26333 -47.66296,-0.26333 -67.14947,0 -19.48652,0.26333 -53.71958,-0.79 -72.4161,-1.05333 -18.69652,-0.26333 -72.41609,-1.05332 -88.4793,-0.26333 -16.06321,0.79 -66.61875,0.69519 -66.61875,0.69519 z"
       id="path25"
       transform="matrix(0.26458333,0,0,0.26458333,0,317.49989)"
       inkscape:label="passion pink 3" /><path
       style="display:inline;opacity:1;fill:#e37981;fill-opacity:1;stroke-width:0.529167;stroke-linecap:square;stroke-miterlimit:4.2;paint-order:markers fill stroke"
       d="m 72.731939,89.613327 c 0,0 15.70928,-2.65222 21.115723,-2.95824 5.40644,-0.30603 18.157478,0.20401 22.237818,1.02008 4.08033,0.81607 11.73095,0.81607 13.66911,2.75422 1.93816,1.93816 -1.42811,3.87632 -3.57029,4.28435 -2.14217,0.40804 -4.79439,0.71406 -13.66911,2.04017 -8.87473,1.32611 -35.804929,2.95824 -38.457144,3.570293 -2.652218,0.61205 -11.52694,0.30603 -11.934975,-2.550213 -0.408033,-2.85623 10.608868,-8.16066 10.608868,-8.16066 z"
       id="path23"
       inkscape:label="passion pink 1" /><path
       style="display:inline;fill:#67427b;fill-opacity:1;stroke-width:0.529167;stroke-linecap:square;stroke-miterlimit:4.2;paint-order:markers fill stroke"
       d="M 0.20036008,71.643823 1.8032408,65.232339 8.2147634,59.221565 19.234568,56.21618 l 4.808642,2.003591 6.010803,6.812211 3.038474,-0.606277 4.976315,0.746434 1.244077,4.354256 -1.990524,4.976283 4.105457,0.373227 2.239344,2.736955 0.373221,1.990508 -5.971575,4.105436 1.492893,0.995264 2.612565,-1.617298 3.732236,-0.37322 2.363748,1.368484 -0.124407,2.363735 1.368486,0.622027 12.689602,-7.713235 9.82822,0.497627 3.483419,1.617291 6.095984,4.603063 -2.488157,2.114928 -3.607827,3.483389 2.114934,1.866111 3.483419,-4.105436 7.215653,-2.488138 3.60783,2.239328 2.114933,1.866108 3.48342,-1.368481 3.607827,-0.497627 15.67539,5.2251 -0.99527,1.368484 v 3.110172 l 0.87086,0.622033 1.36849,-0.995253 0.99526,-1.866108 7.9621,-4.851883 5.97158,0.746447 0.62204,1.368481 4.47868,0.373217 3.35901,2.612545 2.23934,2.985774 3.98105,1.741707 3.1102,0.37322 -1.24408,4.10546 2.61257,0.99527 1.6173,-3.73224 4.35428,-2.73697 2.48815,2.61256 2.86138,0.37323 -0.1244,-0.12441 2.98578,-0.87086 7.96211,1.11967 2.98578,3.35902 -3.98105,2.36374 -1.74171,2.86139 1.4929,0.87085 4.7275,-3.35901 5.22513,-1.11967 0.49763,-1.6173 6.46921,0.87085 8.70854,3.48342 0.74645,1.49289 2.86138,-0.74644 2.23934,-2.73698 3.73224,0.62204 2.73697,-1.36848 6.22039,-5.10072 4.47869,-1.86612 9.08177,3.11019 2.36375,-1.11967 2.36375,1.86612 2.11493,-0.74645 0.37322,3.60783 1.99053,0.87086 2.48816,-0.74645 7.34006,1.24408 0.99526,1.49289 2.11494,0.62204 4.60309,0.37323 3.98105,0.49763 2.98579,1.24408 -4.60309,1.49289 -16.04862,0.62204 -21.52255,0.37322 -6.96684,-2.23934 -20.90052,0.99526 -9.95263,-1.24407 -8.45973,2.73697 -8.95737,-0.37323 -25.25479,0.24882 -19.28322,-5.72276 -1.24408,0.99526 1.11967,1.6173 -7.34006,0.37323 -6.96684,-1.4929 -0.49763,-1.6173 -15.550982,-2.98579 0.995263,1.6173 -4.478683,1.11968 1.990526,2.36374 5.847169,0.24882 1.244078,0.87086 -21.646965,0.24881 -6.842432,-1.11967 -5.598353,1.36849 -20.776111,-1.4929 -15.177758,0.12441 -3.110196,-1.86612 1.990526,-0.24881 6.842432,-0.37323 1.11967,-0.99526 -1.244078,-1.6173 -4.603091,0.62204 -9.081773,-3.98105 -5.225129,-0.49764 -0.870855,-1.7417 2.488157,-1.36849 0.497631,-1.741704 -1.368486,-1.49289 6.220392,-2.861365 1.74171,-1.741701 -4.727498,0.622037 -8.8329575,6.344763 -0.3732235,2.86138 1.866118,2.61257 3.359012,2.73697 -1.74171,0.99526 2.488157,0.99527 -8.3353262,1.11967 -7.58887874,-3.1102 z"
       id="path9"
       inkscape:label="cloud middle left" /><path
       id="path21"
       style="opacity:1;fill:#8e558a;fill-opacity:1;stroke-width:0.529167;stroke-linecap:square;stroke-miterlimit:4.2;paint-order:markers fill stroke"
       inkscape:label="cloud middle left - light"
       d="M 19.03243 59.605664 C 17.082207 59.569876 15.915888 60.619235 14.007414 61.000928 C 11.8263 61.437158 9.3543692 61.922154 7.900293 62.552254 C 6.4462168 63.182354 5.379861 64.393626 4.3620076 64.926786 C 3.3441545 65.459946 3.829248 66.865968 2.6659871 67.932288 C 2.0955098 68.455224 1.314785 69.175931 0.66765951 69.775069 C 0.66748567 69.77523 0.66731656 69.775425 0.66714274 69.775586 L 0.20050456 71.643689 L 0.1550293 73.206901 L 8.7731079 73.118534 C 8.7731079 73.118534 4.3137597 74.233018 3.0535604 74.620768 C 2.434923 74.811116 1.1872451 75.370986 0.076997884 75.891492 L -0.87074788 108.46573 L 6.7179362 111.57614 L 15.053345 110.45631 L 12.565125 109.46102 L 14.307137 108.46573 L 10.947652 105.72895 L 9.0816162 103.11619 L 9.4552368 100.25486 L 18.287773 93.91003 L 23.015649 93.288363 L 21.273637 95.029858 L 15.053345 97.891182 L 16.421737 99.384115 L 15.924093 101.12561 L 13.435872 102.49452 L 14.307137 104.23601 L 19.532141 104.73366 L 28.613757 108.71481 L 33.217094 108.09263 L 34.460946 109.7101 L 33.341117 110.70539 L 26.498641 111.07849 L 24.508582 111.32705 L 27.618469 113.19361 L 42.796354 113.06907 L 63.572347 114.562 L 69.170972 113.19361 L 76.013448 114.31292 L 97.660189 114.06436 L 96.416337 113.19361 L 90.569149 112.94453 L 88.578573 110.58085 L 93.056852 109.46102 L 92.061564 107.84406 L 107.61255 110.82941 L 108.1102 112.44688 L 115.07721 113.93982 L 122.41733 113.56671 L 121.29751 111.94924 L 122.54187 110.95395 L 141.82493 116.6766 L 167.07972 116.42804 L 176.03732 116.80114 L 184.49675 114.06436 L 194.44963 115.30821 L 215.35016 114.31292 L 222.31666 116.55258 L 243.83938 116.17896 L 259.88801 115.55729 L 263.92188 114.24884 L 264.00197 113.86075 L 261.50549 112.81999 L 257.52433 112.32234 L 252.921 111.94924 L 250.8064 111.32705 L 250.49479 110.8599 C 250.19858 110.73015 249.90383 110.60344 249.62921 110.49713 C 248.94351 110.2317 247.11316 109.51951 245.88783 109.16956 C 245.88622 109.1691 245.88531 109.16899 245.8837 109.16853 L 243.37274 108.74323 C 243.3717 108.7431 243.3712 108.74285 243.37016 108.74272 C 243.04454 108.70004 242.70766 108.6575 242.38004 108.61766 C 242.37983 108.61763 242.37973 108.61768 242.37952 108.61766 L 239.98277 109.33648 L 237.99219 108.46573 L 237.87385 107.32265 C 237.76393 107.25545 237.70022 107.21413 237.70022 107.21413 L 236.4419 107.46062 L 235.67554 106.85859 L 233.45965 106.99502 C 233.45965 106.99502 223.52808 104.47839 223.14504 104.45099 C 222.76201 104.42363 221.91355 104.56032 220.40877 104.83391 C 218.90399 105.10751 215.84006 107.02241 215.84006 107.02241 L 213.26812 107.51488 L 211.65375 108.71895 L 209.5438 109.44087 L 208.25861 110.0832 L 207.86018 110.01654 L 206.45562 110.49713 L 205.79881 110.25115 C 205.79881 110.25115 204.61454 110.59308 203.27235 110.99426 L 202.28739 112.19832 L 199.42555 112.94453 L 199.10154 112.2965 C 197.92873 112.46815 195.75081 112.24276 194.93694 112.05673 C 193.97936 111.83785 192.0371 110.77076 191.2984 110.52452 C 190.55969 110.27829 189.43805 110.08682 189.43805 110.08682 L 185.63466 109.4574 C 185.63466 109.4574 181.88688 109.6218 181.20289 109.7039 C 180.5189 109.78598 178.57606 110.49725 177.97415 110.60669 C 177.37224 110.71613 176.74322 110.82579 176.74322 110.82579 C 176.74322 110.82579 176.64527 110.78292 176.49982 110.74311 L 173.05145 113.19361 L 171.55852 112.32234 L 171.66497 112.14716 C 170.66613 112.31956 169.55776 112.47828 169.21913 112.49443 C 168.64458 112.52179 168.26173 112.30302 167.93342 112.1115 C 167.6051 111.91998 167.90566 111.56431 168.04246 111.12655 C 168.17925 110.6888 168.97275 110.22394 169.08219 109.89562 C 169.19163 109.56731 170.03989 107.95292 170.17669 107.29629 C 170.31349 106.63966 168.58963 105.46325 168.01507 105.40855 C 167.44052 105.35385 167.38604 105.70953 166.78413 105.43594 C 166.18222 105.16234 165.99095 104.88883 165.5532 104.53315 C 165.11545 104.17747 164.45875 104.47845 163.52852 104.53315 C 162.59829 104.58787 160.3189 105.95859 159.68689 106.28964 C 159.05488 106.62069 156.19606 105.92832 155.71453 106.0788 C 155.233 106.22928 154.29985 106.77076 154.11927 106.89115 C 153.9387 107.01153 152.73486 107.13196 152.73486 107.13196 L 151.74164 107.28234 L 151.44915 106.83017 L 151.30963 106.77694 L 151.30911 106.77694 C 150.76623 106.80818 148.20983 106.95472 147.6189 106.98158 C 146.9568 107.01168 144.97051 106.68056 143.82688 105.98836 C 142.68325 105.29616 140.15217 100.38715 140.15217 100.38715 C 139.26672 98.854783 134.88376 96.748617 134.88376 96.748617 L 132.40742 96.675753 C 132.40742 96.675753 127.25628 96.291604 126.23002 96.490234 C 125.20376 96.688864 123.15101 97.91392 122.75375 97.91392 C 122.35649 97.91392 121.86016 97.715047 121.4298 97.615747 C 120.99943 97.516437 121.19809 97.980069 120.86704 98.509749 C 120.53599 99.039429 121.4298 99.50297 121.4298 99.50297 L 125.36909 102.68107 C 125.36909 102.68107 124.37597 102.58185 123.74697 102.58185 C 123.11798 102.58185 122.25729 102.11803 121.56209 101.88629 C 120.86688 101.65456 119.31106 100.36338 119.31106 100.36338 L 111.59732 101.22431 C 111.59732 101.22431 107.16138 102.05204 106.13512 102.18446 C 105.10886 102.31686 104.94334 102.05195 104.01639 102.28368 C 103.08945 102.51542 103.15559 103.24357 102.49349 103.50841 C 101.83138 103.77325 100.57312 103.34305 100.10965 103.34305 C 99.646172 103.34305 99.61343 103.30991 99.74585 102.84644 C 99.878271 102.38297 100.37469 102.28355 100.97058 101.88629 C 101.56647 101.48903 102.62566 100.9262 103.81744 100.33031 C 105.00923 99.734419 106.06872 99.138685 106.33356 98.575895 C 106.5984 98.013105 105.87008 96.324579 105.27419 95.563159 C 104.6783 94.801749 102.8367 94.040602 101.93383 93.829932 C 101.03096 93.619262 98.32239 93.438427 97.50981 93.137467 C 96.69723 92.836517 95.342704 92.264653 94.409741 92.264653 C 93.476779 92.264653 88.932565 93.529073 87.668551 93.679553 C 86.404538 93.830033 80.71652 93.799959 80.71652 93.799959 L 79.362081 94.311556 L 78.489266 95.966752 L 80.163582 99.936536 C 80.163582 99.936536 83.146007 100.3745 83.802637 100.62073 C 84.459268 100.86697 85.827319 102.69967 85.827319 102.69967 L 85.526046 103.60298 C 85.526046 103.60298 84.732549 103.5208 83.99384 103.5482 C 83.25513 103.57556 82.297786 102.97325 81.777954 102.67229 C 81.258121 102.37134 77.290853 100.48368 76.278548 100.37424 C 75.266243 100.2648 71.928476 100.75723 70.99825 100.81193 C 70.068023 100.86665 65.115745 100.83949 64.459115 101.00365 C 63.802484 101.16781 62.626152 102.2072 62.626152 102.2072 L 61.969344 102.80923 L 61.586422 102.69967 L 61.695976 101.96122 C 61.695976 101.96122 63.556533 100.42916 64.240523 100.07348 C 64.924513 99.717807 67.249876 98.43154 67.961226 97.77491 C 68.672575 97.11827 70.013417 93.698404 70.615328 92.467224 C 71.217239 91.236044 70.670044 88.801159 70.122852 88.171879 C 69.57566 87.542609 67.988755 86.913323 67.633081 86.201973 C 67.277406 85.490623 67.140287 84.01348 66.839331 83.521 C 66.538375 83.02853 64.349549 82.015944 62.872131 81.797074 C 61.394712 81.578194 58.494812 85.025643 57.208911 85.353963 C 56.386209 85.564012 53.760691 85.639391 51.725008 85.723966 L 51.724491 85.723966 L 49.51429 87.067554 L 48.208944 86.474308 C 46.993463 87.318807 45.402484 88.822047 45.362089 89.266386 C 45.30737 89.868296 46.921919 90.907972 47.633268 91.236292 C 48.344618 91.564612 53.569857 92.686332 53.569857 92.686332 C 53.569857 92.686332 49.466025 93.452111 48.782035 93.370011 C 48.098045 93.287931 46.046166 92.713464 45.444255 92.467224 C 44.842344 92.220994 39.644082 92.412846 38.166663 92.795886 C 36.689244 93.178916 34.418589 94.519178 32.96853 94.902218 C 31.518471 95.285248 27.031302 95.695888 25.936918 96.106278 C 24.842534 96.516668 23.939534 98.267507 23.364982 98.869417 C 22.790431 99.471307 22.297889 99.088212 21.832776 98.787252 C 21.367662 98.486292 22.407594 97.091121 23.064225 96.489201 C 23.720855 95.887291 26.675844 93.889841 28.098543 93.370011 C 29.521243 92.850181 32.667434 91.947756 33.324064 91.345846 C 33.980695 90.743936 34.801294 87.952882 35.10225 87.077372 C 35.403205 86.201862 36.005384 85.38106 36.3337 84.61499 C 36.662016 83.84892 36.470557 81.085972 36.388477 80.566142 C 36.306398 80.046302 35.62226 79.334851 35.759058 78.514071 C 35.895856 77.693281 36.360802 76.981868 36.579679 76.489388 C 36.798556 75.996918 35.047585 75.887281 34.664551 75.832581 C 34.281516 75.777781 29.602841 75.859892 29.110368 75.805192 C 28.617895 75.750482 25.991601 75.340027 24.924577 75.285327 C 23.857552 75.230607 21.477239 76.106295 20.984766 75.942135 C 20.492294 75.777975 19.945187 75.559206 21.066931 75.066736 C 22.188674 74.574256 23.310614 74.027171 24.186121 73.698861 C 25.061629 73.370541 28.700411 72.877925 30.013672 72.576965 C 31.326932 72.276015 30.150268 71.64659 29.821952 71.45507 C 29.493637 71.26355 28.754947 70.00488 28.371912 69.37561 C 27.988878 68.74634 27.489795 66.534957 27.489795 66.534957 C 27.489795 66.534957 26.681632 65.609645 26.003064 64.300985 C 25.324495 62.992315 22.441146 60.1287 19.920748 59.69248 C 19.605698 59.637952 19.311033 59.610777 19.03243 59.605664 z " /><path
       style="opacity:1;fill:#f87793;fill-opacity:1;stroke-width:2;stroke-linecap:square;stroke-miterlimit:4.2;paint-order:markers fill stroke"
       d="m 1491.9057,-813.97358 18.1996,1.81995 c 0,0 6.8248,-1.13747 7.9623,-1.70621 1.1374,-0.56873 1.0237,-1.81995 2.5024,-2.16119 1.4787,-0.34124 4.5499,1.13747 8.4173,0.45499 3.8674,-0.68248 41.2901,-16.15208 41.2901,-16.15208 l 5.0049,-1.81995 c 0,0 1.6278,-2.90865 4.6648,-4.10933 3.037,-1.20067 4.3789,-1.48318 4.9439,-1.76569 0.565,-0.28252 1.2007,-0.9888 1.2007,-0.9888 0,0 -5.4384,-3.95516 -5.5796,-4.23767 -0.1413,-0.28251 -15.2742,-0.04 -15.2742,-0.04 0,0 -4.1004,1.35072 -4.7757,0.9648 -0.6754,-0.38592 -0.4737,-2.25281 -0.4737,-2.25281 l 15.4076,-5.79075 5.3771,-0.41363 10.444,5.48054 1.7579,-0.93066 11.7884,7.75548 23.5766,6.92823 1.1375,4.03285 -12.9258,-2.68857 -2.9988,0.62044 -10.2372,-1.96472 -7.7555,0.51703 -6.3078,2.79197 -2.2749,3.51582 -14.5803,4.65328 -14.1667,5.37714 -6.3078,0.82725 c 0,0 8.9964,0.20681 11.3747,-0.10341 2.3784,-0.31022 14.1667,2.99878 17.8893,3.309 3.7226,0.31022 7.6521,0.10341 11.3747,-0.31022 3.7226,-0.41362 6.101,-3.309 6.101,-3.309 0,0 7.4452,0.82725 13.1326,0.10341 5.6873,-0.72385 31.6423,-8.16911 31.6423,-8.16911 l 2.9988,-1.34428 4.1363,0.10341 v 2.27494 l -4.5499,0.31022 -1.5511,3.309 -9.41,2.89538 -7.135,1.6545 -0.517,1.24088 4.0328,1.03406 c 0,0 23.0596,-1.83311 27.589,-1.91857 4.5294,-0.0855 31.4492,1.45281 35.2094,1.53827 3.7603,0.0855 26.9199,3.16202 31.0219,3.07656 4.1021,-0.0855 11.879,1.11098 14.9555,-0.8546 3.0766,-1.96558 3.0766,-2.82017 3.0766,-2.82017 l -12.6481,0.94005 c 0,0 -2.3074,0 -4.7857,-0.51275 -2.4784,-0.51276 -14.7846,-3.76024 -17.7757,-4.70029 -2.9911,-0.94006 -15.2118,-8.88782 -18.1175,-10.34064 -2.9056,-1.45282 -15.5536,-6.92225 -15.5536,-6.92225 l -0.4273,-2.82017 2.2219,0.4273 4.8712,0.17092 27.7745,10.25518 21.8777,6.92224 c 0,0 2.9056,1.79466 6.2385,2.30742 3.333,0.51275 23.5869,-2.5638 23.5869,-2.5638 0,0 9.9988,-0.34184 13.93,0.17092 3.9312,0.51276 19.3139,5.81127 22.4759,6.23857 0,0 26.3139,-0.85441 33.8838,-0.70301 7.5698,0.1514 27.1001,3.33074 29.5224,3.33074 2.4224,0 9.8409,-1.05978 14.5342,-1.81677 4.6933,-0.75698 12.7173,-0.90838 12.7173,-0.90838 l 0.9084,-3.33074 7.2671,-2.57375 -9.3866,-4.23913 -18.0163,-2.27096 c 0,0 -4.6933,-3.63353 -12.4146,-4.69331 -7.7212,-1.05978 -12.8688,1.96816 -23.0124,1.21118 -10.1436,-0.75699 -17.8648,-2.87655 -17.5621,-3.93633 0.3028,-1.05978 13.1716,-2.11956 18.0163,-1.66537 4.8447,0.45419 10.1436,2.72515 16.5023,2.42235 6.3587,-0.30279 22.861,-1.36257 29.5225,0.4542 6.6615,1.81676 10.9006,2.27096 13.7771,4.23912 2.8766,1.96816 10.4465,6.66148 12.566,7.26707 2.1196,0.60559 12.566,1.36257 12.566,1.36257 l -3.8344,13.79412 -76.3952,0.35699 -49.6211,-1.42795 -58.9029,3.21288 c 0,0 -50.6585,-4.47678 -58.1693,-3.56082 -7.5108,0.91595 -37.7373,2.01509 -45.4313,2.38148 -7.694,0.36638 -27.2954,-0.54958 -33.8903,-1.46553 -6.5948,-0.91595 -21.9829,-4.03019 -28.0281,-4.39658 -6.0453,-0.36638 -30.1099,-0.2498 -40.7683,1.58211 -10.6584,1.8319 -25.3136,2.49805 -28.3113,2.33151 -2.9977,-0.16653 -9.9922,0.66615 -10.3253,-1.49883 -0.3331,-2.16498 7.2284,-5.76954 7.2284,-5.76954 z"
       id="path22"
       transform="matrix(0.26458333,0,0,0.26458333,0,317.47353)" /><rect
       style="opacity:1;fill:#f39e7f;fill-opacity:1;stroke-width:0.529167;stroke-linecap:square;stroke-miterlimit:4.2;paint-order:markers fill stroke"
       id="rect22"
       width="33.914772"
       height="17.799242"
       x="-46.067612"
       y="15.635271" /></g></svg>
