<?xml version="1.0" encoding="UTF-8" standalone="no"?>
<!-- Created with Inkscape (http://www.inkscape.org/) -->

<svg
   width="1920"
   height="1200"
   viewBox="0 0 508 317.5"
   version="1.1"
   id="svg1"
   inkscape:version="1.4.3 (0d15f75, 2025-12-25)"
   xml:space="preserve"
   sodipodi:docname="sunset_06_007.svg"
   xmlns:inkscape="http://www.inkscape.org/namespaces/inkscape"
   xmlns:sodipodi="http://sodipodi.sourceforge.net/DTD/sodipodi-0.dtd"
   xmlns:xlink="http://www.w3.org/1999/xlink"
   xmlns="http://www.w3.org/2000/svg"
   xmlns:svg="http://www.w3.org/2000/svg"><sodipodi:namedview
     id="namedview1"
     pagecolor="#ffffff"
     bordercolor="#000000"
     borderopacity="0.25"
     inkscape:showpageshadow="2"
     inkscape:pageopacity="0.0"
     inkscape:pagecheckerboard="0"
     inkscape:deskcolor="#d1d1d1"
     inkscape:document-units="px"
     inkscape:zoom="0.23751057"
     inkscape:cx="507.34584"
     inkscape:cy="-162.09805"
     inkscape:window-width="1920"
     inkscape:window-height="1016"
     inkscape:window-x="0"
     inkscape:window-y="0"
     inkscape:window-maximized="1"
     inkscape:current-layer="layer1" /><defs
     id="defs1"><inkscape:path-effect
       effect="powerstroke"
       message=""
       id="path-effect26"
       is_visible="true"
       lpeversion="1.3"
       scale_width="1"
       interpolator_type="CubicBezierJohan"
       interpolator_beta="0.2"
       start_linecap_type="zerowidth"
       end_linecap_type="zerowidth"
       offset_points="0,0.5772388"
       linejoin_type="extrp_arc"
       miter_limit="4"
       not_jump="false"
       sort_points="true" /><inkscape:path-effect
       effect="spiro"
       id="path-effect25"
       is_visible="true"
       lpeversion="1" /><inkscape:path-effect
       effect="powerstroke"
       message=""
       id="path-effect23"
       is_visible="true"
       lpeversion="1.3"
       scale_width="1"
       interpolator_type="CubicBezierJohan"
       interpolator_beta="0.2"
       start_linecap_type="zerowidth"
       end_linecap_type="zerowidth"
       offset_points="0,0.5772388"
       linejoin_type="extrp_arc"
       miter_limit="4"
       not_jump="false"
       sort_points="true" /><inkscape:path-effect
       effect="spiro"
       id="path-effect22"
       is_visible="true"
       lpeversion="1" /><inkscape:path-effect
       effect="powerstroke"
       message=""
       id="path-effect20"
       is_visible="true"
       lpeversion="1.3"
       scale_width="1"
       interpolator_type="CubicBezierJohan"
       interpolator_beta="0.2"
       start_linecap_type="zerowidth"
       end_linecap_type="zerowidth"
       offset_points="0,0.5772388"
       linejoin_type="extrp_arc"
       miter_limit="4"
       not_jump="false"
       sort_points="true" /><inkscape:path-effect
       effect="spiro"
       id="path-effect19"
       is_visible="true"
       lpeversion="1" /><inkscape:path-effect
       effect="powerstroke"
       message=""
       id="path-effect14"
       is_visible="true"
       lpeversion="1.3"
       scale_width="1"
       interpolator_type="CubicBezierJohan"
       interpolator_beta="0.2"
       start_linecap_type="zerowidth"
       end_linecap_type="zerowidth"
       offset_points="0,0.5772388"
       linejoin_type="extrp_arc"
       miter_limit="4"
       not_jump="false"
       sort_points="true" /><inkscape:path-effect
       effect="spiro"
       id="path-effect13"
       is_visible="true"
       lpeversion="1" /><inkscape:path-effect
       effect="powerstroke"
       message=""
       id="path-effect11"
       is_visible="true"
       lpeversion="1.3"
       scale_width="1"
       interpolator_type="CubicBezierJohan"
       interpolator_beta="0.2"
       start_linecap_type="zerowidth"
       end_linecap_type="zerowidth"
       offset_points="0,0.5772388"
       linejoin_type="extrp_arc"
       miter_limit="4"
       not_jump="false"
       sort_points="true" /><inkscape:path-effect
       effect="spiro"
       id="path-effect10"
       is_visible="true"
       lpeversion="1" /><inkscape:path-effect
       effect="powerstroke"
       message=""
       id="path-effect6"
       is_visible="true"
       lpeversion="1.3"
       scale_width="1"
       interpolator_type="CubicBezierJohan"
       interpolator_beta="0.2"
       start_linecap_type="zerowidth"
       end_linecap_type="zerowidth"
       offset_points="0,0.5772388"
       linejoin_type="extrp_arc"
       miter_limit="4"
       not_jump="false"
       sort_points="true" /><inkscape:path-effect
       effect="spiro"
       id="path-effect5"
       is_visible="true"
       lpeversion="1" /><linearGradient
       id="linearGradient16"
       inkscape:collect="always"><stop
         style="stop-color:#ca658f;stop-opacity:1;"
         offset="0"
         id="stop16" /><stop
         style="stop-color:#e8708c;stop-opacity:1;"
         offset="1"
         id="stop17" /></linearGradient><linearGradient
       id="linearGradient13"
       inkscape:collect="always"><stop
         style="stop-color:#7d557a;stop-opacity:1;"
         offset="0"
         id="stop14" /><stop
         style="stop-color:#7d557a;stop-opacity:0;"
         offset="1"
         id="stop15" /></linearGradient><linearGradient
       id="linearGradient8"
       inkscape:collect="always"><stop
         style="stop-color:#fddc7b;stop-opacity:1;"
         offset="0.71362019"
         id="stop11" /><stop
         style="stop-color:#fddc7b;stop-opacity:0;"
         offset="1"
         id="stop12" /></linearGradient><linearGradient
       id="linearGradient4"
       inkscape:collect="always"><stop
         style="stop-color:#ffffff;stop-opacity:0.8037402;"
         offset="0"
         id="stop4" /><stop
         style="stop-color:#ffffff;stop-opacity:0.40392157;"
         offset="0.2626459"
         id="stop13" /><stop
         style="stop-color:#ffffff;stop-opacity:0;"
         offset="0.52871925"
         id="stop5" /></linearGradient><linearGradient
       id="linearGradient5"><stop
         style="stop-color:#fdd57d;stop-opacity:1;"
         offset="0.00022799"
         id="stop8" /><stop
         style="stop-color:#ffd16e;stop-opacity:1;"
         offset="0.30471653"
         id="stop1" /><stop
         style="stop-color:#c67281;stop-opacity:0.7952891;"
         offset="0.62660164"
         id="stop9" /><stop
         style="stop-color:#2a4687;stop-opacity:0.0027248;"
         offset="1"
         id="stop10" /></linearGradient><radialGradient
       inkscape:collect="always"
       xlink:href="#linearGradient5"
       id="radialGradient2"
       cx="255.03188"
       cy="120.64713"
       fx="255.03188"
       fy="120.64713"
       r="254"
       gradientTransform="matrix(2.1564986,0,0,0.71818443,-293.99192,55.830269)"
       gradientUnits="userSpaceOnUse" /><radialGradient
       inkscape:collect="always"
       xlink:href="#linearGradient4"
       id="radialGradient5"
       cx="255.0211"
       cy="114.99715"
       fx="255.0211"
       fy="114.99715"
       r="23.209774"
       gradientUnits="userSpaceOnUse"
       gradientTransform="matrix(3.8946123,0,0,3.3831248,-738.18715,-241.24398)" /><linearGradient
       inkscape:collect="always"
       xlink:href="#linearGradient8"
       id="linearGradient12"
       x1="-7.0766134"
       y1="87.115669"
       x2="469.99146"
       y2="87.115669"
       gradientUnits="userSpaceOnUse"
       gradientTransform="translate(0,22.225008)" /><filter
       inkscape:collect="always"
       style="color-interpolation-filters:sRGB"
       id="filter12"
       x="-0.0086620332"
       y="-0.0086620332"
       width="1.0173241"
       height="1.0173241"><feGaussianBlur
         inkscape:collect="always"
         stdDeviation="0.16753653"
         id="feGaussianBlur12" /></filter><linearGradient
       inkscape:collect="always"
       xlink:href="#linearGradient13"
       id="linearGradient15"
       x1="252.65907"
       y1="124.29449"
       x2="253.21773"
       y2="289.1796"
       gradientUnits="userSpaceOnUse"
       gradientTransform="matrix(1,0,0,1.0000017,0,31.772587)" /><linearGradient
       inkscape:collect="always"
       xlink:href="#linearGradient16"
       id="linearGradient17"
       x1="398.51245"
       y1="98.20092"
       x2="397.20081"
       y2="127.24696"
       gradientUnits="userSpaceOnUse"
       gradientTransform="translate(0,30.162513)" /><inkscape:path-effect
       effect="fill_between_many"
       method="bsplinespiro"
       autoreverse="false"
       close="false"
       join="false"
       linkedpaths="#path5,0,1"
       id="path-effect7"
       is_visible="true"
       lpeversion="0" /><inkscape:path-effect
       effect="fill_between_many"
       method="bsplinespiro"
       autoreverse="false"
       close="false"
       join="false"
       linkedpaths="#path10,0,1"
       id="path-effect12"
       is_visible="true"
       lpeversion="0" /><inkscape:path-effect
       effect="fill_between_many"
       method="bsplinespiro"
       autoreverse="false"
       close="false"
       join="false"
       linkedpaths="#path13,0,1"
       id="path-effect15"
       is_visible="true"
       lpeversion="0" /><inkscape:path-effect
       effect="fill_between_many"
       method="bsplinespiro"
       autoreverse="false"
       close="false"
       join="false"
       linkedpaths="#path19,0,1"
       id="path-effect21"
       is_visible="true"
       lpeversion="0" /><inkscape:path-effect
       effect="fill_between_many"
       method="bsplinespiro"
       autoreverse="false"
       close="false"
       join="false"
       linkedpaths="#path22,0,1"
       id="path-effect24"
       is_visible="true"
       lpeversion="0" /><inkscape:path-effect
       effect="fill_between_many"
       method="bsplinespiro"
       autoreverse="false"
       close="false"
       join="false"
       linkedpaths="#path25,0,1"
       id="path-effect27"
       is_visible="true"
       lpeversion="0" /></defs><g
     inkscape:label="Layer 1"
     inkscape:groupmode="layer"
     id="layer1"><image
       width="508"
       height="317.5"
       preserveAspectRatio="none"
       xlink:href="heaven_generated.jpg"
       id="image1"
       x="-0.82387966"
       y="-318.52127"
       style="display:inline" /><rect
       style="display:inline;fill:#213277;fill-opacity:1;stroke-width:0.521549;stroke-linecap:square;stroke-miterlimit:4.2;paint-order:markers fill stroke"
       id="rect1"
       width="508"
       height="112.44791"
       x="0"
       y="-317.5"
       inkscape:label="water"
       transform="scale(1,-1)" /><rect
       style="display:inline;fill:#2a4687;fill-opacity:1;stroke-width:0.55778;stroke-linecap:square;stroke-miterlimit:4.2;paint-order:markers fill stroke"
       id="rect2"
       width="508"
       height="205.05208"
       x="0"
       y="0"
       inkscape:label="sky" /><rect
       style="display:inline;fill:url(#radialGradient2);fill-opacity:1;stroke-width:0.557791;stroke-linecap:square;stroke-miterlimit:4.2;paint-order:markers fill stroke"
       id="rect13"
       width="508"
       height="317.5"
       x="0"
       y="1.6465469e-15"
       inkscape:label="sun gradient" /><path
       style="fill:url(#linearGradient12);stroke-width:0.529167;stroke-linecap:square;stroke-miterlimit:4.2;paint-order:markers fill stroke"
       d="m -5.1466281,118.05017 90.7093181,-4.50332 44.38967,1.28667 49.53629,7.07662 34.09641,5.14663 83.63272,-3.21664 50.1796,-9.00661 75.26944,-16.083291 43.74634,-5.14663 c 17.58907,-2.464296 -35.38308,-1.929986 -35.38308,-1.929986 l -74.6261,16.726587 -60.47287,10.93663 -73.98278,1.92999 -26.46262,-6.10479 -74.20464,-9.62566 -36.572765,3.31753 -90.9553029,4.43709 z"
       id="path4"
       inkscape:label="trail1 yellow"
       sodipodi:nodetypes="cccccccccccccccccc" /><path
       style="fill:#f3a380;fill-opacity:1;stroke-width:0.529167;stroke-linecap:square;stroke-miterlimit:4.2;paint-order:markers fill stroke"
       d="m 158.25881,139.72594 21.59298,4.33739 45.19891,1.59815 57.37052,-5.29221 32.17319,-2.08659 12.85979,0.1566 22.67312,-6.10993 13.17976,-6.44343 6.20035,-3.88099 3.94217,-3.30144 12.86313,4.08433 2.95646,4.65943 11.37546,-18.17497 8.20973,3.75273 -1.24016,-11.84703 19.68086,-4.493078 17.4829,0.08116 8.06308,-2.203162 3.51515,15.33207 -25.80007,14.49817 22.69453,-1.96378 60.1241,-10.36489 -2.22395,5.05363 -57.56656,13.88484 -33.58892,5.54756 -51.36811,2.53211 -39.88636,4.5033 -104.61369,12.00569 -50.42848,-6.85906 z"
       id="path8"
       sodipodi:nodetypes="cccccccccccccccccccccccccccccc"
       inkscape:label="trail8" /><path
       style="fill:#f3a380;fill-opacity:1;stroke-width:0.529167;stroke-linecap:square;stroke-miterlimit:4.2;paint-order:markers fill stroke"
       d="m 103.03358,133.29265 50.72193,-3.21664 18.65653,5.78996 34.68125,-2.33938 -15.32291,-6.31631 12.47641,1.56753 26.94361,1.50213 42.22422,-2.13391 15.88766,-0.67465 26.60503,0.0829 -6.99368,-5.42682 28.12023,-3.36225 26.99949,4.3401 -21.46009,4.36602 -20.65679,6.09046 -48.50185,4.87744 -55.32626,5.3232 -39.24304,-0.8199 -18.65652,-7.07661 z"
       id="path7"
       sodipodi:nodetypes="cccccccccccccccccccc"
       inkscape:label="trail7" /><path
       style="opacity:0.702231;fill:url(#linearGradient17);fill-opacity:1;stroke-width:0.529167;stroke-linecap:square;stroke-miterlimit:4.2;paint-order:markers fill stroke"
       d="m 325.62332,142.30162 18.37375,0.13622 9.56528,0.84118 7.28325,-6.78664 9.35408,-5.0192 5.50561,-4.23708 6.63685,2.29058 5.57245,8.91265 5.43984,3.37582 7.98864,-3.7595 6.10069,-3.82966 8.76019,5.95264 7.78428,-8.49193 7.78428,13.46264 23.65099,2.06999 24.43235,-12.31073 8.94304,7.72711 20.35415,-7.2558 1.22571,12.47889 -44.69933,7.24266 -38.15288,-0.7696 -42.89908,-0.99901 -35.23808,-0.0288 -23.07681,4.49352 9.92565,-7.71165 -10.25507,-2.31229 -11.68241,-1.22602 -14.8609,1.41533 z"
       id="path15"
       sodipodi:nodetypes="ccccccccccccccccccccccccccccc"
       inkscape:label="trail15" /><path
       style="fill:#ca658f;fill-opacity:1;stroke-width:0.529167;stroke-linecap:square;stroke-miterlimit:4.2;paint-order:markers fill stroke"
       d="m 416.02166,131.57573 -5.19094,-4.62575 -13.99313,-5.6524 5.98456,-10.1123 9.41233,4.6003 7.96106,2.25888 -9.80354,-9.81701 -0.68157,-4.00539 17.52869,-5.044384 15.72411,-0.0831 8.09539,-2.744128 3.65244,12.149312 -9.96372,-2.43919 -3.3029,4.93731 -6.27345,-2.45081 -6.31083,-0.6263 10.11766,5.72663 -6.62423,1.54324 -5.68415,6.66691 z"
       id="path16"
       sodipodi:nodetypes="cccccccccccccccccccc"
       inkscape:label="trail16" /><path
       style="fill:#f39e7f;fill-opacity:1;stroke-width:0.529167;stroke-linecap:square;stroke-miterlimit:4.2;paint-order:markers fill stroke"
       d="m 228.94338,159.40005 56.55289,-6.79497 -9.07768,3.75953 50.84275,-3.04023 2.00589,-3.6589 20.12215,-3.76981 78.13714,1.02781 19.07646,0.3848 -19.80431,4.93033 44.99828,1.33314 48.59732,10.58048 -104.71997,11.80487 -51.84941,1.02732 -47.45543,-11.86386 -64.32509,-0.55713 -11.46156,-3.1986 z"
       id="path17"
       sodipodi:nodetypes="ccccccccccccccccc"
       inkscape:label="trail17" /><circle
       style="fill:url(#radialGradient5);stroke-width:0.52917;stroke-linecap:square;stroke-miterlimit:4.2;paint-order:markers fill stroke"
       id="circle4"
       cx="255.0211"
       cy="147.80521"
       inkscape:label="sun halo"
       r="50.872902" /><circle
       style="fill:#ffffff;fill-opacity:0.794547;stroke-width:0.529169;stroke-linecap:square;stroke-miterlimit:4.2;paint-order:markers fill stroke;filter:url(#filter12)"
       id="path1"
       cx="255.0211"
       cy="147.80521"
       inkscape:label="sun 1"
       r="23.209774" /><path
       style="fill:url(#linearGradient15);stroke-width:0.529167;stroke-linecap:square;stroke-miterlimit:4.2;paint-order:markers fill stroke"
       d="m -30.942716,181.18195 65.421742,-21.21789 9.724853,6.18855 17.681551,3.53631 20.333784,-11.49303 15.029318,2.65224 45.623198,-0.70566 14.47172,-2.81593 9.39637,11.30587 25.80668,11.84587 22.99401,-10.78736 31.11713,22.98406 28.30102,-14.47919 45.07742,-10.27502 16.0346,-7.44508 17.56034,10.9814 20.47431,2.00162 19.01744,-0.23994 33.31391,-10.52466 20.0225,8.76298 8.84076,-5.30448 54.88628,14.41547 24.6807,21.83177 -577.302644,2.65223 z"
       id="path3"
       sodipodi:nodetypes="ccccccccccccccccccccccccc"
       inkscape:label="mountains far" /><path
       style="fill:#383e7c;fill-opacity:1;stroke-width:0.529167;stroke-linecap:square;stroke-miterlimit:4.2;paint-order:markers fill stroke"
       d="m -22.503793,205.05208 575.454143,-1.60742 -27.32604,-37.77429 -81.9781,22.50383 -28.91424,-4.58189 -33.15345,-0.0658 -21.35128,8.66703 -23.70426,-0.56293 -52.30057,-20.85486 -26.79522,5.48135 -35.04513,20.35651 -33.83243,0.24074 -31.82679,-23.95053 -16.07414,0.80372 -19.72668,-12.92751 -22.284935,1.31318 -12.640449,9.20312 L 53.044653,185.76308 36.970517,172.10003 -8.0370687,158.437 Z"
       id="path2"
       sodipodi:nodetypes="ccccccccccccccccccccc"
       inkscape:label="mountains near" /><path
       style="fill:#80678f;fill-opacity:1;stroke-width:0.529167;stroke-linecap:square;stroke-miterlimit:4.2;paint-order:markers fill stroke"
       d="m -6.9169734,143.19282 c 2.7667894,0 20.7509204,0 20.7509204,0 l -3.458487,-14.52564 33.89317,-8.30041 15.217341,13.14229 -35.276564,6.22528 34.584867,-2.0751 -6.916973,9.68377 13.833945,-11.06716 17.984132,-0.6917 1.383395,4.15019 7.60867,-2.76679 9.683767,-2.0751 17.98413,5.53358 -44.96033,5.53358 -38.73505,4.84188 -41.5018413,-1.38339 z"
       id="path27"
       inkscape:label="cloud bottom left" /><path
       style="fill:#774b80;fill-opacity:1;stroke:#ff01e9;stroke-width:0.079375;stroke-linecap:round;stroke-miterlimit:4.2;paint-order:markers fill stroke"
       d="m 510.81849,106.75807 -41.32892,0.17292 -29.05127,-0.69169 -12.79642,1.21046 -15.39025,-2.42094 -19.1946,1.21048 2.93971,-3.11264 3.97724,-0.17293 -1.90214,-3.112637 4.49601,-0.864616 -2.76678,-5.01477 2.76678,-5.014783 4.66897,-0.172917 0.34584,-2.766775 4.49603,-1.383391 2.24801,-3.631392 4.1502,1.729231 2.76678,-1.210464 3.97726,-1.210461 3.11264,1.383391 2.7668,-1.383391 5.70651,1.383391 0.17291,3.285542 -1.72924,1.383391 6.74404,0.864617 6.22528,-0.864617 5.18774,3.631389 2.248,-0.345847 2.59387,2.247998 5.70651,-1.210464 3.6314,5.36063 3.80434,1.556311 2.0751,-1.902158 3.63141,-1.383384 1.90217,-4.150166 c 0,0 3.97727,-0.345847 5.36064,0 1.3834,0.345847 0.86463,1.037544 0.86463,1.037544 l 2.59387,-1.729241 1.72924,-1.902148 2.42094,1.037534 2.0751,-1.383381 3.45847,0.172917 1.90217,2.075078 3.11264,-1.037534 9.16501,-1.556311 z"
       id="path6" /><path
       style="display:inline;fill:#67427b;fill-opacity:1;stroke-width:0.529167;stroke-linecap:square;stroke-miterlimit:4.2;paint-order:markers fill stroke"
       d="M 0.20036008,71.643823 1.8032408,65.232339 8.2147634,59.221565 19.234568,56.21618 l 4.808642,2.003591 6.010803,6.812211 3.038474,-0.606277 4.976315,0.746434 1.244077,4.354256 -1.990524,4.976283 4.105457,0.373227 2.239344,2.736955 0.373221,1.990508 -5.971575,4.105436 1.492893,0.995264 2.612565,-1.617298 3.732236,-0.37322 2.363748,1.368484 -0.124407,2.363735 1.368486,0.622027 12.689602,-7.713235 9.82822,0.497627 3.483419,1.617291 6.095984,4.603063 -2.488157,2.114928 -3.607827,3.483389 2.114934,1.866111 3.483419,-4.105436 7.215653,-2.488138 3.60783,2.239328 2.114933,1.866108 3.48342,-1.368481 3.607827,-0.497627 15.67539,5.2251 -0.99527,1.368484 v 3.110172 l 0.87086,0.622033 1.36849,-0.995253 0.99526,-1.866108 7.9621,-4.851883 5.97158,0.746447 0.62204,1.368481 4.47868,0.373217 3.35901,2.612545 2.23934,2.985774 3.98105,1.741707 3.1102,0.37322 -1.24408,4.10546 2.61257,0.99527 1.6173,-3.73224 4.35428,-2.73697 2.48815,2.61256 2.86138,0.37323 -0.1244,-0.12441 2.98578,-0.87086 7.96211,1.11967 2.98578,3.35902 -3.98105,2.36374 -1.74171,2.86139 1.4929,0.87085 4.7275,-3.35901 5.22513,-1.11967 0.49763,-1.6173 6.46921,0.87085 8.70854,3.48342 0.74645,1.49289 2.86138,-0.74644 2.23934,-2.73698 3.73224,0.62204 2.73697,-1.36848 6.22039,-5.10072 4.47869,-1.86612 9.08177,3.11019 2.36375,-1.11967 2.36375,1.86612 2.11493,-0.74645 0.37322,3.60783 1.99053,0.87086 2.48816,-0.74645 7.34006,1.24408 0.99526,1.49289 2.11494,0.62204 4.60309,0.37323 3.98105,0.49763 2.98579,1.24408 -4.60309,1.49289 -16.04862,0.62204 -21.52255,0.37322 -6.96684,-2.23934 -20.90052,0.99526 -9.95263,-1.24407 -8.45973,2.73697 -8.95737,-0.37323 -25.25479,0.24882 -19.28322,-5.72276 -1.24408,0.99526 1.11967,1.6173 -7.34006,0.37323 -6.96684,-1.4929 -0.49763,-1.6173 -15.550982,-2.98579 0.995263,1.6173 -4.478683,1.11968 1.990526,2.36374 5.847169,0.24882 1.244078,0.87086 -21.646965,0.24881 -6.842432,-1.11967 -5.598353,1.36849 -20.776111,-1.4929 -15.177758,0.12441 -3.110196,-1.86612 1.990526,-0.24881 6.842432,-0.37323 1.11967,-0.99526 -1.244078,-1.6173 -4.603091,0.62204 -9.081773,-3.98105 -5.225129,-0.49764 -0.870855,-1.7417 2.488157,-1.36849 0.497631,-1.741704 -1.368486,-1.49289 6.220392,-2.861365 1.74171,-1.741701 -4.727498,0.622037 -8.8329575,6.344763 -0.3732235,2.86138 1.866118,2.61257 3.359012,2.73697 -1.74171,0.99526 2.488157,0.99527 -8.3353262,1.11967 -7.58887874,-3.1102 z"
       id="path9" /><path
       style="fill:#1d2e7c;fill-opacity:1;stroke-width:2;stroke-linecap:square;stroke-miterlimit:4.2;paint-order:markers fill stroke"
       d="m 70.342353,-984.79294 27.412829,-9.31002 19.137258,1.55167 17.58559,-7.75831 6.7239,-4.1378 109.13409,-9.31 -11.37891,-6.7239 -4.13779,-6.7239 35.17118,-5.1723 13.96503,-1.5516 32.06783,6.7239 5.17224,-6.2067 14.48225,-5.6895 -27.41283,-7.7583 -41.89508,-2.0689 22.2406,-13.4478 2.47259,-14.3684 9.05072,-5.5472 12.55424,1.4598 4.37939,-10.5106 8.75877,-4.3793 -0.87588,-10.2186 9.34269,-2.0437 7.00701,-6.7151 -4.9633,-10.5105 2.33567,-13.4301 9.34269,-6.7151 11.97032,-3.7954 11.3864,2.0437 9.05073,8.1748 6.4231,3.5035 4.37938,-0.2919 -0.87587,15.1818 7.00701,5.8392 13.13816,-0.8758 6.71505,4.3793 6.71506,9.3427 7.59094,4.6714 14.30599,-4.3794 14.01403,-14.598 4.9633,-19.5612 -2.04371,-4.9633 4.67134,-5.8392 6.4231,-2.9196 16.05775,0.292 15.18186,2.9196 12.26228,8.1748 9.92661,7.8829 5.83918,0.292 5.54722,-5.2553 -3.50351,-5.8392 -0.29196,-4.0874 6.71506,-1.1678 14.88991,2.9195 12.55424,9.3427 1.16783,11.9704 -10.51052,19.5612 -18.68538,14.8899 -25.10847,6.1312 -3.21155,11.6783 -2.91959,2.9196 -11.3864,5.2553 -5.54722,5.5472 -0.29196,10.8025 2.62763,4.3794 7.00701,0.2919 12.55424,-4.9633 4.9633,-5.8392 11.09445,-7.007 13.13815,2.0437 21.60497,5.2553 10.21856,-0.5839 c 0,0 6.4231,-13.1382 7.59094,-14.598 1.16783,-1.4598 3.79546,-4.0874 3.79546,-4.0874 l 14.59795,-1.1678 10.51053,2.3356 17.51754,11.3864 5.83918,1.4598 6.71506,-7.8829 -5.83918,-7.5909 v -6.7151 l 22.18888,-5.2552 18.68538,3.5035 6.42309,-5.8392 2.04372,-7.8829 -14.59795,-16.0577 -29.1959,-7.007 -25.10848,-9.9267 -10.21856,-9.0507 -8.46681,-16.0577 9.05073,-1.4598 5.25526,-3.7955 v -8.4668 l -5.25526,-7.5909 0.29195,-8.1749 4.37939,-2.9196 10.21856,-7.8829 12.55424,2.9196 1.16784,9.3427 -2.04372,4.6714 5.25527,9.6346 4.67134,-2.3357 0.29196,-11.3864 7.88289,-2.0437 2.62763,-7.8829 -7.00701,-6.1311 2.33567,-8.1749 H 883.7599 l 31.72515,33.2709 -5.17224,12.4134 11.37891,30.5161 -7.75834,25.344 -8.27558,7.7583 -16.55114,6.2067 -13.4478,11.8961 9.82724,14.9995 -6.20668,11.8961 -20.68893,9.8273 -20.68892,8.2756 -16.03392,-2.0689 -8.27557,6.7239 2.06889,13.4478 18.62003,12.9306 41.89508,-2.5862 8.27557,-4.655 11.37891,13.44783 16.03392,-4.65501 23.27505,6.7239 8.79279,-6.20668 10.86169,-1.03444 27.41283,22.2406 11.37891,3.62056 3.62056,10.34446 0.51722,13.96503 11.37887,3.62056 17.5856,-4.13779 17.0684,-18.62003 5.1722,-2.58612 22.7578,11.89614 2.0689,12.93058 9.3101,5.17223 14.9994,-6.7239 11.3789,-1.03445 17.5856,10.86169 v 0 0 l 2.5601,10.46384 5.5472,2.91959 6.7151,-3.79547 19.8532,-9.34269 10.2186,8.75877 12.8461,2.04371 11.3864,-2.91959 7.299,-4.08742 9.3427,3.79546 7.8829,1.75176 6.1311,-6.71506 33.8673,-3.79547 34.1592,3.79547 8.1748,5.25526 19.2693,-2.62763 21.313,-0.58392 18.9774,6.13114 32.4074,5.25527 26.8603,3.21154 6.4231,7.8829 9.3426,2.62763 15.4739,-11.09444 10.5105,-1.75176 7.5909,3.79547 8.7588,2.04371 11.6784,-5.25526 8.7587,-2.91959 7.299,3.50351 4.6714,6.13114 1.1678,11.97032 -4.6714,10.80248 -9.6346,5.25526 c 0,0 -41.7501,0.29196 -42.918,0 -1.1678,-0.29196 -44.3777,-2.91959 -44.3777,-2.91959 l -42.918,-2.91959 -46.4215,3.50351 -53.1365,4.67134 -54.0125,6.13114 -67.4425,2.04372 -70.3621,6.13114 -56.932,1.45979 -83.20833,-4.67134 -84.37615,-1.16784 -143.05992,-3.50351 -94.88667,-1.16783 -108.31679,-0.29196 -127.29413,4.08742 -93.1504,8.23252 -185.94387,3.41966 z"
       id="path10"
       transform="matrix(0.26458333,0,0,0.26458333,0,318.55977)" /></g></svg>
