<?xml version="1.0" encoding="UTF-8" standalone="no"?>
<!-- Created with Inkscape (http://www.inkscape.org/) -->

<svg
   width="1920"
   height="1080"
   viewBox="0 0 508 285.75"
   version="1.1"
   id="svg1"
   inkscape:version="1.4.3 (0d15f75, 2025-12-25)"
   xml:space="preserve"
   sodipodi:docname="sunset_06_003.svg"
   xmlns:inkscape="http://www.inkscape.org/namespaces/inkscape"
   xmlns:sodipodi="http://sodipodi.sourceforge.net/DTD/sodipodi-0.dtd"
   xmlns:xlink="http://www.w3.org/1999/xlink"
   xmlns="http://www.w3.org/2000/svg"
   xmlns:svg="http://www.w3.org/2000/svg"><sodipodi:namedview
     id="namedview1"
     pagecolor="#ffffff"
     bordercolor="#000000"
     borderopacity="0.25"
     inkscape:showpageshadow="2"
     inkscape:pageopacity="0.0"
     inkscape:pagecheckerboard="0"
     inkscape:deskcolor="#d1d1d1"
     inkscape:document-units="px"
     inkscape:zoom="0.42076447"
     inkscape:cx="863.90375"
     inkscape:cy="-307.77314"
     inkscape:window-width="1920"
     inkscape:window-height="1016"
     inkscape:window-x="0"
     inkscape:window-y="0"
     inkscape:window-maximized="1"
     inkscape:current-layer="layer1" /><defs
     id="defs1"><linearGradient
       id="linearGradient16"
       inkscape:collect="always"><stop
         style="stop-color:#ca658f;stop-opacity:1;"
         offset="0"
         id="stop16" /><stop
         style="stop-color:#e8708c;stop-opacity:1;"
         offset="1"
         id="stop17" /></linearGradient><linearGradient
       id="linearGradient13"
       inkscape:collect="always"><stop
         style="stop-color:#7d557a;stop-opacity:1;"
         offset="0"
         id="stop14" /><stop
         style="stop-color:#7d557a;stop-opacity:0;"
         offset="1"
         id="stop15" /></linearGradient><linearGradient
       id="linearGradient8"
       inkscape:collect="always"><stop
         style="stop-color:#fddc7b;stop-opacity:1;"
         offset="0.71362019"
         id="stop11" /><stop
         style="stop-color:#fddc7b;stop-opacity:0;"
         offset="1"
         id="stop12" /></linearGradient><linearGradient
       id="linearGradient4"
       inkscape:collect="always"><stop
         style="stop-color:#ffffff;stop-opacity:0.8037402;"
         offset="0"
         id="stop4" /><stop
         style="stop-color:#ffffff;stop-opacity:0.40392157;"
         offset="0.2626459"
         id="stop13" /><stop
         style="stop-color:#ffffff;stop-opacity:0;"
         offset="0.52871925"
         id="stop5" /></linearGradient><linearGradient
       id="linearGradient5"><stop
         style="stop-color:#fdd57d;stop-opacity:1;"
         offset="0.00022799"
         id="stop8" /><stop
         style="stop-color:#ffd16e;stop-opacity:1;"
         offset="0.30471653"
         id="stop1" /><stop
         style="stop-color:#c67281;stop-opacity:0.7952891;"
         offset="0.62660164"
         id="stop9" /><stop
         style="stop-color:#2a4687;stop-opacity:0.0027248;"
         offset="1"
         id="stop10" /></linearGradient><radialGradient
       inkscape:collect="always"
       xlink:href="#linearGradient5"
       id="radialGradient2"
       cx="255.03188"
       cy="120.64713"
       fx="255.03188"
       fy="120.64713"
       r="254"
       gradientTransform="matrix(2.1564986,0,0,0.64636599,-293.99192,50.247243)"
       gradientUnits="userSpaceOnUse" /><radialGradient
       inkscape:collect="always"
       xlink:href="#linearGradient4"
       id="radialGradient5"
       cx="255.0211"
       cy="114.99715"
       fx="255.0211"
       fy="114.99715"
       r="23.209774"
       gradientUnits="userSpaceOnUse"
       gradientTransform="matrix(3.8946123,0,0,3.3831248,-738.18715,-274.05252)" /><linearGradient
       inkscape:collect="always"
       xlink:href="#linearGradient8"
       id="linearGradient12"
       x1="-7.0766135"
       y1="87.115672"
       x2="469.99145"
       y2="87.115672"
       gradientUnits="userSpaceOnUse" /><filter
       inkscape:collect="always"
       style="color-interpolation-filters:sRGB"
       id="filter12"
       x="-0.0086620332"
       y="-0.0086620332"
       width="1.0173241"
       height="1.0173241"><feGaussianBlur
         inkscape:collect="always"
         stdDeviation="0.16753653"
         id="feGaussianBlur12" /></filter><linearGradient
       inkscape:collect="always"
       xlink:href="#linearGradient13"
       id="linearGradient15"
       x1="252.65907"
       y1="124.29449"
       x2="253.21773"
       y2="289.1796"
       gradientUnits="userSpaceOnUse" /><linearGradient
       inkscape:collect="always"
       xlink:href="#linearGradient16"
       id="linearGradient17"
       x1="398.51245"
       y1="98.20092"
       x2="397.20081"
       y2="127.24696"
       gradientUnits="userSpaceOnUse" /></defs><g
     inkscape:label="Layer 1"
     inkscape:groupmode="layer"
     id="layer1"><image
       width="508"
       height="317.5"
       preserveAspectRatio="none"
       xlink:href="heaven_generated.jpg"
       id="image1"
       x="-0.82387966"
       y="-318.52127"
       style="display:inline" /><rect
       style="display:inline;fill:#213277;fill-opacity:1;stroke-width:0.529167;stroke-linecap:square;stroke-miterlimit:4.2;paint-order:markers fill stroke"
       id="rect1"
       width="513.24011"
       height="114.57498"
       x="-1.53706"
       y="171.78183"
       inkscape:label="water" /><rect
       style="display:inline;fill:#2a4687;fill-opacity:1;stroke-width:0.529167;stroke-linecap:square;stroke-miterlimit:4.2;paint-order:markers fill stroke"
       id="rect2"
       width="509.91885"
       height="183.85963"
       x="0"
       y="0"
       inkscape:label="sky" /><rect
       style="display:inline;fill:url(#radialGradient2);fill-opacity:1;stroke-width:0.529167;stroke-linecap:square;stroke-miterlimit:4.2;paint-order:markers fill stroke"
       id="rect13"
       width="508"
       height="285.75"
       x="0"
       y="1.6465469e-15"
       inkscape:label="sun gradient" /><path
       style="fill:url(#linearGradient12);stroke-width:0.529167;stroke-linecap:square;stroke-miterlimit:4.2;paint-order:markers fill stroke"
       d="m -5.1466281,95.825054 90.7093181,-4.503288 44.38967,1.286658 49.53629,7.076579 34.09641,5.146627 83.63272,-3.21664 50.1796,-9.006566 75.26944,-16.083213 43.74634,-5.146628 c 17.58907,-2.464294 -35.38308,-1.929984 -35.38308,-1.929984 l -74.6261,16.72654 -60.47287,10.936569 -73.98278,1.929978 -26.46262,-6.104753 -74.20464,-9.625603 -36.572765,3.31751 -90.9553029,4.437059 z"
       id="path4"
       inkscape:label="yellow trail 1"
       sodipodi:nodetypes="cccccccccccccccccc" /><path
       style="fill:#f3a380;fill-opacity:1;stroke-width:0.529167;stroke-linecap:square;stroke-miterlimit:4.2;paint-order:markers fill stroke"
       d="m 158.25881,116.44246 21.59298,4.33739 45.19891,1.59815 57.37052,-5.29221 32.17319,-2.08659 12.85979,0.1566 22.67312,-6.10993 13.17976,-6.44343 6.20035,-3.880981 3.94217,-3.301425 12.86313,4.084306 2.95646,4.65943 11.37546,-18.17489 8.20973,3.752711 -1.24016,-11.846966 19.68086,-4.493071 17.4829,0.08116 8.06308,-2.203162 3.51515,15.332019 -25.80007,14.498089 22.69453,-1.963773 60.1241,-10.364832 -2.22395,5.0536 -57.56656,13.884805 -33.58892,5.54756 -51.36811,2.53211 -39.88636,4.5033 -104.61369,12.00569 -50.42848,-6.85906 z"
       id="path8"
       sodipodi:nodetypes="cccccccccccccccccccccccccccccc" /><path
       style="fill:#f3a380;fill-opacity:1;stroke-width:0.529167;stroke-linecap:square;stroke-miterlimit:4.2;paint-order:markers fill stroke"
       d="m 103.03358,110.00917 50.72193,-3.21664 18.65653,5.78996 34.68125,-2.33938 -15.32291,-6.31631 12.47641,1.56753 26.94361,1.50213 42.22422,-2.13391 15.88766,-0.67465 26.60503,0.0829 -6.99368,-5.42681 28.12023,-3.362234 26.99949,4.34008 -21.46009,4.366014 -20.65679,6.09046 -48.50185,4.87744 -55.32626,5.3232 -39.24304,-0.8199 -18.65652,-7.07661 z"
       id="path7"
       sodipodi:nodetypes="cccccccccccccccccccc" /><path
       style="fill:url(#linearGradient17);fill-opacity:1;stroke-width:0.529167;stroke-linecap:square;stroke-miterlimit:4.2;paint-order:markers fill stroke;opacity:0.7022312"
       d="m 325.62332,112.13893 18.37375,0.13622 9.56528,0.84118 7.28325,-6.78664 9.35408,-5.0192 5.50561,-4.237061 6.63685,2.290571 5.57245,8.91264 5.43984,3.37582 7.98864,-3.7595 6.10069,-3.82966 8.76019,5.95264 7.78428,-8.49193 7.78428,13.46264 23.65099,2.06999 24.43235,-12.31073 8.94304,7.72711 20.35415,-7.2558 1.22571,12.47889 -44.69933,7.24266 -38.15288,-0.7696 -42.89908,-0.99901 -35.23808,-0.0288 -23.07681,4.49352 9.92565,-7.71165 -10.25507,-2.31229 -11.68241,-1.22602 -14.8609,1.41533 z"
       id="path15"
       sodipodi:nodetypes="ccccccccccccccccccccccccccccc" /><path
       style="fill:#ca658f;fill-opacity:1;stroke-width:0.529167;stroke-linecap:square;stroke-miterlimit:4.2;paint-order:markers fill stroke"
       d="m 416.02166,108.29225 -5.19094,-4.62575 -13.99313,-5.652385 5.98456,-10.11225 9.41233,4.600282 7.96106,2.258864 -9.80354,-9.816952 -0.68157,-4.005363 17.52869,-5.044365 15.72411,-0.08314 8.09539,-2.744131 3.65244,12.149265 -9.96372,-2.439172 -3.3029,4.937278 -6.27345,-2.450801 -6.31083,-0.626287 10.11766,5.726595 -6.62423,1.54323 -5.68415,6.666873 z"
       id="path16"
       sodipodi:nodetypes="cccccccccccccccccccc" /><path
       style="fill:#f39e7f;fill-opacity:1;stroke-width:0.529167;stroke-linecap:square;stroke-miterlimit:4.2;paint-order:markers fill stroke"
       d="m 228.94338,136.64574 56.55289,-6.79497 -9.07768,3.75953 50.84275,-3.04023 2.00589,-3.6589 20.12215,-3.76981 78.13714,1.02781 19.07646,0.3848 -19.80431,4.93033 44.99828,1.33314 48.59732,10.58048 -104.71997,11.80487 -51.84941,1.02732 -47.45543,-11.86386 -64.32509,-0.55713 -11.46156,-3.1986 z"
       id="path17"
       sodipodi:nodetypes="ccccccccccccccccc" /><circle
       style="fill:url(#radialGradient5);stroke-width:0.52917;stroke-linecap:square;stroke-miterlimit:4.2;paint-order:markers fill stroke"
       id="circle4"
       cx="255.0211"
       cy="114.99715"
       inkscape:label="sun light"
       r="50.872902" /><circle
       style="fill:#ffffff;fill-opacity:0.79454714;stroke-width:0.529169;stroke-linecap:square;stroke-miterlimit:4.2;paint-order:markers fill stroke;filter:url(#filter12)"
       id="path1"
       cx="255.0211"
       cy="114.99715"
       inkscape:label="sun 1"
       r="23.209774" /><path
       style="fill:url(#linearGradient15);stroke-width:0.529167;stroke-linecap:square;stroke-miterlimit:4.2;paint-order:markers fill stroke"
       d="m -30.942716,149.40911 65.421742,-21.21786 9.724853,6.18854 17.681551,3.53631 20.333784,-11.49301 15.029318,2.65223 45.623198,-0.70566 14.47172,-2.81592 9.39637,11.30585 25.80668,11.84585 22.99401,-10.78734 31.11713,22.98402 28.30102,-14.47917 45.07742,-10.275 16.0346,-7.44507 17.56034,10.98138 20.47431,2.00162 19.01744,-0.23994 33.31391,-10.52464 20.0225,8.76296 8.84076,-5.30447 54.88628,14.41545 24.6807,21.83173 -577.302644,2.65223 z"
       id="path3"
       sodipodi:nodetypes="ccccccccccccccccccccccccc"
       inkscape:label="mountains far" /><path
       style="fill:#383e7c;fill-opacity:1;stroke-width:0.529167;stroke-linecap:square;stroke-miterlimit:4.2;paint-order:markers fill stroke"
       d="m -22.503793,173.60069 575.454143,-1.60742 -27.32604,-37.77422 -81.9781,22.50379 -28.91424,-4.58188 -33.15345,-0.0658 -21.35128,8.66701 -23.70426,-0.56293 -52.30057,-20.85482 -26.79522,5.48134 -35.04513,20.35647 -33.83243,0.24074 L 156.72284,141.45249 140.6487,142.2562 120.92202,129.32872 98.637085,130.6419 85.996636,139.845 53.044653,154.31172 36.970517,140.6487 -8.0370687,126.98569 Z"
       id="path2"
       sodipodi:nodetypes="ccccccccccccccccccccc"
       inkscape:label="mountains near" /><rect
       style="opacity:0.702231;fill:#2a4687;fill-opacity:1;stroke-width:0.529167;stroke-linecap:square;stroke-miterlimit:4.2;paint-order:markers fill stroke"
       id="rect17"
       width="47.161182"
       height="30.183157"
       x="610.58008"
       y="34.584869" /></g></svg>
