<?xml version="1.0" encoding="UTF-8" standalone="no"?>
<!-- Created with Inkscape (http://www.inkscape.org/) -->

<svg
   width="1920"
   height="1200"
   viewBox="0 0 508 317.5"
   version="1.1"
   id="svg1"
   inkscape:version="1.4.3 (0d15f75, 2025-12-25)"
   xml:space="preserve"
   sodipodi:docname="sunset_06_008.svg"
   xmlns:inkscape="http://www.inkscape.org/namespaces/inkscape"
   xmlns:sodipodi="http://sodipodi.sourceforge.net/DTD/sodipodi-0.dtd"
   xmlns:xlink="http://www.w3.org/1999/xlink"
   xmlns="http://www.w3.org/2000/svg"
   xmlns:svg="http://www.w3.org/2000/svg"><sodipodi:namedview
     id="namedview1"
     pagecolor="#ffffff"
     bordercolor="#000000"
     borderopacity="0.25"
     inkscape:showpageshadow="2"
     inkscape:pageopacity="0.0"
     inkscape:pagecheckerboard="0"
     inkscape:deskcolor="#d1d1d1"
     inkscape:document-units="px"
     inkscape:zoom="0.50382471"
     inkscape:cx="683.76956"
     inkscape:cy="-36.71912"
     inkscape:window-width="1920"
     inkscape:window-height="1016"
     inkscape:window-x="0"
     inkscape:window-y="0"
     inkscape:window-maximized="1"
     inkscape:current-layer="layer1" /><defs
     id="defs1"><inkscape:path-effect
       effect="powerstroke"
       message=""
       id="path-effect26"
       is_visible="true"
       lpeversion="1.3"
       scale_width="1"
       interpolator_type="CubicBezierJohan"
       interpolator_beta="0.2"
       start_linecap_type="zerowidth"
       end_linecap_type="zerowidth"
       offset_points="0,0.5772388"
       linejoin_type="extrp_arc"
       miter_limit="4"
       not_jump="false"
       sort_points="true" /><inkscape:path-effect
       effect="spiro"
       id="path-effect25"
       is_visible="true"
       lpeversion="1" /><inkscape:path-effect
       effect="powerstroke"
       message=""
       id="path-effect23"
       is_visible="true"
       lpeversion="1.3"
       scale_width="1"
       interpolator_type="CubicBezierJohan"
       interpolator_beta="0.2"
       start_linecap_type="zerowidth"
       end_linecap_type="zerowidth"
       offset_points="0,0.5772388"
       linejoin_type="extrp_arc"
       miter_limit="4"
       not_jump="false"
       sort_points="true" /><inkscape:path-effect
       effect="spiro"
       id="path-effect22"
       is_visible="true"
       lpeversion="1" /><inkscape:path-effect
       effect="powerstroke"
       message=""
       id="path-effect20"
       is_visible="true"
       lpeversion="1.3"
       scale_width="1"
       interpolator_type="CubicBezierJohan"
       interpolator_beta="0.2"
       start_linecap_type="zerowidth"
       end_linecap_type="zerowidth"
       offset_points="0,0.5772388"
       linejoin_type="extrp_arc"
       miter_limit="4"
       not_jump="false"
       sort_points="true" /><inkscape:path-effect
       effect="spiro"
       id="path-effect19"
       is_visible="true"
       lpeversion="1" /><inkscape:path-effect
       effect="powerstroke"
       message=""
       id="path-effect14"
       is_visible="true"
       lpeversion="1.3"
       scale_width="1"
       interpolator_type="CubicBezierJohan"
       interpolator_beta="0.2"
       start_linecap_type="zerowidth"
       end_linecap_type="zerowidth"
       offset_points="0,0.5772388"
       linejoin_type="extrp_arc"
       miter_limit="4"
       not_jump="false"
       sort_points="true" /><inkscape:path-effect
       effect="spiro"
       id="path-effect13"
       is_visible="true"
       lpeversion="1" /><inkscape:path-effect
       effect="powerstroke"
       message=""
       id="path-effect11"
       is_visible="true"
       lpeversion="1.3"
       scale_width="1"
       interpolator_type="CubicBezierJohan"
       interpolator_beta="0.2"
       start_linecap_type="zerowidth"
       end_linecap_type="zerowidth"
       offset_points="0,0.5772388"
       linejoin_type="extrp_arc"
       miter_limit="4"
       not_jump="false"
       sort_points="true" /><inkscape:path-effect
       effect="spiro"
       id="path-effect10"
       is_visible="true"
       lpeversion="1" /><inkscape:path-effect
       effect="powerstroke"
       message=""
       id="path-effect6"
       is_visible="true"
       lpeversion="1.3"
       scale_width="1"
       interpolator_type="CubicBezierJohan"
       interpolator_beta="0.2"
       start_linecap_type="zerowidth"
       end_linecap_type="zerowidth"
       offset_points="0,0.5772388"
       linejoin_type="extrp_arc"
       miter_limit="4"
       not_jump="false"
       sort_points="true" /><inkscape:path-effect
       effect="spiro"
       id="path-effect5"
       is_visible="true"
       lpeversion="1" /><linearGradient
       id="linearGradient13"
       inkscape:collect="always"><stop
         style="stop-color:#5c4877;stop-opacity:1;"
         offset="0.00243951"
         id="stop14" /><stop
         style="stop-color:#7d557a;stop-opacity:0.39369041;"
         offset="0.99978721"
         id="stop15" /></linearGradient><linearGradient
       id="linearGradient8"
       inkscape:collect="always"><stop
         style="stop-color:#fddc7b;stop-opacity:1;"
         offset="0.71362019"
         id="stop11" /><stop
         style="stop-color:#fddc7b;stop-opacity:0;"
         offset="1"
         id="stop12" /></linearGradient><linearGradient
       id="linearGradient4"
       inkscape:collect="always"><stop
         style="stop-color:#ffffff;stop-opacity:0.8037402;"
         offset="0"
         id="stop4" /><stop
         style="stop-color:#ffffff;stop-opacity:0.40392157;"
         offset="0.2626459"
         id="stop13" /><stop
         style="stop-color:#ffffff;stop-opacity:0;"
         offset="0.52871925"
         id="stop5" /></linearGradient><linearGradient
       id="linearGradient5"><stop
         style="stop-color:#fdd57d;stop-opacity:1;"
         offset="0.00022799"
         id="stop8" /><stop
         style="stop-color:#ffd16e;stop-opacity:1;"
         offset="0.30471653"
         id="stop1" /><stop
         style="stop-color:#c67281;stop-opacity:0.7952891;"
         offset="0.62660164"
         id="stop9" /><stop
         style="stop-color:#2a4687;stop-opacity:0.0027248;"
         offset="1"
         id="stop10" /></linearGradient><radialGradient
       inkscape:collect="always"
       xlink:href="#linearGradient5"
       id="radialGradient2"
       cx="255.03188"
       cy="120.64713"
       fx="255.03188"
       fy="120.64713"
       r="254"
       gradientTransform="matrix(2.1564986,0,0,0.71818443,-293.99192,55.830269)"
       gradientUnits="userSpaceOnUse" /><radialGradient
       inkscape:collect="always"
       xlink:href="#linearGradient4"
       id="radialGradient5"
       cx="255.0211"
       cy="114.99715"
       fx="255.0211"
       fy="114.99715"
       r="23.209774"
       gradientUnits="userSpaceOnUse"
       gradientTransform="matrix(3.8946123,0,0,3.3831248,-738.18715,-241.24398)" /><linearGradient
       inkscape:collect="always"
       xlink:href="#linearGradient8"
       id="linearGradient12"
       x1="-7.0766134"
       y1="87.115669"
       x2="469.99146"
       y2="87.115669"
       gradientUnits="userSpaceOnUse"
       gradientTransform="translate(0,30.69168)" /><filter
       inkscape:collect="always"
       style="color-interpolation-filters:sRGB"
       id="filter12"
       x="-0.0086620332"
       y="-0.0086620332"
       width="1.0173241"
       height="1.0173241"><feGaussianBlur
         inkscape:collect="always"
         stdDeviation="0.16753653"
         id="feGaussianBlur12" /></filter><linearGradient
       inkscape:collect="always"
       xlink:href="#linearGradient13"
       id="linearGradient15"
       x1="252.65907"
       y1="124.29449"
       x2="253.21773"
       y2="289.1796"
       gradientUnits="userSpaceOnUse"
       gradientTransform="matrix(1,0,0,1.0000017,0,31.772587)" /><inkscape:path-effect
       effect="fill_between_many"
       method="bsplinespiro"
       autoreverse="false"
       close="false"
       join="false"
       linkedpaths="#path5,0,1"
       id="path-effect7"
       is_visible="true"
       lpeversion="0" /><inkscape:path-effect
       effect="fill_between_many"
       method="bsplinespiro"
       autoreverse="false"
       close="false"
       join="false"
       linkedpaths="#path10,0,1"
       id="path-effect12"
       is_visible="true"
       lpeversion="0" /><inkscape:path-effect
       effect="fill_between_many"
       method="bsplinespiro"
       autoreverse="false"
       close="false"
       join="false"
       linkedpaths="#path13,0,1"
       id="path-effect15"
       is_visible="true"
       lpeversion="0" /><inkscape:path-effect
       effect="fill_between_many"
       method="bsplinespiro"
       autoreverse="false"
       close="false"
       join="false"
       linkedpaths="#path19,0,1"
       id="path-effect21"
       is_visible="true"
       lpeversion="0" /><inkscape:path-effect
       effect="fill_between_many"
       method="bsplinespiro"
       autoreverse="false"
       close="false"
       join="false"
       linkedpaths="#path22,0,1"
       id="path-effect24"
       is_visible="true"
       lpeversion="0" /><inkscape:path-effect
       effect="fill_between_many"
       method="bsplinespiro"
       autoreverse="false"
       close="false"
       join="false"
       linkedpaths="#path25,0,1"
       id="path-effect27"
       is_visible="true"
       lpeversion="0" /></defs><g
     inkscape:label="Layer 1"
     inkscape:groupmode="layer"
     id="layer1"><image
       width="508"
       height="317.5"
       preserveAspectRatio="none"
       xlink:href="heaven_generated.jpg"
       id="image1"
       x="-0.82387966"
       y="-318.52127"
       style="display:inline" /><rect
       style="display:inline;fill:#213277;fill-opacity:1;stroke-width:0.521549;stroke-linecap:square;stroke-miterlimit:4.2;paint-order:markers fill stroke"
       id="rect1"
       width="508"
       height="112.44791"
       x="0"
       y="-317.5"
       inkscape:label="water"
       transform="scale(1,-1)" /><rect
       style="display:inline;fill:#2a4687;fill-opacity:1;stroke-width:0.55778;stroke-linecap:square;stroke-miterlimit:4.2;paint-order:markers fill stroke"
       id="rect2"
       width="508"
       height="205.05208"
       x="0"
       y="0"
       inkscape:label="sky" /><rect
       style="display:inline;fill:url(#radialGradient2);fill-opacity:1;stroke-width:0.557791;stroke-linecap:square;stroke-miterlimit:4.2;paint-order:markers fill stroke"
       id="rect13"
       width="508"
       height="317.5"
       x="0"
       y="1.6465469e-15"
       inkscape:label="sun gradient" /><path
       style="fill:url(#linearGradient12);stroke-width:0.529167;stroke-linecap:square;stroke-miterlimit:4.2;paint-order:markers fill stroke"
       d="m -5.1466281,126.51689 90.7093181,-4.50332 44.38967,1.28667 49.53629,7.07662 34.09641,5.14663 83.63272,-3.21664 50.1796,-9.00661 75.26944,-16.0833 43.74634,-5.14666 c 17.58907,-2.464307 -35.38308,-1.93 -35.38308,-1.93 l -74.6261,16.72664 -60.47287,10.93663 -73.98278,1.92999 -26.46262,-6.10479 -74.20464,-9.62566 -36.572765,3.31753 -90.9553029,4.43709 z"
       id="path4"
       inkscape:label="trail1 yellow"
       sodipodi:nodetypes="cccccccccccccccccc" /><path
       style="fill:#f3a380;fill-opacity:1;stroke-width:0.529167;stroke-linecap:square;stroke-miterlimit:4.2;paint-order:markers fill stroke"
       d="m 158.25881,139.72594 21.59298,4.33739 45.19891,1.59815 57.37052,-5.29221 32.17319,-2.08659 12.85979,0.1566 22.67312,-6.10993 13.17976,-6.44343 6.20035,-3.88099 3.94217,-3.30144 12.86313,4.08433 2.95646,4.65943 11.37546,-18.17497 8.20973,3.75273 -1.24016,-11.84703 19.68086,-4.493078 17.4829,0.08116 8.06308,-2.203162 3.51515,15.33207 -25.80007,14.49817 22.69453,-1.96378 60.1241,-10.36489 -2.22395,5.05363 -57.56656,13.88484 -33.58892,5.54756 -51.36811,2.53211 -39.88636,4.5033 -104.61369,12.00569 -50.42848,-6.85906 z"
       id="path8"
       sodipodi:nodetypes="cccccccccccccccccccccccccccccc"
       inkscape:label="trail8" /><path
       style="fill:#f3a380;fill-opacity:1;stroke-width:0.529167;stroke-linecap:square;stroke-miterlimit:4.2;paint-order:markers fill stroke"
       d="m 103.03358,133.29265 50.72193,-3.21664 18.65653,5.78996 34.68125,-2.33938 -15.32291,-6.31631 12.47641,1.56753 26.94361,1.50213 42.22422,-2.13391 15.88766,-0.67465 26.60503,0.0829 -6.99368,-5.42682 28.12023,-3.36225 26.99949,4.3401 -21.46009,4.36602 -20.65679,6.09046 -48.50185,4.87744 -55.32626,5.3232 -39.24304,-0.8199 -18.65652,-7.07661 z"
       id="path7"
       sodipodi:nodetypes="cccccccccccccccccccc"
       inkscape:label="trail7" /><path
       style="fill:#f39e7f;fill-opacity:1;stroke-width:0.529167;stroke-linecap:square;stroke-miterlimit:4.2;paint-order:markers fill stroke"
       d="m 228.94338,159.40005 56.55289,-6.79497 -9.07768,3.75953 50.84275,-3.04023 2.00589,-3.6589 20.12215,-3.76981 78.13714,1.02781 19.07646,0.3848 -19.80431,4.93033 44.99828,1.33314 48.59732,10.58048 -104.71997,11.80487 -51.84941,1.02732 -47.45543,-11.86386 -64.32509,-0.55713 -11.46156,-3.1986 z"
       id="path17"
       sodipodi:nodetypes="ccccccccccccccccc"
       inkscape:label="trail17" /><circle
       style="fill:url(#radialGradient5);stroke-width:0.52917;stroke-linecap:square;stroke-miterlimit:4.2;paint-order:markers fill stroke"
       id="circle4"
       cx="255.0211"
       cy="147.80521"
       inkscape:label="sun halo"
       r="50.872902" /><circle
       style="fill:#ffffff;fill-opacity:0.794547;stroke-width:0.529169;stroke-linecap:square;stroke-miterlimit:4.2;paint-order:markers fill stroke;filter:url(#filter12)"
       id="path1"
       cx="255.0211"
       cy="147.80521"
       inkscape:label="sun 1"
       r="23.209774" /><path
       style="fill:url(#linearGradient15);stroke-width:0.529167;stroke-linecap:square;stroke-miterlimit:4.2;paint-order:markers fill stroke"
       d="m -30.942716,181.18195 65.421742,-21.21789 9.724853,6.18855 17.681551,3.53631 20.333784,-11.49303 15.029318,2.65224 45.623198,-0.70566 14.47172,-2.81593 9.39637,11.30587 25.80668,11.84587 22.99401,-10.78736 31.11713,22.98406 28.30102,-14.47919 45.07742,-10.27502 16.0346,-7.44508 17.56034,10.9814 20.47431,2.00162 19.01744,-0.23994 33.31391,-10.52466 20.0225,8.76298 8.84076,-5.30448 54.88628,14.41547 24.6807,21.83177 -577.302644,2.65223 z"
       id="path3"
       sodipodi:nodetypes="ccccccccccccccccccccccccc"
       inkscape:label="mountains far" /><path
       style="fill:#383e7c;fill-opacity:1;stroke-width:0.529167;stroke-linecap:square;stroke-miterlimit:4.2;paint-order:markers fill stroke"
       d="m -22.503793,205.05208 575.454143,-1.60742 -27.32604,-37.77429 -81.9781,22.50383 -28.91424,-4.58189 -33.15345,-0.0658 -21.35128,8.66703 -23.70426,-0.56293 -52.30057,-20.85486 -26.79522,5.48135 -35.04513,20.35651 -33.83243,0.24074 -31.82679,-23.95053 -16.07414,0.80372 -19.72668,-12.92751 -22.284935,1.31318 -12.640449,9.20312 L 53.044653,185.76308 36.970517,172.10003 -8.0370687,158.437 Z"
       id="path2"
       sodipodi:nodetypes="ccccccccccccccccccccc"
       inkscape:label="mountains near" /><path
       style="fill:#774b80;fill-opacity:1;stroke:#ff01e9;stroke-width:0.079375;stroke-linecap:round;stroke-miterlimit:4.2;paint-order:markers fill stroke"
       d="m 510.81849,106.75807 -41.32892,0.17292 -29.05127,-0.69169 -12.79642,1.21046 -15.39025,-2.42094 -19.1946,1.21048 2.93971,-3.11264 3.97724,-0.17293 -1.90214,-3.112637 4.49601,-0.864616 -2.76678,-5.01477 2.76678,-5.014783 4.66897,-0.172917 0.34584,-2.766775 4.49603,-1.383391 2.24801,-3.631392 4.1502,1.729231 2.76678,-1.210464 3.97726,-1.210461 3.11264,1.383391 2.7668,-1.383391 5.70651,1.383391 0.17291,3.285542 -1.72924,1.383391 6.74404,0.864617 6.22528,-0.864617 5.18774,3.631389 2.248,-0.345847 2.59387,2.247998 5.70651,-1.210464 3.6314,5.36063 3.80434,1.556311 2.0751,-1.902158 3.63141,-1.383384 1.90217,-4.150166 c 0,0 3.97727,-0.345847 5.36064,0 1.3834,0.345847 0.86463,1.037544 0.86463,1.037544 l 2.59387,-1.729241 1.72924,-1.902148 2.42094,1.037534 2.0751,-1.383381 3.45847,0.172917 1.90217,2.075078 3.11264,-1.037534 9.16501,-1.556311 z"
       id="path6" /><path
       style="display:inline;fill:#67427b;fill-opacity:1;stroke-width:0.529167;stroke-linecap:square;stroke-miterlimit:4.2;paint-order:markers fill stroke"
       d="M 0.20036008,71.643823 1.8032408,65.232339 8.2147634,59.221565 19.234568,56.21618 l 4.808642,2.003591 6.010803,6.812211 3.038474,-0.606277 4.976315,0.746434 1.244077,4.354256 -1.990524,4.976283 4.105457,0.373227 2.239344,2.736955 0.373221,1.990508 -5.971575,4.105436 1.492893,0.995264 2.612565,-1.617298 3.732236,-0.37322 2.363748,1.368484 -0.124407,2.363735 1.368486,0.622027 12.689602,-7.713235 9.82822,0.497627 3.483419,1.617291 6.095984,4.603063 -2.488157,2.114928 -3.607827,3.483389 2.114934,1.866111 3.483419,-4.105436 7.215653,-2.488138 3.60783,2.239328 2.114933,1.866108 3.48342,-1.368481 3.607827,-0.497627 15.67539,5.2251 -0.99527,1.368484 v 3.110172 l 0.87086,0.622033 1.36849,-0.995253 0.99526,-1.866108 7.9621,-4.851883 5.97158,0.746447 0.62204,1.368481 4.47868,0.373217 3.35901,2.612545 2.23934,2.985774 3.98105,1.741707 3.1102,0.37322 -1.24408,4.10546 2.61257,0.99527 1.6173,-3.73224 4.35428,-2.73697 2.48815,2.61256 2.86138,0.37323 -0.1244,-0.12441 2.98578,-0.87086 7.96211,1.11967 2.98578,3.35902 -3.98105,2.36374 -1.74171,2.86139 1.4929,0.87085 4.7275,-3.35901 5.22513,-1.11967 0.49763,-1.6173 6.46921,0.87085 8.70854,3.48342 0.74645,1.49289 2.86138,-0.74644 2.23934,-2.73698 3.73224,0.62204 2.73697,-1.36848 6.22039,-5.10072 4.47869,-1.86612 9.08177,3.11019 2.36375,-1.11967 2.36375,1.86612 2.11493,-0.74645 0.37322,3.60783 1.99053,0.87086 2.48816,-0.74645 7.34006,1.24408 0.99526,1.49289 2.11494,0.62204 4.60309,0.37323 3.98105,0.49763 2.98579,1.24408 -4.60309,1.49289 -16.04862,0.62204 -21.52255,0.37322 -6.96684,-2.23934 -20.90052,0.99526 -9.95263,-1.24407 -8.45973,2.73697 -8.95737,-0.37323 -25.25479,0.24882 -19.28322,-5.72276 -1.24408,0.99526 1.11967,1.6173 -7.34006,0.37323 -6.96684,-1.4929 -0.49763,-1.6173 -15.550982,-2.98579 0.995263,1.6173 -4.478683,1.11968 1.990526,2.36374 5.847169,0.24882 1.244078,0.87086 -21.646965,0.24881 -6.842432,-1.11967 -5.598353,1.36849 -20.776111,-1.4929 -15.177758,0.12441 -3.110196,-1.86612 1.990526,-0.24881 6.842432,-0.37323 1.11967,-0.99526 -1.244078,-1.6173 -4.603091,0.62204 -9.081773,-3.98105 -5.225129,-0.49764 -0.870855,-1.7417 2.488157,-1.36849 0.497631,-1.741704 -1.368486,-1.49289 6.220392,-2.861365 1.74171,-1.741701 -4.727498,0.622037 -8.8329575,6.344763 -0.3732235,2.86138 1.866118,2.61257 3.359012,2.73697 -1.74171,0.99526 2.488157,0.99527 -8.3353262,1.11967 -7.58887874,-3.1102 z"
       id="path9" /><path
       style="fill:#1d2e7c;fill-opacity:1;stroke-width:2;stroke-linecap:square;stroke-miterlimit:4.2;paint-order:markers fill stroke"
       d="m 70.342353,-984.79294 27.412829,-9.31002 19.137258,1.55167 17.58559,-7.75831 6.7239,-4.1378 109.13409,-9.31 -11.37891,-6.7239 -4.13779,-6.7239 35.17118,-5.1723 13.96503,-1.5516 32.06783,6.7239 5.17224,-6.2067 14.48225,-5.6895 -27.41283,-7.7583 -41.89508,-2.0689 22.2406,-13.4478 2.47259,-14.3684 9.05072,-5.5472 12.55424,1.4598 4.37939,-10.5106 8.75877,-4.3793 -0.87588,-10.2186 9.34269,-2.0437 7.00701,-6.7151 -4.9633,-10.5105 2.33567,-13.4301 9.34269,-6.7151 11.97032,-3.7954 11.3864,2.0437 9.05073,8.1748 6.4231,3.5035 4.37938,-0.2919 -0.87587,15.1818 7.00701,5.8392 13.13816,-0.8758 6.71505,4.3793 6.71506,9.3427 7.59094,4.6714 14.30599,-4.3794 14.01403,-14.598 4.9633,-19.5612 -2.04371,-4.9633 4.67134,-5.8392 6.4231,-2.9196 16.05775,0.292 15.18186,2.9196 12.26228,8.1748 9.92661,7.8829 5.83918,0.292 5.54722,-5.2553 -3.50351,-5.8392 -0.29196,-4.0874 6.71506,-1.1678 14.88991,2.9195 12.55424,9.3427 1.16783,11.9704 -10.51052,19.5612 -18.68538,14.8899 -25.10847,6.1312 -3.21155,11.6783 -2.91959,2.9196 -11.3864,5.2553 -5.54722,5.5472 -0.29196,10.8025 2.62763,4.3794 7.00701,0.2919 12.55424,-4.9633 4.9633,-5.8392 11.09445,-7.007 13.13815,2.0437 21.60497,5.2553 10.21856,-0.5839 c 0,0 6.4231,-13.1382 7.59094,-14.598 1.16783,-1.4598 3.79546,-4.0874 3.79546,-4.0874 l 14.59795,-1.1678 10.51053,2.3356 17.51754,11.3864 5.83918,1.4598 6.71506,-7.8829 -5.83918,-7.5909 v -6.7151 l 22.18888,-5.2552 18.68538,3.5035 6.42309,-5.8392 2.04372,-7.8829 -14.59795,-16.0577 -29.1959,-7.007 -25.10848,-9.9267 -10.21856,-9.0507 -8.46681,-16.0577 9.05073,-1.4598 5.25526,-3.7955 v -8.4668 l -5.25526,-7.5909 0.29195,-8.1749 4.37939,-2.9196 10.21856,-7.8829 12.55424,2.9196 1.16784,9.3427 -2.04372,4.6714 5.25527,9.6346 4.67134,-2.3357 0.29196,-11.3864 7.88289,-2.0437 2.62763,-7.8829 -7.00701,-6.1311 2.33567,-8.1749 H 883.7599 l 31.72515,33.2709 -5.17224,12.4134 11.37891,30.5161 -7.75834,25.344 -8.27558,7.7583 -16.55114,6.2067 -13.4478,11.8961 9.82724,14.9995 -6.20668,11.8961 -20.68893,9.8273 -20.68892,8.2756 -16.03392,-2.0689 -8.27557,6.7239 2.06889,13.4478 18.62003,12.9306 41.89508,-2.5862 8.27557,-4.655 11.37891,13.44783 16.03392,-4.65501 23.27505,6.7239 8.79279,-6.20668 10.86169,-1.03444 27.41283,22.2406 11.37891,3.62056 3.62056,10.34446 0.51722,13.96503 11.37887,3.62056 17.5856,-4.13779 17.0684,-18.62003 5.1722,-2.58612 22.7578,11.89614 2.0689,12.93058 9.3101,5.17223 14.9994,-6.7239 11.3789,-1.03445 17.5856,10.86169 v 0 0 l 2.5601,10.46384 5.5472,2.91959 6.7151,-3.79547 19.8532,-9.34269 10.2186,8.75877 12.8461,2.04371 11.3864,-2.91959 7.299,-4.08742 9.3427,3.79546 7.8829,1.75176 6.1311,-6.71506 33.8673,-3.79547 34.1592,3.79547 8.1748,5.25526 19.2693,-2.62763 21.313,-0.58392 18.9774,6.13114 32.4074,5.25527 26.8603,3.21154 6.4231,7.8829 9.3426,2.62763 15.4739,-11.09444 10.5105,-1.75176 7.5909,3.79547 8.7588,2.04371 11.6784,-5.25526 8.7587,-2.91959 7.299,3.50351 4.6714,6.13114 1.1678,11.97032 -4.6714,10.80248 -9.6346,5.25526 c 0,0 -41.7501,0.29196 -42.918,0 -1.1678,-0.29196 -44.3777,-2.91959 -44.3777,-2.91959 l -42.918,-2.91959 -46.4215,3.50351 -53.1365,4.67134 -54.0125,6.13114 -67.4425,2.04372 -70.3621,6.13114 -56.932,1.45979 -83.20833,-4.67134 -84.37615,-1.16784 -143.05992,-3.50351 -94.88667,-1.16783 -108.31679,-0.29196 -127.29413,4.08742 -93.1504,8.23252 -185.94387,3.41966 z"
       id="path10"
       transform="matrix(0.26458333,0,0,0.26458333,0,318.55977)" /><path
       style="fill:#7d628b;fill-opacity:1;stroke-width:0.529167;stroke-linecap:square;stroke-miterlimit:4.2;paint-order:markers fill stroke"
       d="m 1.9459722,146.72292 c 0,0 0.7928034,-2.55859 1.8378626,-3.27932 1.0450592,-0.72073 5.6937705,-0.25226 6.2343182,-0.90091 0.540548,-0.64866 -0.4684746,-2.19823 0.07207,-2.88293 0.540548,-0.68469 4.000054,-2.09011 5.549625,-2.09011 1.54957,0 4.108163,2.05408 5.225295,1.5856 1.117132,-0.46847 1.65768,-2.34237 1.801826,-3.20725 0.144146,-0.86487 1.009023,-2.6667 1.009023,-2.6667 l 2.414447,-0.21622 2.126156,-0.72073 5.585661,-0.50451 -1.801829,-1.29732 -6.955047,0.61263 3.814922,-3.70053 c 0,0 3.37671,-0.36933 4.484693,-0.6859 1.107982,-0.31656 5.276106,-2.1632 7.122745,-2.1632 1.846638,0 4.906779,0.89694 6.436849,1.74112 1.530072,0.84417 3.640516,2.42701 3.640516,2.42701 l 0.211042,1.79387 2.42701,4.22089 -0.685893,1.37179 -2.268728,-0.15829 c 0,0 -2.849097,-0.15828 -2.743576,1.05522 0.105524,1.21351 3.851561,1.31903 5.381631,1.37179 1.530072,0.0528 6.120283,-0.10552 6.120283,-0.10552 l 1.213506,1.79388 -0.05276,3.00738 -0.633135,0.52761 -1.635593,-0.26381 -2.374247,1.21351 -2.796336,-0.58037 -1.741117,-0.58038 -4.115364,-0.10552 -3.091129,0.56603 -4.928391,0.42486 -5.778111,2.29425 -2.464195,1.95436 3.058999,-0.33989 10.111698,-2.71911 3.058998,-0.25492 2.039335,0.59481 7.902418,0.50983 4.16364,1.44453 0.594804,1.69944 -0.739142,0.8958 -3.95708,2.1632 -1.002461,2.1632 -4.695735,1.31903 9.866321,-1.63559 2.95462,-2.26873 c 0,0 2.743576,-2.79634 4.48469,-3.21842 1.741115,-0.42209 1.952159,0.42208 2.796336,0.47485 0.844177,0.0528 4.43193,0.89693 4.43193,0.89693 l -3.482229,-3.21842 4.220885,1.31902 3.904318,0.0528 c 0,0 1.793878,0.84417 2.479771,0.89693 0.685895,0.0528 3.904321,-0.0528 4.642974,-0.2638 0.738656,-0.21105 1.688356,-0.73866 1.688356,-0.73866 l 1.477309,-0.10552 c 0,0 -0.791416,1.21351 -1.213506,1.37179 -0.422087,0.15828 -1.160743,1.42455 -1.160743,1.42455 l 0.633135,0.15828 0.844177,-0.15828 c 0,0 2.00492,-1.47731 3.007381,-1.68836 1.002459,-0.21104 6.201823,2.28792 6.201823,2.28792 0,0 1.966556,1.4869 2.733986,1.39097 0.76743,-0.0959 2.4462,-2.15841 3.21363,-2.39823 0.76743,-0.23982 5.08425,0.43168 6.13947,0.14389 1.05522,-0.28778 1.43894,-1.24708 2.39823,-1.39097 0.95929,-0.14389 2.25434,-0.28779 2.25434,-0.28779 l 3.45345,1.29505 4.36478,0.33575 2.78195,1.82265 1.82265,1.6308 -1.15115,0.6715 -4.26885,0.1439 -2.35027,1.10319 -30.284156,1.10079 -35.611863,0.74776 -24.488997,0.65428 -2.710616,0.56082 -14.768173,0.37388 -11.68368236,0.56081 -2.14979754,-0.65428 -0.7477556,-4.95388"
       id="path12" /><path
       style="fill:#c8638f;fill-opacity:1;stroke-width:0.529167;stroke-linecap:square;stroke-miterlimit:4.2;paint-order:markers fill stroke"
       d="m 409.42543,131.0143 1.09283,-1.9515 0.39031,-2.10763 c 0,0 1.63926,0 2.18567,-0.46836 0.54642,-0.46836 2.10762,-2.88822 2.10762,-2.88822 0,0 1.32705,2.81016 2.41988,3.27852 1.09284,0.46837 9.3672,1.63927 9.3672,1.63927 l -2.57598,-1.95151 -4.52747,-1.09284 1.24894,-2.18568 -0.39029,-1.95151 0.46837,-1.71732 1.95148,-0.3903 c 0,0 6.40094,-4.68361 8.58663,-5.46421 2.18567,-0.7806 9.28915,-0.85866 9.28915,-0.85866 l 4.6836,-1.1709 h 5.38615 l 1.37123,-0.31284 c 0,0 3.1781,-2.28426 4.43609,-2.38357 1.25801,-0.0993 3.67466,1.52284 4.20436,2.15183 0.52967,0.629 2.25115,2.15183 2.97944,3.04567 0.72832,0.89384 1.45664,1.42352 1.22489,2.48289 -0.23172,1.05936 -1.02624,1.82078 -1.92008,1.9863 -0.89384,0.16553 -2.18495,0.16553 -2.88015,-0.19863 -0.69522,-0.36415 -0.99316,-0.86073 -1.65526,-0.72831 -0.66209,0.13242 -3.34361,1.68836 -4.6347,1.82078 -1.29112,0.13242 -2.84705,-0.16552 -2.84705,-0.16552 0,0 -2.81393,-0.83365 -3.23527,-0.62298 -0.42134,0.21066 1.17373,1.44458 1.65526,1.71544 0.48153,0.27086 3.3707,1.50478 3.3707,1.50478 l 1.08344,0.6922 -0.90287,0.48153 -3.40079,-0.57182 c 0,0 -1.3543,0.0602 -1.50478,0.0602 -0.15048,0 -3.76195,0.7223 -3.76195,0.7223 l -2.46783,1.11353 -2.99314,1.92065 -2.24349,1.75101 -1.12175,2.21613 -1.53213,1.77837 -1.23119,1.86046 -0.19151,1.47741 -2.1167,2.43879 -1.50255,0.48469 -1.93876,1.55101 -0.87245,1.59949 -3.73213,-2.90816 -4.31376,-2.08417 -7.7066,-2.56887 c 0,0 -1.30867,-0.29081 -1.50255,-1.35714 -0.19387,-1.06632 0.19994,-1.67259 0.19994,-1.67259 z"
       id="path18" /><path
       style="fill:#d0768f;fill-opacity:1;stroke-width:2;stroke-linecap:square;stroke-miterlimit:4.2;paint-order:markers fill stroke"
       d="m 1152.0215,-653.11456 35.4202,-5.6154 8.6391,-7.34322 c 0,0 21.3221,5.7414 29.3684,5.47319 8.0463,-0.26821 24.6753,-3.21851 34.8672,-4.02314 10.192,-0.80463 15.288,2.41389 23.066,1.34105 7.7781,-1.07284 21.1886,-6.43703 21.1886,-6.43703 l 12.3376,1.87747 25.7481,-15.28794 9.1192,-2.6821 8.8509,-9.11912 c 0,0 3.3249,4.14636 8.8303,4.28399 5.5054,0.13764 27.6644,-13.62575 33.3074,-15.96553 5.643,-2.33977 16.2408,-1.2387 21.1956,-2.61504 4.9548,-1.37634 10.3226,-11.42361 12.9376,-14.17629 2.615,-2.75268 1.9269,-3.57848 6.6064,-4.54192 4.6796,-0.96344 8.1204,1.10107 10.4602,3.30321 2.3398,2.20215 2.4774,6.19353 4.2667,8.80857 1.7892,2.61505 18.5805,12.39956 21.3332,15.02712 2.7527,2.62755 6.3812,10.88559 8.6334,12.63729 2.2522,1.75171 2.8778,0.62561 6.8817,2.25219 4.0039,1.62658 11.6363,9.38413 14.5141,11.26096 2.8778,1.87682 8.7585,4.25413 13.6383,4.87974 4.8797,0.62561 17.0165,-6.50633 23.648,-7.75754 6.6314,-1.25122 28.9031,2.37731 35.2843,3.5034 6.3812,1.1261 14.8895,4.25414 18.518,5.88072 3.6286,1.62659 9.1339,5.50536 9.1339,5.50536 0,0 -5.0049,6.50633 -2.3773,7.5073 2.6275,1.00098 4.2541,-0.75073 6.5063,-4.12901 2.2522,-3.37829 7.0068,-9.88462 13.7634,-14.63924 6.7566,-4.75463 18.2678,-11.13584 23.8983,-11.13584 5.6304,0 16.7663,7.38218 20.8953,7.63243 4.129,0.25024 8.5083,-4.62951 12.387,-4.37926 3.8788,0.25024 16.6412,8.75852 20.1446,9.50925 3.5034,0.75073 18.0176,-3.50341 22.8973,-0.75073 4.8797,2.75268 11.3861,12.76241 14.2639,13.38802 2.8778,0.62561 7.0068,0.62561 7.0068,0.62561 0,0 5.9485,5.39164 9.6124,6.3076 3.6638,0.91595 9.7098,2.36634 16.9138,2.0132 7.2041,-0.35314 45.43,-10.60803 50.2747,-10.15383 4.8448,0.45419 7.4185,2.42235 9.6895,2.27096 2.2709,-0.1514 11.2034,-0.90839 14.6855,-2.57376 3.4821,-1.66537 13.4744,-12.41457 19.0761,-12.71737 5.6017,-0.30279 12.7173,11.80899 19.6816,11.052 6.9643,-0.75698 8.9324,-2.72515 11.5062,-5.2989 2.5738,-2.57376 5.1475,-8.62965 5.1475,-8.62965 l 9.6894,-2.42235 -0.1514,10.9006 c 0,0 -10.9006,4.08773 -13.4743,6.35869 -2.5738,2.27095 -5.9045,7.87265 -3.3308,8.78104 2.5738,0.90838 5.2989,-0.3028 6.8129,-0.3028 1.514,0 9.9922,-4.99611 9.9922,-4.99611 l -0.1514,36.78954 -86.902,2.42235 h -20.8928 c 0,0 -11.052,-1.66536 -12.1118,-1.66536 -1.0598,0 -55.26,-0.75699 -55.26,-0.75699 l -233.6671,-3.91086 -68.3273,1.96343 -79.7152,6.67566 c 0,0 14.5294,-10.9952 11.3879,-17.27817 -3.1415,-6.28297 -26.7026,-4.71222 -37.6978,-3.92685 -10.9952,0.78537 -38.8759,-7.46103 -48.3003,-7.46103 -9.4245,0 -59.2955,4.71223 -76.5737,5.10491 -17.2782,0.39269 -55.0938,-12.64447 -55.0938,-12.64447 z"
       id="path19"
       transform="matrix(0.26458333,0,0,0.26458333,0,317.49992)" /></g></svg>
