<?xml version="1.0" encoding="UTF-8" standalone="no"?>
<!-- Created with Inkscape (http://www.inkscape.org/) -->

<svg
   width="1920"
   height="1200"
   viewBox="0 0 508 317.5"
   version="1.1"
   id="svg1"
   inkscape:version="1.4.2 (f4327f4, 2025-05-13)"
   xml:space="preserve"
   sodipodi:docname="sunset_06_005.svg"
   xmlns:inkscape="http://www.inkscape.org/namespaces/inkscape"
   xmlns:sodipodi="http://sodipodi.sourceforge.net/DTD/sodipodi-0.dtd"
   xmlns:xlink="http://www.w3.org/1999/xlink"
   xmlns="http://www.w3.org/2000/svg"
   xmlns:svg="http://www.w3.org/2000/svg"><sodipodi:namedview
     id="namedview1"
     pagecolor="#ffffff"
     bordercolor="#000000"
     borderopacity="0.25"
     inkscape:showpageshadow="2"
     inkscape:pageopacity="0.0"
     inkscape:pagecheckerboard="0"
     inkscape:deskcolor="#d1d1d1"
     inkscape:document-units="px"
     inkscape:zoom="0.38251315"
     inkscape:cx="866.63688"
     inkscape:cy="-294.10754"
     inkscape:window-width="1920"
     inkscape:window-height="991"
     inkscape:window-x="-9"
     inkscape:window-y="1341"
     inkscape:window-maximized="1"
     inkscape:current-layer="layer1" /><defs
     id="defs1"><inkscape:path-effect
       effect="powerstroke"
       message=""
       id="path-effect26"
       is_visible="true"
       lpeversion="1.3"
       scale_width="1"
       interpolator_type="CubicBezierJohan"
       interpolator_beta="0.2"
       start_linecap_type="zerowidth"
       end_linecap_type="zerowidth"
       offset_points="0,0.5772388"
       linejoin_type="extrp_arc"
       miter_limit="4"
       not_jump="false"
       sort_points="true" /><inkscape:path-effect
       effect="spiro"
       id="path-effect25"
       is_visible="true"
       lpeversion="1" /><inkscape:path-effect
       effect="powerstroke"
       message=""
       id="path-effect23"
       is_visible="true"
       lpeversion="1.3"
       scale_width="1"
       interpolator_type="CubicBezierJohan"
       interpolator_beta="0.2"
       start_linecap_type="zerowidth"
       end_linecap_type="zerowidth"
       offset_points="0,0.5772388"
       linejoin_type="extrp_arc"
       miter_limit="4"
       not_jump="false"
       sort_points="true" /><inkscape:path-effect
       effect="spiro"
       id="path-effect22"
       is_visible="true"
       lpeversion="1" /><inkscape:path-effect
       effect="powerstroke"
       message=""
       id="path-effect20"
       is_visible="true"
       lpeversion="1.3"
       scale_width="1"
       interpolator_type="CubicBezierJohan"
       interpolator_beta="0.2"
       start_linecap_type="zerowidth"
       end_linecap_type="zerowidth"
       offset_points="0,0.5772388"
       linejoin_type="extrp_arc"
       miter_limit="4"
       not_jump="false"
       sort_points="true" /><inkscape:path-effect
       effect="spiro"
       id="path-effect19"
       is_visible="true"
       lpeversion="1" /><inkscape:path-effect
       effect="powerstroke"
       message=""
       id="path-effect14"
       is_visible="true"
       lpeversion="1.3"
       scale_width="1"
       interpolator_type="CubicBezierJohan"
       interpolator_beta="0.2"
       start_linecap_type="zerowidth"
       end_linecap_type="zerowidth"
       offset_points="0,0.5772388"
       linejoin_type="extrp_arc"
       miter_limit="4"
       not_jump="false"
       sort_points="true" /><inkscape:path-effect
       effect="spiro"
       id="path-effect13"
       is_visible="true"
       lpeversion="1" /><inkscape:path-effect
       effect="powerstroke"
       message=""
       id="path-effect11"
       is_visible="true"
       lpeversion="1.3"
       scale_width="1"
       interpolator_type="CubicBezierJohan"
       interpolator_beta="0.2"
       start_linecap_type="zerowidth"
       end_linecap_type="zerowidth"
       offset_points="0,0.5772388"
       linejoin_type="extrp_arc"
       miter_limit="4"
       not_jump="false"
       sort_points="true" /><inkscape:path-effect
       effect="spiro"
       id="path-effect10"
       is_visible="true"
       lpeversion="1" /><inkscape:path-effect
       effect="powerstroke"
       message=""
       id="path-effect6"
       is_visible="true"
       lpeversion="1.3"
       scale_width="1"
       interpolator_type="CubicBezierJohan"
       interpolator_beta="0.2"
       start_linecap_type="zerowidth"
       end_linecap_type="zerowidth"
       offset_points="0,0.5772388"
       linejoin_type="extrp_arc"
       miter_limit="4"
       not_jump="false"
       sort_points="true" /><inkscape:path-effect
       effect="spiro"
       id="path-effect5"
       is_visible="true"
       lpeversion="1" /><linearGradient
       id="linearGradient16"
       inkscape:collect="always"><stop
         style="stop-color:#ca658f;stop-opacity:1;"
         offset="0"
         id="stop16" /><stop
         style="stop-color:#e8708c;stop-opacity:1;"
         offset="1"
         id="stop17" /></linearGradient><linearGradient
       id="linearGradient13"
       inkscape:collect="always"><stop
         style="stop-color:#7d557a;stop-opacity:1;"
         offset="0"
         id="stop14" /><stop
         style="stop-color:#7d557a;stop-opacity:0;"
         offset="1"
         id="stop15" /></linearGradient><linearGradient
       id="linearGradient8"
       inkscape:collect="always"><stop
         style="stop-color:#fddc7b;stop-opacity:1;"
         offset="0.71362019"
         id="stop11" /><stop
         style="stop-color:#fddc7b;stop-opacity:0;"
         offset="1"
         id="stop12" /></linearGradient><linearGradient
       id="linearGradient4"
       inkscape:collect="always"><stop
         style="stop-color:#ffffff;stop-opacity:0.8037402;"
         offset="0"
         id="stop4" /><stop
         style="stop-color:#ffffff;stop-opacity:0.40392157;"
         offset="0.2626459"
         id="stop13" /><stop
         style="stop-color:#ffffff;stop-opacity:0;"
         offset="0.52871925"
         id="stop5" /></linearGradient><linearGradient
       id="linearGradient5"><stop
         style="stop-color:#fdd57d;stop-opacity:1;"
         offset="0.00022799"
         id="stop8" /><stop
         style="stop-color:#ffd16e;stop-opacity:1;"
         offset="0.30471653"
         id="stop1" /><stop
         style="stop-color:#c67281;stop-opacity:0.7952891;"
         offset="0.62660164"
         id="stop9" /><stop
         style="stop-color:#2a4687;stop-opacity:0.0027248;"
         offset="1"
         id="stop10" /></linearGradient><radialGradient
       inkscape:collect="always"
       xlink:href="#linearGradient5"
       id="radialGradient2"
       cx="255.03188"
       cy="120.64713"
       fx="255.03188"
       fy="120.64713"
       r="254"
       gradientTransform="matrix(2.1564986,0,0,0.71818443,-293.99192,55.830269)"
       gradientUnits="userSpaceOnUse" /><radialGradient
       inkscape:collect="always"
       xlink:href="#linearGradient4"
       id="radialGradient5"
       cx="255.0211"
       cy="114.99715"
       fx="255.0211"
       fy="114.99715"
       r="23.209774"
       gradientUnits="userSpaceOnUse"
       gradientTransform="matrix(3.8946123,0,0,3.3831248,-738.18715,-241.24398)" /><linearGradient
       inkscape:collect="always"
       xlink:href="#linearGradient8"
       id="linearGradient12"
       x1="-7.0766134"
       y1="87.115669"
       x2="469.99146"
       y2="87.115669"
       gradientUnits="userSpaceOnUse"
       gradientTransform="translate(0,22.225008)" /><filter
       inkscape:collect="always"
       style="color-interpolation-filters:sRGB"
       id="filter12"
       x="-0.0086620332"
       y="-0.0086620332"
       width="1.0173241"
       height="1.0173241"><feGaussianBlur
         inkscape:collect="always"
         stdDeviation="0.16753653"
         id="feGaussianBlur12" /></filter><linearGradient
       inkscape:collect="always"
       xlink:href="#linearGradient13"
       id="linearGradient15"
       x1="252.65907"
       y1="124.29449"
       x2="253.21773"
       y2="289.1796"
       gradientUnits="userSpaceOnUse"
       gradientTransform="matrix(1,0,0,1.0000017,0,31.772587)" /><linearGradient
       inkscape:collect="always"
       xlink:href="#linearGradient16"
       id="linearGradient17"
       x1="398.51245"
       y1="98.20092"
       x2="397.20081"
       y2="127.24696"
       gradientUnits="userSpaceOnUse"
       gradientTransform="translate(0,23.283342)" /><inkscape:path-effect
       effect="fill_between_many"
       method="bsplinespiro"
       autoreverse="false"
       close="false"
       join="false"
       linkedpaths="#path5,0,1"
       id="path-effect7"
       is_visible="true"
       lpeversion="0" /><inkscape:path-effect
       effect="fill_between_many"
       method="bsplinespiro"
       autoreverse="false"
       close="false"
       join="false"
       linkedpaths="#path10,0,1"
       id="path-effect12"
       is_visible="true"
       lpeversion="0" /><inkscape:path-effect
       effect="fill_between_many"
       method="bsplinespiro"
       autoreverse="false"
       close="false"
       join="false"
       linkedpaths="#path13,0,1"
       id="path-effect15"
       is_visible="true"
       lpeversion="0" /><inkscape:path-effect
       effect="fill_between_many"
       method="bsplinespiro"
       autoreverse="false"
       close="false"
       join="false"
       linkedpaths="#path19,0,1"
       id="path-effect21"
       is_visible="true"
       lpeversion="0" /><inkscape:path-effect
       effect="fill_between_many"
       method="bsplinespiro"
       autoreverse="false"
       close="false"
       join="false"
       linkedpaths="#path22,0,1"
       id="path-effect24"
       is_visible="true"
       lpeversion="0" /><inkscape:path-effect
       effect="fill_between_many"
       method="bsplinespiro"
       autoreverse="false"
       close="false"
       join="false"
       linkedpaths="#path25,0,1"
       id="path-effect27"
       is_visible="true"
       lpeversion="0" /></defs><g
     inkscape:label="Layer 1"
     inkscape:groupmode="layer"
     id="layer1"><image
       width="508"
       height="317.5"
       preserveAspectRatio="none"
       xlink:href="heaven_generated.jpg"
       id="image1"
       x="-0.82387966"
       y="-318.52127"
       style="display:inline" /><rect
       style="display:inline;fill:#213277;fill-opacity:1;stroke-width:0.521549;stroke-linecap:square;stroke-miterlimit:4.2;paint-order:markers fill stroke"
       id="rect1"
       width="508"
       height="112.44791"
       x="0"
       y="-317.5"
       inkscape:label="water"
       transform="scale(1,-1)" /><rect
       style="display:inline;fill:#2a4687;fill-opacity:1;stroke-width:0.55778;stroke-linecap:square;stroke-miterlimit:4.2;paint-order:markers fill stroke"
       id="rect2"
       width="508"
       height="205.05208"
       x="0"
       y="0"
       inkscape:label="sky" /><rect
       style="display:inline;fill:url(#radialGradient2);fill-opacity:1;stroke-width:0.557791;stroke-linecap:square;stroke-miterlimit:4.2;paint-order:markers fill stroke"
       id="rect13"
       width="508"
       height="317.5"
       x="0"
       y="1.6465469e-15"
       inkscape:label="sun gradient" /><path
       style="fill:url(#linearGradient12);stroke-width:0.529167;stroke-linecap:square;stroke-miterlimit:4.2;paint-order:markers fill stroke"
       d="m -5.1466281,118.05017 90.7093181,-4.50332 44.38967,1.28667 49.53629,7.07662 34.09641,5.14663 83.63272,-3.21664 50.1796,-9.00661 75.26944,-16.083291 43.74634,-5.14663 c 17.58907,-2.464296 -35.38308,-1.929986 -35.38308,-1.929986 l -74.6261,16.726587 -60.47287,10.93663 -73.98278,1.92999 -26.46262,-6.10479 -74.20464,-9.62566 -36.572765,3.31753 -90.9553029,4.43709 z"
       id="path4"
       inkscape:label="trail1 yellow"
       sodipodi:nodetypes="cccccccccccccccccc" /><path
       style="fill:#f3a380;fill-opacity:1;stroke-width:0.529167;stroke-linecap:square;stroke-miterlimit:4.2;paint-order:markers fill stroke"
       d="m 158.25881,139.72594 21.59298,4.33739 45.19891,1.59815 57.37052,-5.29221 32.17319,-2.08659 12.85979,0.1566 22.67312,-6.10993 13.17976,-6.44343 6.20035,-3.88099 3.94217,-3.30144 12.86313,4.08433 2.95646,4.65943 11.37546,-18.17497 8.20973,3.75273 -1.24016,-11.84703 19.68086,-4.493078 17.4829,0.08116 8.06308,-2.203162 3.51515,15.33207 -25.80007,14.49817 22.69453,-1.96378 60.1241,-10.36489 -2.22395,5.05363 -57.56656,13.88484 -33.58892,5.54756 -51.36811,2.53211 -39.88636,4.5033 -104.61369,12.00569 -50.42848,-6.85906 z"
       id="path8"
       sodipodi:nodetypes="cccccccccccccccccccccccccccccc"
       inkscape:label="trail8" /><path
       style="fill:#f3a380;fill-opacity:1;stroke-width:0.529167;stroke-linecap:square;stroke-miterlimit:4.2;paint-order:markers fill stroke"
       d="m 103.03358,133.29265 50.72193,-3.21664 18.65653,5.78996 34.68125,-2.33938 -15.32291,-6.31631 12.47641,1.56753 26.94361,1.50213 42.22422,-2.13391 15.88766,-0.67465 26.60503,0.0829 -6.99368,-5.42682 28.12023,-3.36225 26.99949,4.3401 -21.46009,4.36602 -20.65679,6.09046 -48.50185,4.87744 -55.32626,5.3232 -39.24304,-0.8199 -18.65652,-7.07661 z"
       id="path7"
       sodipodi:nodetypes="cccccccccccccccccccc"
       inkscape:label="trail7" /><path
       style="opacity:0.702231;fill:url(#linearGradient17);fill-opacity:1;stroke-width:0.529167;stroke-linecap:square;stroke-miterlimit:4.2;paint-order:markers fill stroke"
       d="m 325.62332,135.42241 18.37375,0.13622 9.56528,0.84118 7.28325,-6.78664 9.35408,-5.0192 5.50561,-4.23708 6.63685,2.29058 5.57245,8.91265 5.43984,3.37582 7.98864,-3.7595 6.10069,-3.82966 8.76019,5.95264 7.78428,-8.49193 7.78428,13.46264 23.65099,2.06999 24.43235,-12.31073 8.94304,7.72711 20.35415,-7.2558 1.22571,12.47889 -44.69933,7.24266 -38.15288,-0.7696 -42.89908,-0.99901 -35.23808,-0.0288 -23.07681,4.49352 9.92565,-7.71165 -10.25507,-2.31229 -11.68241,-1.22602 -14.8609,1.41533 z"
       id="path15"
       sodipodi:nodetypes="ccccccccccccccccccccccccccccc"
       inkscape:label="trail15" /><path
       style="fill:#ca658f;fill-opacity:1;stroke-width:0.529167;stroke-linecap:square;stroke-miterlimit:4.2;paint-order:markers fill stroke"
       d="m 416.02166,131.57573 -5.19094,-4.62575 -13.99313,-5.6524 5.98456,-10.1123 9.41233,4.6003 7.96106,2.25888 -9.80354,-9.81701 -0.68157,-4.00539 17.52869,-5.044384 15.72411,-0.0831 8.09539,-2.744128 3.65244,12.149312 -9.96372,-2.43919 -3.3029,4.93731 -6.27345,-2.45081 -6.31083,-0.6263 10.11766,5.72663 -6.62423,1.54324 -5.68415,6.66691 z"
       id="path16"
       sodipodi:nodetypes="cccccccccccccccccccc"
       inkscape:label="trail16" /><path
       style="fill:#f39e7f;fill-opacity:1;stroke-width:0.529167;stroke-linecap:square;stroke-miterlimit:4.2;paint-order:markers fill stroke"
       d="m 228.94338,159.40005 56.55289,-6.79497 -9.07768,3.75953 50.84275,-3.04023 2.00589,-3.6589 20.12215,-3.76981 78.13714,1.02781 19.07646,0.3848 -19.80431,4.93033 44.99828,1.33314 48.59732,10.58048 -104.71997,11.80487 -51.84941,1.02732 -47.45543,-11.86386 -64.32509,-0.55713 -11.46156,-3.1986 z"
       id="path17"
       sodipodi:nodetypes="ccccccccccccccccc"
       inkscape:label="trail17" /><circle
       style="fill:url(#radialGradient5);stroke-width:0.52917;stroke-linecap:square;stroke-miterlimit:4.2;paint-order:markers fill stroke"
       id="circle4"
       cx="255.0211"
       cy="147.80521"
       inkscape:label="sun halo"
       r="50.872902" /><circle
       style="fill:#ffffff;fill-opacity:0.794547;stroke-width:0.529169;stroke-linecap:square;stroke-miterlimit:4.2;paint-order:markers fill stroke;filter:url(#filter12)"
       id="path1"
       cx="255.0211"
       cy="147.80521"
       inkscape:label="sun 1"
       r="23.209774" /><path
       style="fill:url(#linearGradient15);stroke-width:0.529167;stroke-linecap:square;stroke-miterlimit:4.2;paint-order:markers fill stroke"
       d="m -30.942716,181.18195 65.421742,-21.21789 9.724853,6.18855 17.681551,3.53631 20.333784,-11.49303 15.029318,2.65224 45.623198,-0.70566 14.47172,-2.81593 9.39637,11.30587 25.80668,11.84587 22.99401,-10.78736 31.11713,22.98406 28.30102,-14.47919 45.07742,-10.27502 16.0346,-7.44508 17.56034,10.9814 20.47431,2.00162 19.01744,-0.23994 33.31391,-10.52466 20.0225,8.76298 8.84076,-5.30448 54.88628,14.41547 24.6807,21.83177 -577.302644,2.65223 z"
       id="path3"
       sodipodi:nodetypes="ccccccccccccccccccccccccc"
       inkscape:label="mountains far" /><path
       style="fill:#383e7c;fill-opacity:1;stroke-width:0.529167;stroke-linecap:square;stroke-miterlimit:4.2;paint-order:markers fill stroke"
       d="m -22.503793,205.05208 575.454143,-1.60742 -27.32604,-37.77429 -81.9781,22.50383 -28.91424,-4.58189 -33.15345,-0.0658 -21.35128,8.66703 -23.70426,-0.56293 -52.30057,-20.85486 -26.79522,5.48135 -35.04513,20.35651 -33.83243,0.24074 -31.82679,-23.95053 -16.07414,0.80372 -19.72668,-12.92751 -22.284935,1.31318 -12.640449,9.20312 L 53.044653,185.76308 36.970517,172.10003 -8.0370687,158.437 Z"
       id="path2"
       sodipodi:nodetypes="ccccccccccccccccccccc"
       inkscape:label="mountains near" /><path
       style="fill:#80678f;fill-opacity:1;stroke-width:0.529167;stroke-linecap:square;stroke-miterlimit:4.2;paint-order:markers fill stroke"
       d="m -6.9169734,143.19282 c 2.7667894,0 20.7509204,0 20.7509204,0 l -3.458487,-14.52564 33.89317,-8.30041 15.217341,13.14229 -35.276564,6.22528 34.584867,-2.0751 -6.916973,9.68377 13.833945,-11.06716 17.984132,-0.6917 1.383395,4.15019 7.60867,-2.76679 9.683767,-2.0751 17.98413,5.53358 -44.96033,5.53358 -38.73505,4.84188 -41.5018413,-1.38339 z"
       id="path27"
       inkscape:label="cloud bottom left" /><path
       style="fill:#38377b;fill-opacity:1;stroke:#ff01e9;stroke-width:0.3;stroke-linecap:round;stroke-miterlimit:4.2;paint-order:markers fill stroke"
       d="m 198.68515,-940.76059 69.27938,-30.5327 41.82819,-1.2091 -31.37069,-15.87752 88.8854,-11.57695 27.44928,-13.16514 -46.47142,-13.4444 -75.09188,9.9022 43.13558,-64.3444 26.1429,-28.7572 -10.45716,-26.1429 37.90719,-13.0714 28.75718,16.9929 -3.92143,13.0714 27.45004,9.15 5.22858,14.3786 26.14289,-7.8428 14.37859,-16.9929 -5.22858,-24.8358 c 0,0 30.06433,-14.3786 33.98576,-9.15 3.92143,5.2286 37.90719,30.0643 37.90719,30.0643 l 1.30715,-18.3 30.06432,10.4572 v 31.3714 l -48.36435,19.6072 v 14.3786 l -20.91431,2.6143 -1.30714,26.1429 22.22145,-7.8429 10.45716,-13.0714 33.98576,9.15 27.45004,-18.3 14.37859,-2.6143 24.83574,13.0714 20.91432,-3.9214 -13.07145,-23.5286 33.98576,2.6143 16.99288,-9.15 -10.45715,-20.9144 -57.51437,-11.7643 -20.91431,-24.8357 18.30002,-9.15 -10.45715,-22.2215 15.68573,-11.7643 15.68574,1.3072 5.22858,22.2214 13.07144,-7.8428 -5.22867,-45.0987 216.98623,-0.3748 45.74993,53.3163 9.15001,37.9072 -13.07145,36.6001 -28.75718,10.4571 -3.92143,28.7572 -32.67862,20.9143 -26.14289,2.6143 -3.92143,15.6857 13.07144,13.0715 60.12866,-3.9214 9.15001,14.37855 16.99288,-5.22858 14.37859,5.22858 20.91431,-3.92144 43.13577,28.75718 6.53573,20.91432 19.60712,3.92143 24.8358,-24.83575 19.6072,3.92144 18.3,23.5286 41.8286,-5.22858 7.8429,22.22146 41.8286,-14.37859 13.0715,9.15001 13.0714,-5.22858 h 39.2143 l 32.6787,-6.53572 28.7571,9.15001 32.6787,1.30715 81.0429,14.37859 10.4572,3.92143 40.5215,-5.22858 19.6071,7.84287 27.4501,-10.45716 2.6143,27.45004 -41.8287,11.7643 -84.9644,-9.15001 -134.6359,14.37859 -135.7012,4.72208 -97.0505,1.38644 -321.19109,-7.85647 -253.71783,0.92429 -96.58839,4.15931 -53.14672,6.00789 -194.56322,5.0836 z"
       id="path5"
       transform="matrix(0.26458533,0,0,0.24688904,-30.326041,301.36625)"
       inkscape:label="cloud top left"
       sodipodi:nodetypes="cccccccccccccccccccsccccccccccccccccccccccccccccccccccccccccccccccccccccccccccccccccccccccccccc" /><path
       style="fill:#875076;fill-opacity:1;stroke-width:0.529167;stroke-linecap:square;stroke-miterlimit:4.2;paint-order:markers fill stroke"
       d="M -0.62881575,88.972253 6.9169734,76.395938 22.637367,66.963704 l 16.978026,10.061051 6.916972,16.34921 16.34921,-8.174607 16.34921,0.628817 -6.288156,11.947501 13.205129,-5.030528 -3.144078,-5.659342 24.52382,0.628816 3.14407,10.061054 -11.947497,1.257631 23.894997,-11.947501 12.57632,4.401711 -10.06105,3.772895 19.49328,-1.886447 3.14408,2.515264 10.68987,3.772892 -7.54579,1.257639 28.29671,-6.916979 v 6.916979 l 8.17461,1.25764 -1.88645,-6.288171 36.74754,3.065621 17.14198,3.59982 19.30464,7.01134 -85.14166,-2.35806 -49.67644,-3.1441 9.43223,-5.030543 -50.934077,2.515263 6.916976,4.40174 -33.327237,-2.51528 4.401712,-5.659354 -30.183158,0.628814 3.772894,6.28818 -52.191707,4.40174 z"
       id="path28"
       inkscape:label="cloud middle left"
       sodipodi:nodetypes="cccccccccccccccccccccccccccccccccccccc" /><path
       style="fill:#774b80;fill-opacity:1;stroke:#ff01e9;stroke-width:0.079375;stroke-linecap:round;stroke-miterlimit:4.2;paint-order:markers fill stroke"
       d="m 510.81849,92.470526 -41.32892,0.172917 -29.05127,-0.691684 -12.79642,1.210451 -15.39025,-2.420925 -19.1946,1.210474 2.93971,-3.112622 3.97724,-0.17293 -1.90214,-3.112622 4.49601,-0.864617 -2.76678,-5.01477 2.76678,-5.014783 4.66897,-0.172917 0.34584,-2.766775 4.49603,-1.383391 2.24801,-3.631392 4.1502,1.729231 2.76678,-1.210464 3.97726,-1.210461 3.11264,1.383391 2.7668,-1.383391 5.70651,1.383391 0.17291,3.285542 -1.72924,1.383391 6.74404,0.864617 6.22528,-0.864617 5.18774,3.631389 2.248,-0.345847 2.59387,2.247998 5.70651,-1.210464 3.6314,5.36063 3.80434,1.556311 2.0751,-1.902158 3.63141,-1.383384 1.90217,-4.150166 c 0,0 3.97727,-0.345847 5.36064,0 1.3834,0.345847 0.86463,1.037544 0.86463,1.037544 l 2.59387,-1.729241 1.72924,-1.902148 2.42094,1.037534 2.0751,-1.383381 3.45847,0.172917 1.90217,2.075078 3.11264,-1.037534 9.16501,-1.556311 z"
       id="path6" /></g></svg>
